<?xml version="1.0" encoding="iso-8859-1"?>
<!-- Generator: Adobe Illustrator 19.0.0, SVG Export Plug-In . SVG Version: 6.00 Build 0)  -->
<svg version="1.1" id="Layer_1" xmlns="http://www.w3.org/2000/svg" xmlns:xlink="http://www.w3.org/1999/xlink" x="0px" y="0px"
	 viewBox="0 0 502.667 502.667" style="enable-background:new 0 0 502.667 502.667;" xml:space="preserve">
<g>
	<g>
		<path d="M499.467,470l-156.8-254.933l-6.4-194.133C335.2,9.2,326.667,0.667,314.933,0.667h-128
			C175.2,0.667,165.6,9.2,165.6,20.933l-6.4,194.133L2.4,470c-3.2,6.4-3.2,14.933,0,21.333C5.6,497.733,13.067,502,20.533,502H479.2
			c8.533,0,14.933-4.267,20.267-10.667C503.734,484.933,503.734,476.4,499.467,470z M197.6,232.134c2.133-3.2,3.2-7.467,3.2-10.667
			l5.333-179.2H293.6l5.333,179.2c0,4.267,1.067,7.467,3.2,10.667l57.6,93.867c-48,30.933-78.933,19.2-120.533,4.267
			c-25.6-8.533-54.4-19.2-90.667-19.2L197.6,232.134z M57.867,460.4l64-104.533c40.533-8.533,71.467,2.133,103.467,13.867
			c23.467,8.533,48,17.067,75.733,17.067c23.467,0,50.133-6.4,80-25.6l60.8,99.2H57.867z"/>
	</g>
</g>
<g>
</g>
<g>
</g>
<g>
</g>
<g>
</g>
<g>
</g>
<g>
</g>
<g>
</g>
<g>
</g>
<g>
</g>
<g>
</g>
<g>
</g>
<g>
</g>
<g>
</g>
<g>
</g>
<g>
</g>
</svg>
