<svg width="360" height="400" viewBox="0 0 360 400" fill="none" xmlns="http://www.w3.org/2000/svg">
<path opacity="0.6" fill-rule="evenodd" clip-rule="evenodd" d="M281.454 187.661C274.429 184.16 267.763 179.91 263.011 173.683C257.909 166.998 252.881 159.221 253.4 150.904C253.915 142.658 261.285 136.905 265.74 129.974C269.975 123.383 272.34 115.22 279.005 111.058C285.745 106.85 294.25 107.615 302.238 107.184C310.685 106.727 319.828 104.205 327.183 108.455C334.539 112.705 337.527 121.617 340.74 129.433C343.636 136.48 344.563 143.878 344.856 151.455C345.157 159.243 345.798 167.26 342.476 174.277C339.038 181.539 333.251 187.8 325.988 191.315C318.902 194.744 310.663 194.145 302.761 193.497C295.307 192.886 288.164 191.006 281.454 187.661Z" stroke="black" stroke-opacity="0.15" stroke-width="0.666116"/>
<g opacity="0.5">
<path fill-rule="evenodd" clip-rule="evenodd" d="M88.6427 205.987C79.378 186.328 77.6728 164.679 79.6225 143.07C81.5948 121.21 86.8786 99.8306 99.8144 82.1671C113.771 63.11 131.651 44.9264 154.824 40.3842C177.871 35.8668 200.14 48.0197 221.305 58.3536C241.768 68.3446 263.16 78.895 274.374 98.7547C285.535 118.52 283.851 142.234 281.389 164.759C278.943 187.143 275.212 210.305 260.342 227.132C245.412 244.028 222.883 250.617 200.941 255.799C178.484 261.103 154.525 266.503 133.372 257.12C112.185 247.722 98.5404 226.988 88.6427 205.987Z" fill="url(#paint0_linear)"/>
<path fill-rule="evenodd" clip-rule="evenodd" d="M88.6427 205.987C79.378 186.328 77.6728 164.679 79.6225 143.07C81.5948 121.21 86.8786 99.8306 99.8144 82.1671C113.771 63.11 131.651 44.9264 154.824 40.3842C177.871 35.8668 200.14 48.0197 221.305 58.3536C241.768 68.3446 263.16 78.895 274.374 98.7547C285.535 118.52 283.851 142.234 281.389 164.759C278.943 187.143 275.212 210.305 260.342 227.132C245.412 244.028 222.883 250.617 200.941 255.799C178.484 261.103 154.525 266.503 133.372 257.12C112.185 247.722 98.5404 226.988 88.6427 205.987Z" fill="url(#paint1_linear)"/>
</g>
<path fill-rule="evenodd" clip-rule="evenodd" d="M-163.079 236.073C-150.721 225.034 -134.661 220.538 -118.595 217.515C-102.381 214.464 -85.3461 211.878 -70.743 218.698C-55.9817 225.592 -45.4764 239.252 -39.5171 254.445C-33.8735 268.834 -36.4044 284.68 -38.7461 300.275C-41.1608 316.356 -42.1324 333.7 -53.2502 345.902C-64.5938 358.351 -81.7493 363.205 -98.1744 365.498C-114.098 367.72 -130.271 365.95 -144.158 358.589C-157.786 351.366 -166.762 338.629 -174.269 325.163C-182.14 311.047 -190.227 296.059 -188.167 279.656C-186.054 262.83 -175.931 247.551 -163.079 236.073Z" stroke="black" stroke-opacity="0.1" stroke-width="0.666116"/>
<defs>
<linearGradient id="paint0_linear" x1="234.974" y1="245.661" x2="124.398" y2="54.1395" gradientUnits="userSpaceOnUse">
<stop stop-color="#F09819"/>
<stop offset="1" stop-color="#EDDE5D"/>
</linearGradient>
<linearGradient id="paint1_linear" x1="124.418" y1="53.9361" x2="111.56" y2="247.394" gradientUnits="userSpaceOnUse">
<stop stop-color="#8EA1E1"/>
<stop offset="1" stop-color="#CFDEF3"/>
</linearGradient>
</defs>
</svg>
