<svg width="1140" height="649" viewBox="0 0 1140 649" fill="none" xmlns="http://www.w3.org/2000/svg">
<path opacity="0.6" fill-rule="evenodd" clip-rule="evenodd" d="M722.777 282.189C712.232 276.933 702.224 270.552 695.09 261.205C687.43 251.169 679.882 239.493 680.662 227.007C681.435 214.628 692.5 205.992 699.187 195.586C705.545 185.692 709.096 173.437 719.102 167.189C729.219 160.872 741.988 162.02 753.979 161.372C766.66 160.687 780.386 156.9 791.429 163.281C802.47 169.662 806.958 183.041 811.78 194.774C816.128 205.354 817.519 216.46 817.959 227.835C818.412 239.527 819.373 251.561 814.386 262.096C809.226 272.998 800.538 282.397 789.635 287.674C778.996 292.822 766.628 291.923 754.765 290.95C743.575 290.032 732.852 287.211 722.777 282.189Z" stroke="black" stroke-opacity="0.15"/>
<g opacity="0.5">
<path fill-rule="evenodd" clip-rule="evenodd" d="M433.322 309.699C419.413 280.186 416.853 247.687 419.78 215.245C422.741 182.428 430.674 150.333 450.093 123.816C471.045 95.2068 497.887 67.9088 532.676 61.0898C567.275 54.3081 600.706 72.5525 632.48 88.0662C663.2 103.065 695.314 118.904 712.149 148.718C728.905 178.391 726.377 213.991 722.681 247.807C719.008 281.41 713.407 316.182 691.085 341.443C668.67 366.809 634.849 376.699 601.908 384.479C568.195 392.442 532.227 400.549 500.471 386.463C468.665 372.354 448.181 341.228 433.322 309.699Z" fill="url(#paint0_linear)"/>
<path fill-rule="evenodd" clip-rule="evenodd" d="M433.322 309.699C419.413 280.186 416.853 247.687 419.78 215.245C422.741 182.428 430.674 150.333 450.093 123.816C471.045 95.2068 497.887 67.9088 532.676 61.0898C567.275 54.3081 600.706 72.5525 632.48 88.0662C663.2 103.065 695.314 118.904 712.149 148.718C728.905 178.391 726.377 213.991 722.681 247.807C719.008 281.41 713.407 316.182 691.085 341.443C668.67 366.809 634.849 376.699 601.908 384.479C568.195 392.442 532.227 400.549 500.471 386.463C468.665 372.354 448.181 341.228 433.322 309.699Z" fill="url(#paint1_linear)"/>
</g>
<path fill-rule="evenodd" clip-rule="evenodd" d="M55.426 354.866C73.9794 338.294 98.0883 331.544 122.208 327.005C146.548 322.425 172.122 318.544 194.045 328.782C216.205 339.132 231.976 359.638 240.923 382.448C249.395 404.048 245.596 427.837 242.08 451.249C238.455 475.39 236.996 501.428 220.306 519.745C203.276 538.435 177.522 545.722 152.864 549.164C128.959 552.5 104.679 549.843 83.8317 538.793C63.3727 527.948 49.8977 508.827 38.627 488.612C26.811 467.419 14.6703 444.92 17.7633 420.295C20.9361 395.035 36.133 372.098 55.426 354.866Z" stroke="black" stroke-opacity="0.1"/>
<path fill-rule="evenodd" clip-rule="evenodd" d="M81.1593 120.093C79.8385 116.929 80.6357 113.285 81.6001 110.013C82.4944 106.98 84.5154 104.566 86.4642 102.096C88.4424 99.5885 90.1312 96.5695 93.1032 95.4334C96.081 94.295 99.3333 95.6065 102.511 95.9617C105.9 96.3406 109.582 95.694 112.44 97.5949C115.37 99.5436 117.188 102.924 118.111 106.338C118.996 109.614 118.077 112.972 117.498 116.303C116.925 119.601 116.704 123.083 114.736 125.764C112.729 128.499 109.689 130.316 106.467 131.334C103.328 132.326 99.95 132.264 96.7449 131.449C93.6745 130.669 91.1786 128.669 88.6045 126.793C85.8628 124.796 82.4718 123.237 81.1593 120.093Z" stroke="black" stroke-opacity="0.1"/>
<path fill-rule="evenodd" clip-rule="evenodd" d="M1061.02 69.0704C1074.59 68.8366 1088.89 68.7391 1100.04 76.4392C1111.32 84.2228 1117.29 97.3772 1121.07 110.519C1124.75 123.289 1125.21 136.784 1121.03 149.397C1116.86 161.964 1108.25 172.259 1097.86 180.499C1087.06 189.058 1074.8 197.59 1061.02 196.968C1047.45 196.355 1036.93 185.981 1026.53 177.279C1016.86 169.19 1007.56 160.501 1003.28 148.664C998.907 136.568 999.145 123.434 1002.59 111.043C1006.15 98.2039 1012.13 85.5558 1022.97 77.7671C1033.79 69.9939 1047.68 69.3002 1061.02 69.0704Z" stroke="black" stroke-opacity="0.1"/>
<defs>
<linearGradient id="paint0_linear" x1="653" y1="369.26" x2="487" y2="81.7398" gradientUnits="userSpaceOnUse">
<stop stop-color="#F09819"/>
<stop offset="1" stop-color="#EDDE5D"/>
</linearGradient>
<linearGradient id="paint1_linear" x1="487.03" y1="81.4346" x2="467.726" y2="371.862" gradientUnits="userSpaceOnUse">
<stop stop-color="#8EA1E1"/>
<stop offset="1" stop-color="#CFDEF3"/>
</linearGradient>
</defs>
</svg>
