<svg width="31" height="28" viewBox="0 0 31 28" fill="none" xmlns="http://www.w3.org/2000/svg">
<g clip-path="url(#clip0)">
<path d="M0 27.1642C0 27.6258 0.380614 28 0.850217 28H29.8594C30.329 28 30.7097 27.6258 30.7097 27.1642V12.553C30.7097 12.0913 30.329 11.7171 29.8594 11.7171H0.850217C0.380614 11.7171 0 12.0913 0 12.553V27.1642Z" fill="#EFEFF0"/>
<path d="M19.9041 2.23633H10.7578V3.33786e-05H19.9041V2.23633Z" fill="#ABADAD"/>
<path d="M30.7097 16.2129H0V4.47263H8.57822L8.57794 2.23634L10.7579 4.57764e-05L10.7586 4.47263H19.9039L19.9044 4.57764e-05L22.1791 2.23634L22.1786 4.47263H30.7097V16.2129Z" fill="#E3E4E5"/>
<path d="M15.3208 12.3735C15.3208 12.3735 23.0697 12.0306 27.1766 19.6861H14.6621C14.6621 19.6861 12.2988 19.6097 10.2838 22.4285C9.70296 23.6094 9.08315 24.8284 9.78042 27.2275C8.77301 25.552 4.43359 18.1247 4.43359 18.1247C4.43359 18.1247 7.49457 12.678 15.3208 12.3735Z" fill="#E14C40"/>
<path d="M26.7734 31.8107C26.7734 31.8107 23.2001 38.5782 14.4023 38.2457C15.4878 36.399 20.661 27.5923 20.661 27.5923C20.661 27.5923 21.91 25.6186 20.4355 22.494C19.6858 21.4087 18.9221 20.2714 16.4596 19.6649C18.44 19.6457 27.1521 19.6662 27.1521 19.6662C27.1521 19.6662 30.4188 24.9959 26.7734 31.8107Z" fill="#FFD24D"/>
<path d="M3.92427 31.8622C3.92427 31.8622 -0.250958 25.4354 4.44158 18.112C5.52598 19.9595 10.6964 28.768 10.6964 28.768C10.6964 28.768 11.8105 30.8181 15.3007 31.1251C16.6315 31.0296 18.015 30.9482 19.7804 29.1554C18.8074 30.8505 14.4327 38.2577 14.4327 38.2577C14.4327 38.2577 8.10431 38.3737 3.92427 31.8622Z" fill="#00AA60"/>
<path d="M9.42578 25.4203C9.42578 22.2374 12.0507 19.6565 15.2891 19.6565C18.5273 19.6565 21.1519 22.2374 21.1519 25.4203C21.1519 28.6041 18.5273 31.1846 15.2891 31.1846C12.0507 31.1846 9.42578 28.6041 9.42578 25.4203Z" fill="white"/>
<path d="M10.6914 25.4204C10.6914 22.9246 12.7499 20.9009 15.289 20.9009C17.8275 20.9009 19.8862 22.9246 19.8862 25.4204C19.8862 27.9167 17.8275 29.9402 15.289 29.9402C12.7499 29.9402 10.6914 27.9167 10.6914 25.4204Z" fill="#577FC0"/>
<path d="M15.3205 12.3733C15.3205 12.3733 20.4362 12.147 24.5573 16.1683C24.4896 16.1683 10.4854 16.2126 5.98633 16.2126C7.61355 14.6113 10.6004 12.5571 15.3205 12.3733Z" fill="#D6483E"/>
</g>
<defs>
<clipPath id="clip0">
<rect width="30.7097" height="28" fill="white"/>
</clipPath>
</defs>
</svg>
