<svg width="256" height="40" viewBox="0 0 256 40" fill="none" xmlns="http://www.w3.org/2000/svg">
<g clip-path="url(#clip0)">
<path d="M79.1736 21.4099V27.0573H75V10.1616H81.3458C82.6132 10.1616 83.7017 10.3026 84.6114 10.5847C85.5212 10.8668 86.2702 11.2553 86.8586 11.7504C87.4348 12.2282 87.8815 12.8281 88.1616 13.5004C88.4411 14.1732 88.581 14.8998 88.5813 15.6804C88.5813 16.5232 88.4374 17.2963 88.1495 17.9997C87.8688 18.6929 87.4158 19.3131 86.8282 19.8086C86.2351 20.3112 85.4839 20.7035 84.5747 20.9854C83.6654 21.2673 82.5891 21.4083 81.3458 21.4085L79.1736 21.4099ZM79.1736 18.4537H81.3468C82.4328 18.4537 83.2147 18.2102 83.6925 17.7232C84.1703 17.2362 84.4091 16.5558 84.409 15.6821C84.409 15.2953 84.3472 14.9436 84.2236 14.6271C84.1053 14.3177 83.9131 14.038 83.6618 13.8093C83.41 13.5814 83.0931 13.4056 82.7112 13.2817C82.3293 13.1577 81.8745 13.0959 81.3468 13.096H79.1736V18.4537Z" fill="#1D1D1B"/>
<path d="M95.6568 14.8467C96.627 14.8467 97.5118 14.9898 98.3113 15.2759C99.1107 15.5621 99.796 15.972 100.367 16.5057C100.939 17.0392 101.384 17.6867 101.702 18.4482C102.019 19.2097 102.178 20.0658 102.177 21.0165C102.177 21.9751 102.019 22.839 101.702 23.6082C101.385 24.3775 100.94 25.0306 100.367 25.5676C99.7946 26.1052 99.1094 26.5188 98.3113 26.8084C97.5132 27.0981 96.6283 27.2431 95.6568 27.2436C94.6768 27.2436 93.7856 27.0987 92.9833 26.8089C92.181 26.5191 91.4896 26.1055 90.909 25.568C90.3285 25.0309 89.8798 24.3778 89.5628 23.6087C89.2459 22.8396 89.0876 21.9756 89.0879 21.0165C89.0879 20.0655 89.2463 19.2094 89.5631 18.4482C89.8799 17.687 90.3286 17.0395 90.9093 16.5057C91.4895 15.9726 92.1809 15.5627 92.9835 15.2759C93.7862 14.9891 94.6773 14.8461 95.6568 14.8467ZM95.6568 24.576C96.5369 24.576 97.185 24.2843 97.6011 23.7009C98.0173 23.1176 98.2254 22.2307 98.2254 21.0402C98.2254 19.8498 98.0175 18.9647 97.6016 18.3848C97.1858 17.805 96.5375 17.5146 95.6568 17.5138C94.7503 17.5138 94.0872 17.8038 93.6675 18.3837C93.2478 18.9635 93.0379 19.849 93.0379 21.0402C93.0379 22.2307 93.2478 23.1179 93.6675 23.7019C94.0872 24.2859 94.7503 24.5775 95.6568 24.5769V24.576Z" fill="#1D1D1B"/>
<path d="M113.511 17.8849C113.413 18.0008 113.301 18.1059 113.177 18.1983C113.071 18.2756 112.918 18.3142 112.721 18.3142C112.541 18.3166 112.364 18.2725 112.208 18.1867C112.056 18.1016 111.885 18.007 111.696 17.9029C111.483 17.789 111.26 17.694 111.029 17.6191C110.774 17.5344 110.457 17.492 110.079 17.4919C109.609 17.4919 109.204 17.573 108.862 17.7352C108.522 17.8962 108.231 18.1356 108.017 18.431C107.795 18.7327 107.63 19.1019 107.523 19.5385C107.415 19.975 107.362 20.4678 107.362 21.0168C107.362 22.1688 107.599 23.054 108.072 23.6724C108.546 24.2907 109.198 24.5999 110.029 24.5999C110.474 24.5999 110.826 24.5477 111.085 24.4433C111.319 24.3522 111.541 24.2355 111.746 24.0954C111.927 23.9679 112.093 23.8496 112.245 23.7407C112.397 23.6318 112.589 23.5777 112.82 23.5785C113.124 23.5785 113.355 23.6829 113.511 23.8918L114.622 25.179C114.227 25.6047 113.812 25.9506 113.375 26.2165C112.957 26.4749 112.507 26.6852 112.036 26.843C111.589 26.9914 111.128 27.0962 110.659 27.1559C110.213 27.2127 109.763 27.2417 109.314 27.2427C108.544 27.2451 107.782 27.1033 107.072 26.8255C106.363 26.5493 105.724 26.1366 105.195 25.614C104.656 25.0842 104.228 24.4329 103.911 23.6601C103.594 22.8872 103.435 22.006 103.436 21.0165C103.436 20.1507 103.573 19.3408 103.848 18.5871C104.123 17.8333 104.53 17.1803 105.07 16.628C105.609 16.0762 106.276 15.6412 107.071 15.3232C107.866 15.0052 108.785 14.8467 109.83 14.8477C110.835 14.8477 111.715 14.9985 112.473 15.3001C113.23 15.6017 113.914 16.0422 114.523 16.6216L113.511 17.8849Z" fill="#1D1D1B"/>
<path d="M123.648 15.9373C123.841 15.6639 124.101 15.4388 124.407 15.2817C124.71 15.1191 125.053 15.0333 125.402 15.0325H128.427L125.734 19.404C125.529 19.7288 125.319 19.9916 125.105 20.1925C124.884 20.3977 124.618 20.556 124.327 20.6565C124.746 20.7883 125.088 20.9739 125.351 21.2132C125.615 21.4525 125.849 21.754 126.055 22.1178L128.734 27.0574H126.093C125.796 27.061 125.501 27.0358 125.21 26.9822C124.975 26.9376 124.748 26.8615 124.537 26.7563C124.344 26.6594 124.169 26.534 124.018 26.3848C123.863 26.2294 123.726 26.0583 123.611 25.8747L122.251 22.8476C122.128 22.577 121.948 22.3781 121.713 22.2507C121.479 22.1233 121.209 22.0595 120.905 22.0594H119.942V27.0569H116.114V15.0334H119.942V19.7992H120.733C121.079 19.7992 121.336 19.7471 121.504 19.6429C121.673 19.5387 121.823 19.3627 121.955 19.115L123.648 15.9373Z" fill="#1D1D1B"/>
<path d="M135.563 14.8467C136.533 14.8467 137.418 14.9898 138.218 15.2759C139.018 15.5621 139.703 15.972 140.274 16.5057C140.846 17.0392 141.291 17.6867 141.609 18.4482C141.926 19.2097 142.085 20.0658 142.084 21.0165C142.084 21.9751 141.925 22.839 141.609 23.6082C141.292 24.3775 140.847 25.0306 140.274 25.5676C139.701 26.1052 139.016 26.5188 138.218 26.8084C137.42 27.0981 136.535 27.243 135.563 27.2431C134.583 27.2431 133.692 27.0982 132.89 26.8084C132.087 26.5187 131.396 26.105 130.815 25.5676C130.235 25.0304 129.787 24.3773 129.47 23.6082C129.153 22.8392 128.994 21.9753 128.994 21.0165C128.994 20.0655 129.153 19.2094 129.47 18.4482C129.787 17.687 130.235 17.0395 130.815 16.5057C131.395 15.9726 132.087 15.5627 132.89 15.2759C133.693 14.9891 134.584 14.8461 135.563 14.8467ZM135.563 24.576C136.444 24.576 137.092 24.2843 137.508 23.7009C137.923 23.1176 138.131 22.2307 138.131 21.0402C138.131 19.8498 137.923 18.9647 137.508 18.3848C137.092 17.805 136.444 17.515 135.563 17.515C134.658 17.515 133.994 17.805 133.574 18.3848C133.153 18.9647 132.943 19.8498 132.943 21.0402C132.943 22.2307 133.153 23.1179 133.574 23.7019C133.995 24.2859 134.658 24.5775 135.563 24.5769L135.563 24.576Z" fill="#1D1D1B"/>
<path d="M151.677 21.7463C151.8 21.4219 151.932 21.1029 152.071 20.7895C152.205 20.4893 152.357 20.1971 152.529 19.9145L154.701 15.7995C154.883 15.4826 155.103 15.2739 155.362 15.1733C155.611 15.0749 155.877 15.0236 156.147 15.0224H159.356V27.0598H155.899V21.3637C155.899 21.07 155.914 20.7395 155.943 20.3723C155.969 20.0203 156.017 19.6699 156.085 19.3228L152.961 25.0165C152.73 25.4107 152.372 25.6078 151.887 25.6078H151.479C150.994 25.6078 150.636 25.4107 150.405 25.0165L147.257 19.288C147.323 19.6282 147.375 19.9857 147.412 20.3605C147.449 20.7353 147.467 21.0694 147.467 21.363V27.0565H144.01V15.0208H147.22C147.49 15.0221 147.757 15.0754 148.004 15.1773C148.263 15.2822 148.483 15.489 148.665 15.7979L150.826 19.914C151.151 20.5069 151.435 21.119 151.677 21.7463Z" fill="#1D1D1B"/>
<path d="M171.358 17.8849C171.259 18.0006 171.148 18.1057 171.024 18.1983C170.917 18.2755 170.765 18.3141 170.568 18.3141C170.388 18.3166 170.21 18.2725 170.055 18.1867C169.903 18.1015 169.732 18.0069 169.543 17.9029C169.33 17.789 169.107 17.694 168.876 17.6191C168.621 17.5344 168.304 17.492 167.925 17.4919C167.456 17.4919 167.051 17.573 166.709 17.7352C166.369 17.8963 166.078 18.1356 165.863 18.431C165.641 18.7327 165.477 19.1019 165.37 19.5385C165.262 19.975 165.209 20.4677 165.21 21.0165C165.21 22.1686 165.446 23.0537 165.919 23.6721C166.393 24.2904 167.045 24.5996 167.877 24.5996C168.321 24.5996 168.673 24.5474 168.932 24.4431C169.166 24.3521 169.388 24.2353 169.593 24.0952C169.774 23.9676 169.94 23.8494 170.093 23.7404C170.245 23.6315 170.436 23.5774 170.667 23.5782C170.971 23.5782 171.202 23.6827 171.358 23.8916L172.47 25.1788C172.075 25.6045 171.659 25.9503 171.222 26.2163C170.804 26.4748 170.355 26.6851 169.883 26.8427C169.437 26.9911 168.975 27.0959 168.506 27.1556C168.06 27.2124 167.611 27.2414 167.16 27.2424C166.391 27.2448 165.629 27.103 164.919 26.8252C164.21 26.5492 163.571 26.1364 163.042 25.6137C162.503 25.0839 162.075 24.4326 161.758 23.6598C161.44 22.8869 161.282 22.0058 161.281 21.0165C161.281 20.1507 161.419 19.3408 161.695 18.587C161.971 17.8333 162.379 17.18 162.918 16.6272C163.457 16.0754 164.124 15.6405 164.918 15.3225C165.713 15.0045 166.633 14.846 167.677 14.8469C168.682 14.8469 169.562 14.9977 170.32 15.2993C171.077 15.6009 171.76 16.0414 172.37 16.6209L171.358 17.8849Z" fill="#758CDA"/>
<path d="M173.963 15.0332H179.321C180.145 15.0332 180.861 15.1067 181.47 15.2536C182.079 15.4006 182.583 15.6055 182.983 15.8685C183.382 16.131 183.678 16.4423 183.871 16.8024C184.066 17.1674 184.166 17.5708 184.162 17.9792C184.161 18.2508 184.126 18.5213 184.057 18.7851C183.985 19.0657 183.861 19.3324 183.693 19.5738C183.52 19.825 183.283 20.055 182.983 20.2639C182.682 20.4728 182.298 20.6352 181.828 20.7511C182.202 20.8318 182.564 20.9524 182.909 21.1106C183.227 21.2551 183.519 21.4468 183.773 21.6781C184.015 21.9016 184.208 22.1675 184.341 22.4609C184.476 22.7584 184.544 23.0966 184.545 23.4755C184.545 24.1173 184.401 24.6641 184.113 25.1158C183.829 25.5635 183.438 25.9427 182.971 26.2233C182.497 26.5091 181.958 26.7197 181.353 26.8549C180.744 26.9907 180.121 27.0588 179.495 27.0579H173.965L173.963 15.0332ZM177.593 19.9383H179.21C179.68 19.9383 180.062 19.805 180.359 19.5384C180.655 19.2718 180.803 18.9296 180.803 18.5118C180.803 18.3623 180.778 18.2137 180.729 18.0714C180.678 17.9222 180.589 17.7869 180.47 17.6772C180.346 17.561 180.181 17.4664 179.976 17.3934C179.771 17.3204 179.515 17.2837 179.21 17.2832H177.593V19.9383ZM177.593 22.0719V24.6918H179.47C179.947 24.6918 180.326 24.5703 180.606 24.3273C180.885 24.0844 181.025 23.7539 181.026 23.336C181.026 23.1721 181.008 23.0087 180.97 22.8488C180.935 22.6977 180.858 22.5578 180.748 22.443C180.636 22.3271 180.478 22.236 180.272 22.1696C180.067 22.1032 179.799 22.0704 179.47 22.0712L177.593 22.0719Z" fill="#758CDA"/>
<path d="M192.41 14.8467C193.38 14.8467 194.265 14.9898 195.064 15.2759C195.864 15.5621 196.549 15.972 197.12 16.5057C197.692 17.0392 198.137 17.6867 198.455 18.4482C198.773 19.2097 198.932 20.0658 198.93 21.0165C198.93 21.9751 198.772 22.839 198.455 23.6082C198.138 24.3775 197.693 25.0306 197.12 25.5676C196.548 26.1052 195.862 26.5188 195.064 26.8084C194.267 27.0981 193.382 27.243 192.41 27.2431C191.43 27.2431 190.539 27.0982 189.736 26.8084C188.934 26.5187 188.242 26.1047 187.662 25.5666C187.082 25.0295 186.633 24.3764 186.317 23.6075C186 22.8386 185.841 21.9749 185.841 21.0165C185.841 20.0658 185.999 19.2097 186.317 18.4482C186.634 17.6867 187.082 17.0392 187.662 16.5057C188.242 15.9726 188.934 15.5627 189.737 15.2759C190.54 14.9891 191.43 14.8461 192.41 14.8467ZM192.41 24.576C193.29 24.576 193.938 24.2843 194.354 23.7009C194.77 23.1176 194.978 22.2307 194.978 21.0402C194.978 19.8498 194.77 18.9647 194.354 18.3848C193.938 17.805 193.29 17.515 192.41 17.515C191.504 17.515 190.841 17.805 190.422 18.3848C190.002 18.9647 189.792 19.8498 189.791 21.0402C189.791 22.2307 190.001 23.1179 190.422 23.7019C190.842 24.2859 191.505 24.5775 192.41 24.5769V24.576Z" fill="#758CDA"/>
<path d="M208.005 13.3626C207.297 13.4014 206.69 13.5196 206.184 13.7173C205.677 13.915 205.26 14.1835 204.931 14.5228C204.595 14.8721 204.341 15.2827 204.183 15.7289C204.014 16.1926 203.913 16.7067 203.881 17.2711C204.094 17.0084 204.338 16.7692 204.608 16.5581C204.899 16.3319 205.218 16.1412 205.559 15.9905C205.929 15.8269 206.316 15.7006 206.714 15.614C207.157 15.5183 207.611 15.4715 208.066 15.4747C208.914 15.4747 209.679 15.6157 210.363 15.8978C211.031 16.1698 211.627 16.5771 212.109 17.0907C212.59 17.6046 212.961 18.2211 213.22 18.94C213.479 19.659 213.609 20.4593 213.609 21.3411C213.609 22.2537 213.451 23.0735 213.134 23.8006C212.818 24.5278 212.373 25.1462 211.8 25.6559C211.228 26.1663 210.542 26.5586 209.744 26.8329C208.945 27.1073 208.06 27.2441 207.087 27.2435C206.108 27.2435 205.215 27.0966 204.408 26.8029C203.601 26.5092 202.908 26.0416 202.328 25.4C201.748 24.7585 201.299 23.9314 200.982 22.9188C200.665 21.9061 200.507 20.6763 200.507 19.2295C200.507 18.0393 200.624 16.9199 200.859 15.8713C201.094 14.8227 201.491 13.8986 202.049 13.0991C202.604 12.2992 203.341 11.6517 204.259 11.1568C205.177 10.6619 206.319 10.372 207.685 10.287L212.217 9.99756L212.427 11.8062C212.468 12.1846 212.406 12.5074 212.241 12.7744C212.077 13.0415 211.784 13.1827 211.364 13.198L208.005 13.3626ZM207.091 24.7031C207.972 24.7031 208.62 24.4268 209.036 23.8742C209.451 23.3216 209.659 22.4809 209.659 21.3522C209.659 20.2239 209.452 19.3851 209.036 18.836C208.62 18.2868 207.972 18.0125 207.091 18.013C206.177 18.013 205.51 18.2856 205.091 18.8308C204.672 19.376 204.461 20.2088 204.46 21.3293C204.46 22.4659 204.67 23.3124 205.091 23.869C205.511 24.4255 206.178 24.7036 207.091 24.7031Z" fill="#758CDA"/>
<path d="M221.475 14.8467C222.446 14.8467 223.331 14.9898 224.13 15.2759C224.93 15.5621 225.615 15.972 226.186 16.5057C226.758 17.0392 227.203 17.6867 227.521 18.4482C227.839 19.2097 227.997 20.0658 227.996 21.0165C227.996 21.9751 227.837 22.839 227.52 23.6082C227.203 24.3775 226.758 25.0306 226.185 25.5676C225.613 26.1052 224.928 26.5188 224.13 26.8084C223.331 27.0981 222.446 27.243 221.475 27.2431C220.495 27.2431 219.604 27.0982 218.801 26.8084C217.999 26.5187 217.307 26.105 216.727 25.5676C216.147 25.0304 215.698 24.3773 215.381 23.6082C215.064 22.8392 214.906 21.9753 214.906 21.0165C214.906 20.0655 215.065 19.2094 215.382 18.4482C215.699 17.687 216.147 17.0395 216.728 16.5057C217.308 15.9726 217.999 15.5627 218.802 15.2759C219.605 14.9891 220.496 14.8461 221.475 14.8467ZM221.475 24.576C222.356 24.576 223.004 24.2843 223.42 23.7009C223.836 23.1176 224.044 22.2307 224.044 21.0402C224.044 19.8498 223.836 18.9647 223.42 18.3848C223.004 17.805 222.356 17.515 221.475 17.515C220.57 17.515 219.907 17.805 219.486 18.3848C219.065 18.9647 218.856 19.8498 218.859 21.0402C218.859 22.2307 219.069 23.1179 219.488 23.7019C219.908 24.2859 220.57 24.5775 221.475 24.5769V24.576Z" fill="#758CDA"/>
<path d="M241.663 15.0332V24.4839H244.022V29.9795C244.022 30.2883 243.921 30.5356 243.719 30.7213C243.518 30.9071 243.26 30.9999 242.946 30.9997H240.538V27.0571H232.007V30.0268C232.007 30.149 231.986 30.2705 231.945 30.3865C231.904 30.5018 231.839 30.6082 231.753 30.6996C231.663 30.7949 231.551 30.8701 231.426 30.9198C231.277 30.9772 231.118 31.0048 230.957 31.0009H228.525V24.5875H228.958C229.225 24.5806 229.491 24.5416 229.748 24.4716C230.003 24.402 230.248 24.2572 230.482 24.0369C230.717 23.8166 230.937 23.4958 231.143 23.0744C231.349 22.6529 231.536 22.0906 231.705 21.3872C231.874 20.6839 232.024 19.8142 232.156 18.778C232.287 17.7422 232.394 16.4937 232.477 15.0325L241.663 15.0332ZM235.601 17.6895C235.452 19.3982 235.234 20.8106 234.946 21.9267C234.658 23.0428 234.32 23.9297 233.933 24.5875H237.96V17.689L235.601 17.6895Z" fill="#758CDA"/>
<path d="M254.245 27.0572C253.883 27.0572 253.609 27.0108 253.424 26.9181C253.238 26.8254 253.084 26.6319 252.961 26.3375L252.689 25.6768C252.368 25.9322 252.06 26.1565 251.763 26.3496C251.473 26.5396 251.165 26.7046 250.843 26.8424C250.519 26.9797 250.18 27.0808 249.831 27.1437C249.438 27.2124 249.039 27.2454 248.639 27.2423C248.055 27.2423 247.524 27.1709 247.046 27.0281C246.569 26.8852 246.164 26.6745 245.83 26.3959C245.491 26.1105 245.227 25.7554 245.059 25.3585C244.877 24.9448 244.787 24.4672 244.787 23.9258C244.787 23.5001 244.902 23.0635 245.133 22.6159C245.363 22.1683 245.762 21.7605 246.33 21.3925C246.898 21.0253 247.663 20.7179 248.627 20.4702C249.59 20.2225 250.804 20.0833 252.27 20.0525V19.5424C252.27 18.8391 252.115 18.3308 251.807 18.0175C251.498 17.7042 251.059 17.5478 250.491 17.5481C250.038 17.5481 249.668 17.5944 249.38 17.6871C249.114 17.7711 248.856 17.8759 248.608 18.0002C248.382 18.1166 248.162 18.221 247.948 18.3134C247.733 18.4058 247.478 18.4521 247.182 18.4524C246.919 18.4524 246.697 18.3906 246.516 18.267C246.339 18.1479 246.188 17.9983 246.071 17.8262L245.379 16.7014C246.131 16.0725 247.005 15.5862 247.954 15.2697C248.896 14.9566 249.907 14.8 250.986 14.7998C251.76 14.7998 252.457 14.9181 253.079 15.1545C253.7 15.391 254.227 15.7195 254.659 16.14C255.091 16.5614 255.423 17.0619 255.654 17.6415C255.885 18.2211 256 18.855 256 19.5434V27.0574L254.245 27.0572ZM249.849 24.8656C250.343 24.8656 250.775 24.7844 251.146 24.622C251.516 24.4596 251.891 24.1968 252.27 23.8336V22.1637C251.504 22.1941 250.874 22.2559 250.381 22.3491C249.888 22.4423 249.497 22.5584 249.209 22.6974C248.92 22.8365 248.721 22.9949 248.609 23.1726C248.499 23.3481 248.441 23.5485 248.442 23.7524C248.442 24.1624 248.562 24.4503 248.8 24.6163C249.039 24.7824 249.389 24.8651 249.85 24.8647L249.849 24.8656Z" fill="#758CDA"/>
</g>
<g clip-path="url(#clip1)">
<ellipse cx="17.4336" cy="22.7624" rx="17.0342" ry="15.3042" fill="url(#paint0_linear)"/>
<path d="M13.848 6.53916C13.6693 6.0758 13.4289 5.63868 13.1333 5.23963C12.0161 3.79372 10.4052 3.4384 10.0725 3.37186C9.54019 3.26539 7.74361 2.99524 6.15531 4.14306C4.99485 4.98345 4.57099 6.12927 4.38934 6.64096C3.68268 8.63716 4.27289 10.449 4.64086 11.5303C4.78658 11.9568 6.50397 17.0072 9.06842 17.0485C12.2477 17.099 14.9053 9.41368 13.848 6.53916Z" fill="#D38931" stroke="black" stroke-width="0.73418" stroke-miterlimit="3"/>
<path d="M12.0477 7.83677C11.9031 7.19061 11.7612 6.65606 11.4036 6.09878C11.1155 5.63234 10.7516 5.2172 10.327 4.87045C9.80257 4.46069 9.20444 4.1553 8.565 3.97083C7.96615 3.7945 7.60883 3.68937 7.1517 3.78186C6.49561 3.91494 6.00055 4.27822 5.52679 4.80921C5.07154 5.2997 4.80793 5.95527 4.56596 6.5792C4.14875 7.67045 4.21795 8.61266 4.27318 9.26275C4.33573 9.99868 4.49276 10.527 4.72964 11.3208C4.92987 11.9919 5.17804 12.6476 5.47223 13.2831C5.68449 13.7409 5.88345 14.1654 6.23943 14.6804C6.66263 15.2899 6.87423 15.5947 7.0998 15.6859L12.0477 7.83677Z" fill="#99622B"/>
<path d="M13.848 6.53916C13.6693 6.0758 13.4289 5.63868 13.1333 5.23963C12.0161 3.79372 10.4052 3.4384 10.0725 3.37186C9.54019 3.26539 7.74361 2.99524 6.15531 4.14306C4.99485 4.98345 4.57099 6.12927 4.38934 6.64096C3.68268 8.63716 4.27289 10.449 4.64086 11.5303C4.72723 11.7831 5.36573 13.6603 6.4055 15.1561" stroke="black" stroke-width="0.73418" stroke-miterlimit="3"/>
<path d="M7.07306 3.77779L6.99121 3.79975L7.07572 3.81106C7.13095 3.81305 7.21146 3.81904 7.31326 3.82902C7.41507 3.83901 7.5375 3.85298 7.67657 3.87494C7.74644 3.88558 7.81963 3.89889 7.89682 3.9122C7.97401 3.92551 8.05452 3.94347 8.13769 3.96277C8.30471 3.99937 8.48171 4.05193 8.66602 4.11049C8.75652 4.14775 8.853 4.17237 8.94482 4.21429C9.03665 4.25621 9.13446 4.28948 9.22695 4.33872L9.36868 4.40526C9.41659 4.42788 9.4625 4.45516 9.50908 4.48178C9.55566 4.5084 9.6029 4.53368 9.64948 4.56096L9.79188 4.64813C9.8338 4.67874 9.88037 4.70669 9.92496 4.73863C9.96954 4.77056 10.0135 4.80516 10.058 4.8371L10.1246 4.88568L10.1412 4.89832C10.1427 4.89944 10.1434 4.89995 10.1436 4.90005L10.1392 4.89632L10.1352 4.893C10.1352 4.893 10.1445 4.90049 10.1436 4.90005L10.1479 4.90364L10.1811 4.93226L10.3142 5.0467L10.3808 5.10326C10.4031 5.12058 10.4243 5.13948 10.444 5.15982L10.5544 5.26895C10.5917 5.30754 10.6309 5.34214 10.6675 5.38273L10.7753 5.5065C10.8106 5.54775 10.8479 5.58701 10.8811 5.62959L10.9789 5.75868C11.0076 5.80127 11.0455 5.84186 11.0741 5.88644L11.1613 6.01952C11.1899 6.0661 11.2218 6.10735 11.2458 6.1526L11.323 6.28568C11.3775 6.37151 11.4181 6.46201 11.464 6.54785C11.5545 6.72018 11.6211 6.89053 11.6876 7.04956C11.7541 7.20859 11.8087 7.3583 11.8493 7.49271C11.8899 7.62712 11.9265 7.74623 11.9491 7.84537L12.0369 7.83473C12.0369 7.78283 12.0396 7.72427 12.0369 7.66172C12.0343 7.59918 12.0323 7.53064 12.025 7.45811C12.0176 7.38558 12.0116 7.30707 11.9983 7.22655C11.985 7.14604 11.9737 7.05954 11.9538 6.9717C11.9138 6.77997 11.8606 6.59122 11.7947 6.40678C11.7581 6.30764 11.7229 6.20716 11.675 6.10802C11.6306 6.00433 11.5804 5.90325 11.5246 5.80526L11.4401 5.65355C11.4101 5.60298 11.3762 5.55574 11.3436 5.50583L11.2438 5.35678C11.2085 5.30821 11.1686 5.26296 11.1313 5.21505L11.0162 5.07332C10.977 5.02608 10.9304 4.98216 10.8871 4.93691L10.754 4.80383C10.7332 4.78181 10.711 4.76114 10.6875 4.74195L10.621 4.68539L10.4879 4.57228L10.4546 4.54433L10.43 4.5237L10.4107 4.51039L10.3362 4.4565C10.238 4.38423 10.1358 4.31758 10.0301 4.25688L9.87372 4.16505C9.82049 4.13777 9.76726 4.11182 9.71336 4.08653C9.65946 4.06125 9.60756 4.0333 9.553 4.01134L9.39131 3.9448C9.28551 3.90355 9.17705 3.86762 9.07125 3.83701C8.96545 3.8064 8.85832 3.77579 8.75785 3.75916C8.65737 3.74252 8.5549 3.7199 8.45775 3.71058C8.3606 3.70127 8.26678 3.69129 8.17629 3.68463C8.08579 3.67798 7.99996 3.67798 7.91745 3.67798C7.83494 3.67798 7.75709 3.68064 7.68456 3.68596C7.55904 3.69374 7.434 3.70795 7.30994 3.72855C7.20613 3.74518 7.12695 3.76515 7.07306 3.77779Z" fill="black"/>
<path d="M21.0671 6.53916C21.2457 6.0758 21.4861 5.63868 21.7817 5.23963C22.8989 3.79372 24.5098 3.4384 24.8425 3.37186C25.3748 3.26539 27.1714 2.99524 28.7597 4.14306C29.9202 4.98345 30.344 6.12927 30.5257 6.64096C31.2324 8.63716 30.6421 10.449 30.2742 11.5303C30.1285 11.9568 28.4111 17.0072 25.8466 17.0485C22.6673 17.099 20.0097 9.41368 21.0671 6.53916Z" fill="#D38931" stroke="black" stroke-width="0.73418" stroke-miterlimit="3"/>
<path d="M22.8673 7.83677C23.012 7.19061 23.1538 6.65606 23.5114 6.09878C23.7995 5.63234 24.1634 5.2172 24.5881 4.87045C25.1125 4.46069 25.7106 4.1553 26.35 3.97083C26.9489 3.7945 27.3062 3.68937 27.7633 3.78186C28.4194 3.91494 28.9145 4.27822 29.3883 4.80921C29.8435 5.2997 30.1071 5.95527 30.3491 6.5792C30.7663 7.67045 30.6971 8.61266 30.6419 9.26275C30.5793 9.99868 30.4223 10.527 30.1854 11.3208C29.9852 11.9919 29.737 12.6476 29.4428 13.2831C29.2305 13.7409 29.0316 14.1654 28.6756 14.6804C28.2524 15.2899 28.0408 15.5947 27.8152 15.6859L22.8673 7.83677Z" fill="#99622B"/>
<path d="M21.0671 6.53916C21.2457 6.0758 21.4861 5.63868 21.7817 5.23963C22.8989 3.79372 24.5098 3.4384 24.8425 3.37186C25.3748 3.26539 27.1714 2.99524 28.7597 4.14306C29.9202 4.98345 30.344 6.12927 30.5257 6.64096C31.2324 8.63716 30.6421 10.449 30.2742 11.5303C30.1878 11.7831 29.5493 13.6603 28.5095 15.1561" stroke="black" stroke-width="0.73418" stroke-miterlimit="3"/>
<path d="M27.842 3.77779L27.9238 3.79975L27.8393 3.81106C27.7841 3.81305 27.7036 3.81904 27.6018 3.82902C27.5 3.83901 27.3775 3.85298 27.2385 3.87494C27.1686 3.88558 27.0954 3.89889 27.0182 3.9122C26.941 3.92551 26.8605 3.94347 26.7773 3.96277C26.6103 3.99937 26.4333 4.05193 26.249 4.11049C26.1585 4.14775 26.062 4.17237 25.9702 4.21429C25.8784 4.25621 25.7806 4.28948 25.6881 4.33872L25.5464 4.40526C25.4984 4.42788 25.4525 4.45516 25.406 4.48178C25.3594 4.5084 25.3121 4.53368 25.2656 4.56096L25.1232 4.64813C25.0812 4.67874 25.0347 4.70669 24.9901 4.73863C24.9455 4.77056 24.9016 4.80516 24.857 4.8371L24.7905 4.88568L24.7738 4.89832C24.7723 4.89944 24.7716 4.89995 24.7714 4.90005L24.7758 4.89632L24.7798 4.893C24.7798 4.893 24.7706 4.90049 24.7714 4.90005L24.7672 4.90364L24.7339 4.93226L24.6008 5.0467L24.5343 5.10326C24.5119 5.12058 24.4908 5.13948 24.4711 5.15982L24.3606 5.26895C24.3234 5.30754 24.2841 5.34214 24.2475 5.38273L24.1397 5.5065C24.1044 5.54775 24.0672 5.58701 24.0339 5.62959L23.9361 5.75868C23.9075 5.80127 23.8696 5.84186 23.8409 5.88644L23.7538 6.01952C23.7252 6.0661 23.6932 6.10735 23.6693 6.1526L23.5921 6.28568C23.5375 6.37151 23.4969 6.46201 23.451 6.54785C23.3605 6.72018 23.294 6.89053 23.2274 7.04956C23.1609 7.20859 23.1063 7.3583 23.0657 7.49271C23.0252 7.62712 22.9886 7.74623 22.9659 7.84537L22.8781 7.83473C22.8781 7.78283 22.8754 7.72427 22.8781 7.66172C22.8808 7.59918 22.8828 7.53064 22.8901 7.45811C22.8974 7.38558 22.9034 7.30707 22.9167 7.22655C22.93 7.14604 22.9413 7.05954 22.9613 6.9717C23.0013 6.77997 23.0544 6.59122 23.1203 6.40678C23.1569 6.30764 23.1922 6.20716 23.2401 6.10802C23.2844 6.00433 23.3346 5.90325 23.3905 5.80526L23.475 5.65355C23.5049 5.60298 23.5388 5.55574 23.5715 5.50583L23.6713 5.35678C23.7065 5.30821 23.7465 5.26296 23.7837 5.21505L23.8988 5.07332C23.9381 5.02608 23.9847 4.98216 24.0279 4.93691L24.161 4.80383C24.1818 4.78181 24.2041 4.76114 24.2275 4.74195L24.2941 4.68539L24.4272 4.57228L24.4604 4.54433L24.485 4.5237L24.5043 4.51039L24.5789 4.4565C24.677 4.38423 24.7792 4.31758 24.8849 4.25688L25.0413 4.16505C25.0945 4.13777 25.1478 4.11182 25.2017 4.08653C25.2556 4.06125 25.3075 4.0333 25.362 4.01134L25.5237 3.9448C25.6295 3.90355 25.738 3.86762 25.8438 3.83701C25.9496 3.8064 26.0567 3.77579 26.1572 3.75916C26.2577 3.74252 26.3601 3.7199 26.4573 3.71058C26.5544 3.70127 26.6483 3.69129 26.7388 3.68463C26.8292 3.67798 26.9151 3.67798 26.9976 3.67798C27.0801 3.67798 27.158 3.68064 27.2305 3.68596C27.356 3.69374 27.481 3.70795 27.6051 3.72855C27.7089 3.74518 27.7881 3.76515 27.842 3.77779Z" fill="black"/>
<path d="M8.12169 12.2058C7.75496 12.7282 6.75461 14.056 5.99054 16.0274C5.50802 17.2703 5.11224 18.2897 5.02862 19.1493C4.83001 19.3584 4.64425 19.5794 4.47239 19.8112C3.62113 20.9586 3.34092 22.0668 3.18585 22.6938C2.61013 24.9647 3.07004 26.795 3.16854 27.159C4.89404 33.5269 10.1053 36.137 17.5867 36.137C23.7937 36.137 30.3846 32.8211 31.6515 27.159C32.1174 24.9627 31.9177 23.4219 31.6515 22.5487C31.3106 21.4371 30.7968 20.3869 30.1297 19.4363C30.1075 18.7348 29.9841 17.9593 29.5416 16.6624C29.2869 15.907 28.9871 15.1675 28.6438 14.448C28.0348 13.2341 23.2001 4.96772 16.7301 5.63328C12.8472 6.03462 10.1184 9.39174 8.12169 12.2058Z" fill="#D38931" stroke="black" stroke-width="0.546875" stroke-miterlimit="10"/>
<path d="M13.9535 18.0382C13.9759 17.913 13.9792 17.7851 13.9635 17.6589C13.9448 17.5152 13.8783 17.2211 13.4917 16.8158C13.0885 16.3933 12.7025 15.9888 12.2534 16.036C11.6964 16.0946 11.4017 16.8092 11.0011 17.78C10.6544 18.6197 10.7562 18.8666 10.8128 18.9664C11.0038 19.3058 11.4655 19.3657 11.7723 19.4076C11.9719 19.4342 12.8875 19.5267 13.5023 18.8932C13.7357 18.6604 13.893 18.3623 13.9535 18.0382Z" fill="black"/>
<path d="M11.9795 17.8668C12.0795 17.5717 12.0474 17.2941 11.9079 17.2468C11.7683 17.1995 11.5741 17.4004 11.4741 17.6956C11.374 17.9907 11.4061 18.2683 11.5457 18.3156C11.6852 18.3629 11.8795 18.162 11.9795 17.8668Z" fill="white"/>
<path d="M21.0507 18.0382C21.0277 17.9131 21.0241 17.7851 21.0401 17.6589C21.0587 17.5152 21.1253 17.2211 21.5125 16.8158C21.9157 16.3933 22.301 15.9888 22.7502 16.036C23.3071 16.0946 23.6019 16.8092 24.0024 17.78C24.3491 18.6197 24.2473 18.8666 24.1908 18.9664C23.9998 19.3058 23.538 19.3657 23.2319 19.4076C23.0323 19.4342 22.116 19.5267 21.5019 18.8932C21.2683 18.6606 21.1109 18.3624 21.0507 18.0382Z" fill="black"/>
<path d="M23.3795 18.3403C23.5198 18.2951 23.556 18.018 23.4603 17.7214C23.3647 17.4248 23.1735 17.221 23.0332 17.2663C22.893 17.3115 22.8568 17.5886 22.9524 17.8852C23.0481 18.1818 23.2393 18.3856 23.3795 18.3403Z" fill="white"/>
<path d="M15.9354 22.9028C16.0625 22.1576 16.5276 21.5301 17.2729 21.3125C17.5683 21.2267 17.9522 21.1482 18.2004 21.3658C18.5557 21.6759 18.8692 22.0531 19.1752 22.4111L19.6071 21.3684C18.0727 21.3884 16.6527 20.6292 15.1216 20.5573V21.7783C16.0086 21.7045 17.0087 21.586 17.8338 22.0039C18.2184 22.1982 18.4413 22.4697 18.6902 22.8124C18.9573 23.1971 19.314 23.5111 19.7295 23.7273C19.8108 23.7725 19.9013 23.7988 19.9941 23.8044C20.087 23.81 20.1799 23.7947 20.2661 23.7596C20.3522 23.7244 20.4294 23.6704 20.4919 23.6015C20.5544 23.5326 20.6006 23.4505 20.6271 23.3613L20.7715 22.9468C21.0297 22.2022 19.8506 21.8821 19.5931 22.6221L19.4494 23.0366L20.3463 22.6713C19.8992 22.4464 19.6923 22.0864 19.3895 21.7078C19.0863 21.3376 18.6983 21.0461 18.2583 20.8581C17.2602 20.4202 16.1836 20.4668 15.1216 20.556C14.3444 20.6225 14.3271 21.7397 15.1216 21.777C16.652 21.8489 18.058 22.6087 19.6071 22.5881C20.1647 22.5808 20.375 21.9394 20.0389 21.5454C19.655 21.0963 19.2351 20.534 18.7201 20.2279C18.2051 19.9219 17.5024 19.9718 16.9481 20.1335C16.392 20.2969 15.8925 20.6122 15.5056 21.0437C15.1186 21.4753 14.8596 22.0062 14.7576 22.5768C14.7024 22.9015 14.8442 23.2349 15.1842 23.328C15.4776 23.4086 15.8795 23.2282 15.9354 22.9015V22.9028Z" fill="#D38931"/>
<path d="M23.1792 26.767C23.076 26.958 21.0013 30.6596 17.1999 30.4127C13.7365 30.1872 12.1429 26.8562 11.9213 26.3957C11.7217 25.9825 10.3157 22.9356 11.8993 20.8776C12.6406 19.9154 13.805 19.4709 14.6168 19.1615C15.5454 18.8107 16.5281 18.6247 17.5206 18.6119C18.529 18.5944 19.5323 18.7578 20.483 19.0943C21.1297 19.3298 22.3135 19.7597 23.102 20.6912C24.5432 22.39 24.0874 25.0795 23.1792 26.767Z" fill="#EFAD1A"/>
<path d="M20.4159 23.6861C20.5576 23.9895 21.3734 25.7063 20.5084 26.9725C19.7598 28.0678 18.1322 28.274 18.0837 28.2794C18.0597 28.2794 17.9712 28.2847 17.8401 28.3053C17.7919 28.3174 17.7421 28.3225 17.6924 28.3206C17.5873 28.31 17.58 28.2541 17.4928 28.2428C17.3857 28.2268 17.3677 28.3053 17.2067 28.314C17.1854 28.314 17.1322 28.3106 17.0264 28.3013C16.9206 28.292 16.8514 28.2847 16.8474 28.284C16.7961 28.2787 15.0721 28.0618 14.3947 26.9532C13.6628 25.7555 14.5098 24.1845 14.772 23.6881C15.0222 23.213 15.9697 21.4184 17.6072 21.4204C19.2707 21.4204 20.2209 23.2702 20.4159 23.6861Z" fill="#2D2D2D"/>
<path d="M16.9829 23.0157C17.3282 22.6704 17.4759 22.2581 17.3127 22.0949C17.1495 21.9317 16.7373 22.0794 16.3919 22.4247C16.0466 22.7701 15.8989 23.1823 16.0621 23.3455C16.2253 23.5087 16.6375 23.361 16.9829 23.0157Z" fill="white"/>
<path d="M17.53 28.5748C17.53 28.5748 17.5373 28.6074 17.5546 28.6653C17.5799 28.7481 17.6099 28.8294 17.6445 28.9088C17.6966 29.0279 17.7618 29.1408 17.8388 29.2455C17.9352 29.374 18.0531 29.4848 18.1874 29.5729C18.2238 29.5977 18.2618 29.6199 18.3012 29.6394C18.3415 29.6593 18.3828 29.6771 18.425 29.6927C18.5131 29.7256 18.6043 29.7499 18.6971 29.7652C18.7982 29.7808 18.9004 29.7875 19.0026 29.7851L19.1609 29.7812C19.2201 29.7765 19.2834 29.7738 19.3399 29.7685C19.3965 29.7632 19.4411 29.7552 19.495 29.7439C19.5488 29.7326 19.6047 29.7233 19.6586 29.706C19.7125 29.6887 19.7671 29.676 19.821 29.6561C19.8749 29.6361 19.9288 29.6188 19.9827 29.5975C20.2034 29.5069 20.4134 29.3922 20.6088 29.2555C20.7113 29.1889 20.8085 29.1158 20.9123 29.0412L21.0626 28.9254L21.0952 28.8995L21.1325 28.8689L21.207 28.8083L21.2815 28.7478L21.3481 28.6886L21.4812 28.5741C21.569 28.4923 21.6588 28.4131 21.7407 28.3293C21.9057 28.1629 22.0621 27.9966 22.2025 27.8315L22.3049 27.7084C22.3375 27.6672 22.3715 27.6259 22.4021 27.586C22.4686 27.5068 22.5265 27.4276 22.5837 27.3511C22.641 27.2746 22.6935 27.1987 22.7434 27.1269C22.7933 27.055 22.8406 26.9865 22.8838 26.9213C22.9697 26.7882 23.0442 26.6744 23.1041 26.5773L23.2425 26.351L23.2904 26.2705L23.319 26.2818L23.2844 26.3683C23.2618 26.4255 23.2265 26.5074 23.1806 26.6119C23.1347 26.7163 23.0755 26.8414 23.0023 26.9825C22.9291 27.1236 22.8432 27.2806 22.7414 27.4483C22.6396 27.6159 22.5238 27.7929 22.3881 27.9719C22.2483 28.1609 22.0981 28.3419 21.9383 28.5142C21.8565 28.6054 21.7666 28.6912 21.6775 28.7804C21.5883 28.8696 21.4925 28.9554 21.3933 29.0359C21.1966 29.2052 20.9909 29.3638 20.7772 29.511C20.5612 29.6578 20.3292 29.7796 20.0858 29.8743C19.626 30.052 19.1247 30.0934 18.6419 29.9934C18.4331 29.9465 18.2375 29.8533 18.0697 29.7206C17.9283 29.6087 17.8097 29.4707 17.7203 29.314C17.6512 29.1944 17.5973 29.0665 17.56 28.9334C17.5357 28.8479 17.5177 28.7607 17.5061 28.6726C17.4981 28.6114 17.4961 28.5788 17.4961 28.5788L17.53 28.5748Z" fill="black"/>
<path d="M17.5307 28.5781C17.5307 28.5781 17.5307 28.6107 17.5307 28.6739C17.5286 28.7652 17.5179 28.8561 17.4987 28.9454C17.4707 29.0883 17.422 29.2264 17.3544 29.3553C17.265 29.5308 17.1401 29.6857 16.9877 29.8104C16.9453 29.8464 16.9008 29.88 16.8546 29.9109C16.8061 29.9415 16.7555 29.9715 16.7023 29.9988C16.5911 30.053 16.4741 30.0943 16.3536 30.1219C16.2294 30.1503 16.1029 30.1676 15.9756 30.1738L15.8805 30.1784H15.7787C15.7181 30.1751 15.6602 30.1744 15.5957 30.1698C15.5312 30.1651 15.4526 30.1558 15.3854 30.1431C15.3182 30.1305 15.2524 30.1205 15.1858 30.1019C15.0501 30.0694 14.9177 30.0249 14.7899 29.9688C14.5325 29.8569 14.2885 29.7163 14.0626 29.5496C13.9535 29.4658 13.8484 29.3786 13.7472 29.2914L13.5995 29.1584L13.5589 29.1218L13.5236 29.0885L13.4538 29.0219C13.3613 28.9394 13.2655 28.8323 13.177 28.7372C13.0885 28.642 13.006 28.5415 12.9294 28.4404C12.6462 28.0787 12.4076 27.6841 12.2188 27.2653C12.1436 27.1 12.077 26.931 12.0192 26.7589C11.9659 26.6066 11.93 26.4695 11.9001 26.3597C11.8701 26.2499 11.8542 26.1601 11.8422 26.0975L11.8242 26.0044L11.8535 25.9944L11.8848 26.0822C11.9047 26.1394 11.9367 26.2233 11.9779 26.3284C12.0192 26.4335 12.0737 26.5613 12.1403 26.7044C12.2068 26.8474 12.2867 27.0071 12.3812 27.1775C12.4756 27.3478 12.5808 27.5281 12.7139 27.7098C12.845 27.9029 12.9869 28.0884 13.139 28.2654C13.2162 28.3592 13.3021 28.4484 13.3866 28.5402C13.4711 28.632 13.5609 28.7199 13.6574 28.8064C13.8458 28.9821 14.0435 29.1475 14.2496 29.3021C14.4538 29.4577 14.6748 29.5901 14.9083 29.6967C15.3488 29.8943 15.8367 29.9618 16.3143 29.891C16.5037 29.8601 16.6844 29.7898 16.8449 29.6847C17.0053 29.5796 17.142 29.442 17.2459 29.2808C17.3204 29.1675 17.3801 29.0452 17.4236 28.9168C17.4518 28.8345 17.4741 28.7502 17.4901 28.6646C17.5014 28.6054 17.5054 28.5728 17.5054 28.5728L17.5307 28.5781Z" fill="black"/>
<path d="M14.5457 32.0782C14.3878 31.2955 14.3472 30.4935 14.4253 29.6988C14.6792 29.8403 14.9532 29.9424 15.2377 30.0015C15.6074 30.0952 15.9946 30.0952 16.3643 30.0015C16.4242 29.9849 17.0889 29.7966 17.3085 29.3974C17.38 29.2708 17.4342 29.1352 17.4695 28.9941C17.4955 28.8724 17.4994 28.7619 17.5201 28.7612C17.5407 28.7606 17.5527 28.8484 17.576 28.9509C17.6219 29.1194 17.7049 29.2756 17.8188 29.408C17.9591 29.5743 18.1319 29.7101 18.3265 29.8072C18.5622 29.9174 18.8204 29.9709 19.0804 29.9636C19.3293 29.9626 19.5764 29.9217 19.8124 29.8425C20.044 29.7746 20.2672 29.6809 20.4778 29.563C20.6087 30.4297 20.5805 31.3129 20.3946 32.1694C19.9508 34.1896 18.7178 35.5104 18.0597 35.7027C17.841 35.7635 17.6147 35.7931 17.3877 35.7905C17.1434 35.7758 16.9027 35.7244 16.6737 35.6381C16.0362 35.3873 14.9536 34.0744 14.5457 32.0782Z" fill="black"/>
<path d="M15.7807 31.3402C15.9756 31.1027 16.4374 30.8831 16.7788 31.0175C17.1394 31.1593 17.172 31.6164 17.4488 31.6277C17.7256 31.639 17.7935 31.2018 18.1754 31.0867C18.5121 30.9849 18.9127 31.1892 19.0804 31.3862C19.7644 32.1906 18.5973 35.2654 17.4302 35.2701C16.2631 35.2747 15.0687 32.2046 15.7807 31.3402Z" fill="#E74000"/>
<path d="M16.3918 26.5051C16.5503 26.1232 16.2613 25.6405 15.7464 25.4268C15.2315 25.2131 14.6857 25.3494 14.5272 25.7312C14.3687 26.1131 14.6576 26.5958 15.1725 26.8095C15.6874 27.0232 16.2333 26.8869 16.3918 26.5051Z" fill="black"/>
<path d="M19.8705 26.8064C20.3854 26.5927 20.6743 26.1099 20.5158 25.7281C20.3573 25.3462 19.8115 25.2099 19.2966 25.4236C18.7817 25.6373 18.4927 26.1201 18.6512 26.5019C18.8097 26.8838 19.3556 27.0201 19.8705 26.8064Z" fill="black"/>
</g>
<line x1="55.5" y1="2.18557e-08" x2="55.5" y2="40" stroke="#D3E1F5"/>
<defs>
<linearGradient id="paint0_linear" x1="26.7905" y1="35.8086" x2="4.24916" y2="13.9563" gradientUnits="userSpaceOnUse">
<stop stop-color="#76C452"/>
<stop offset="1" stop-color="#BADA94"/>
</linearGradient>
<clipPath id="clip0">
<rect width="181" height="21" fill="white" transform="translate(75 10)"/>
</clipPath>
<clipPath id="clip1">
<rect width="35" height="35" fill="white" transform="translate(0 3)"/>
</clipPath>
</defs>
</svg>
