<svg width="90" height="90" viewBox="0 0 90 90" fill="none" xmlns="http://www.w3.org/2000/svg">
<g clip-path="url(#clip0)">
<ellipse cx="44.8296" cy="50.8175" rx="43.8023" ry="39.3536" fill="url(#paint0_linear)"/>
<path d="M35.6083 9.10034C35.1489 7.90886 34.5307 6.78484 33.7706 5.75871C30.8978 2.04065 26.7554 1.12696 25.8999 0.955857C24.5311 0.682093 19.9113 -0.0125838 15.8271 2.93894C12.8431 5.09996 11.7531 8.04635 11.286 9.36213C9.46892 14.4952 10.9866 19.1543 11.9328 21.9348C12.3075 23.0315 16.7237 36.0182 23.318 36.1243C31.4932 36.2543 38.3271 16.492 35.6083 9.10034Z" fill="#D38931" stroke="black" stroke-width="0.943945" stroke-miterlimit="3"/>
<path d="M30.9798 12.4375C30.6079 10.7759 30.2431 9.40137 29.3235 7.96836C28.5827 6.76893 27.6471 5.70144 26.5551 4.8098C25.2066 3.75612 23.6686 2.97084 22.0243 2.4965C20.4844 2.04307 19.5656 1.77273 18.3901 2.01056C16.703 2.35277 15.43 3.28692 14.2117 4.65232C13.0411 5.91357 12.3632 7.59934 11.741 9.20372C10.6682 12.0098 10.8462 14.4326 10.9882 16.1043C11.149 17.9967 11.5528 19.3552 12.1619 21.3965C12.6768 23.122 13.315 24.8083 14.0714 26.4423C14.6173 27.6195 15.1289 28.7111 16.0443 30.0355C17.1325 31.6028 17.6766 32.3864 18.2566 32.6208L30.9798 12.4375Z" fill="#99622B"/>
<path d="M35.6083 9.10034C35.1489 7.90886 34.5307 6.78483 33.7706 5.75871C30.8978 2.04065 26.7554 1.12696 25.8999 0.955857C24.5311 0.682093 19.9113 -0.0125837 15.8271 2.93894C12.8431 5.09996 11.7531 8.04635 11.286 9.36213C9.46892 14.4952 10.9866 19.1543 11.9328 21.9348C12.1549 22.5848 13.7968 27.4119 16.4704 31.2581" stroke="black" stroke-width="0.943945" stroke-miterlimit="3"/>
<path d="M18.187 1.99982L17.9766 2.05628L18.1939 2.08537C18.3359 2.0905 18.5429 2.1059 18.8047 2.13157C19.0665 2.15723 19.3813 2.19316 19.7389 2.24963C19.9186 2.277 20.1068 2.31122 20.3053 2.34545C20.5037 2.37967 20.7108 2.42586 20.9247 2.47548C21.3541 2.56959 21.8093 2.70476 22.2832 2.85533C22.5159 2.95115 22.764 3.01446 23.0001 3.12225C23.2363 3.23005 23.4878 3.3156 23.7256 3.44221L24.0901 3.61332C24.2133 3.67149 24.3313 3.74164 24.4511 3.81008C24.5709 3.87853 24.6923 3.94354 24.8121 4.0137L25.1783 4.23784C25.2861 4.31655 25.4058 4.38841 25.5205 4.47054C25.6351 4.55267 25.748 4.64164 25.8627 4.72377L26.0338 4.84868L26.0766 4.88119C26.0804 4.88405 26.0822 4.88538 26.0828 4.88564L26.0714 4.87605L26.0612 4.8675C26.0612 4.8675 26.085 4.88676 26.0828 4.88564L26.0937 4.89487L26.1792 4.96845L26.5214 5.26275L26.6925 5.40818C26.7501 5.45272 26.8044 5.50132 26.8551 5.55362L27.1391 5.83423C27.2349 5.93347 27.3359 6.02244 27.43 6.12681L27.7072 6.44506C27.7979 6.55115 27.8937 6.6521 27.9792 6.7616L28.2307 7.09354C28.3043 7.20305 28.4018 7.30742 28.4754 7.42206L28.6996 7.76427C28.7731 7.88404 28.8553 7.99012 28.9169 8.10647L29.1153 8.44868C29.2557 8.6694 29.36 8.9021 29.4781 9.12282C29.7108 9.56598 29.8819 10.004 30.053 10.4129C30.2241 10.8219 30.3644 11.2069 30.4688 11.5525C30.5731 11.8981 30.6672 12.2044 30.7254 12.4593L30.9513 12.4319C30.9513 12.2985 30.9581 12.1479 30.9513 11.9871C30.9444 11.8262 30.9393 11.65 30.9205 11.4635C30.9017 11.277 30.8863 11.0751 30.852 10.8681C30.8178 10.661 30.7887 10.4386 30.7374 10.2127C30.6346 9.71972 30.4979 9.23435 30.3285 8.76008C30.2344 8.50514 30.1437 8.24678 30.0205 7.99183C29.9064 7.72521 29.7773 7.46528 29.6338 7.21332L29.4165 6.8232C29.3395 6.69316 29.2522 6.57168 29.1684 6.44335L28.9117 6.06008C28.8211 5.93518 28.7184 5.81883 28.6226 5.69564L28.3266 5.33119C28.2256 5.2097 28.1058 5.09678 27.9946 4.98043L27.6524 4.63822C27.5988 4.58159 27.5417 4.52844 27.4813 4.4791L27.3102 4.33366L26.968 4.04278L26.8825 3.97092L26.8191 3.91788L26.7695 3.88366L26.5779 3.74507C26.3254 3.55924 26.0627 3.38786 25.7908 3.23176L25.3887 2.99564C25.2518 2.92548 25.115 2.85875 24.9764 2.79373C24.8378 2.72872 24.7043 2.65685 24.564 2.60039L24.1482 2.42929C23.8762 2.3232 23.5973 2.23081 23.3252 2.1521C23.0532 2.07339 22.7777 1.99468 22.5193 1.95191C22.261 1.90913 21.9975 1.85096 21.7477 1.827C21.4979 1.80305 21.2566 1.77738 21.0239 1.76027C20.7912 1.74316 20.5705 1.74316 20.3583 1.74316C20.1461 1.74316 19.946 1.75001 19.7595 1.7637C19.4367 1.78368 19.1152 1.82023 18.7961 1.8732C18.5292 1.91598 18.3256 1.96731 18.187 1.99982Z" fill="black"/>
<path d="M54.171 9.10034C54.6304 7.90886 55.2486 6.78484 56.0087 5.75871C58.8815 2.04065 63.0239 1.12696 63.8794 0.955857C65.2482 0.682093 69.868 -0.0125838 73.9522 2.93894C76.9362 5.09996 78.0262 8.04635 78.4933 9.36213C80.3104 14.4952 78.7927 19.1543 77.8465 21.9348C77.4718 23.0315 73.0556 36.0182 66.4613 36.1243C58.286 36.2543 51.4522 16.492 54.171 9.10034Z" fill="#D38931" stroke="black" stroke-width="0.943945" stroke-miterlimit="3"/>
<path d="M58.7995 12.4375C59.1714 10.7759 59.5362 9.40137 60.4558 7.96836C61.1966 6.76893 62.1322 5.70144 63.2242 4.8098C64.5727 3.75612 66.1107 2.97084 67.755 2.4965C69.2949 2.04307 70.2137 1.77273 71.3892 2.01056C73.0763 2.35277 74.3493 3.28692 75.5676 4.65232C76.7382 5.91357 77.4161 7.59934 78.0383 9.20372C79.1111 12.0098 78.9331 14.4326 78.7911 16.1043C78.6303 17.9967 78.2265 19.3552 77.6174 21.3965C77.1025 23.122 76.4643 24.8083 75.7079 26.4423C75.162 27.6195 74.6504 28.7111 73.735 30.0355C72.6468 31.6028 72.1027 32.3864 71.5227 32.6208L58.7995 12.4375Z" fill="#99622B"/>
<path d="M54.171 9.10034C54.6304 7.90886 55.2486 6.78483 56.0087 5.75871C58.8815 2.04065 63.0239 1.12696 63.8794 0.955857C65.2482 0.682093 69.868 -0.0125837 73.9522 2.93894C76.9362 5.09996 78.0262 8.04635 78.4933 9.36213C80.3104 14.4952 78.7927 19.1543 77.8465 21.9348C77.6244 22.5848 75.9825 27.4119 73.3089 31.2581" stroke="black" stroke-width="0.943945" stroke-miterlimit="3"/>
<path d="M71.5923 1.99982L71.8027 2.05628L71.5854 2.08537C71.4434 2.0905 71.2364 2.1059 70.9746 2.13157C70.7128 2.15723 70.398 2.19316 70.0404 2.24963C69.8607 2.277 69.6725 2.31122 69.474 2.34545C69.2755 2.37967 69.0685 2.42586 68.8546 2.47548C68.4252 2.56959 67.97 2.70476 67.4961 2.85533C67.2634 2.95115 67.0153 3.01446 66.7792 3.12225C66.543 3.23005 66.2915 3.3156 66.0537 3.44221L65.6892 3.61332C65.566 3.67149 65.448 3.74164 65.3282 3.81008C65.2084 3.87853 65.087 3.94354 64.9672 4.0137L64.601 4.23784C64.4932 4.31655 64.3735 4.38841 64.2588 4.47054C64.1442 4.55267 64.0313 4.64164 63.9166 4.72377L63.7455 4.84868L63.7027 4.88119C63.6989 4.88405 63.697 4.88538 63.6965 4.88564L63.7079 4.87605L63.7181 4.8675C63.7181 4.8675 63.6943 4.88676 63.6965 4.88564L63.6856 4.89487L63.6001 4.96845L63.2579 5.26275L63.0868 5.40818C63.0292 5.45272 62.9749 5.50132 62.9242 5.55362L62.6402 5.83423C62.5444 5.93347 62.4434 6.02244 62.3493 6.12681L62.0721 6.44506C61.9814 6.55115 61.8856 6.6521 61.8001 6.7616L61.5486 7.09354C61.475 7.20305 61.3774 7.30742 61.3039 7.42206L61.0797 7.76427C61.0062 7.88404 60.924 7.99012 60.8624 8.10647L60.664 8.44868C60.5236 8.6694 60.4193 8.9021 60.3012 9.12282C60.0685 9.56598 59.8974 10.004 59.7263 10.4129C59.5552 10.8219 59.4149 11.2069 59.3105 11.5525C59.2062 11.8981 59.1121 12.2044 59.0539 12.4593L58.828 12.4319C58.828 12.2985 58.8212 12.1479 58.828 11.9871C58.8349 11.8262 58.84 11.65 58.8588 11.4635C58.8776 11.277 58.893 11.0751 58.9273 10.8681C58.9615 10.661 58.9906 10.4386 59.0419 10.2127C59.1447 9.71972 59.2814 9.23435 59.4508 8.76008C59.5449 8.50514 59.6356 8.24678 59.7588 7.99183C59.8729 7.72521 60.002 7.46528 60.1455 7.21332L60.3628 6.8232C60.4398 6.69316 60.5271 6.57168 60.6109 6.44335L60.8676 6.06008C60.9582 5.93518 61.0609 5.81883 61.1567 5.69564L61.4527 5.33119C61.5537 5.2097 61.6735 5.09678 61.7847 4.98043L62.1269 4.63822C62.1805 4.58159 62.2376 4.52844 62.298 4.4791L62.4691 4.33366L62.8113 4.04278L62.8968 3.97092L62.9601 3.91788L63.0098 3.88366L63.2014 3.74507C63.4539 3.55924 63.7166 3.38786 63.9885 3.23176L64.3906 2.99564C64.5274 2.92548 64.6643 2.85875 64.8029 2.79373C64.9415 2.72872 65.075 2.65685 65.2153 2.60039L65.6311 2.42929C65.9031 2.3232 66.182 2.23081 66.4541 2.1521C66.7261 2.07339 67.0016 1.99468 67.26 1.95191C67.5183 1.90913 67.7818 1.85096 68.0316 1.827C68.2814 1.80305 68.5227 1.77738 68.7554 1.76027C68.9881 1.74316 69.2088 1.74316 69.421 1.74316C69.6332 1.74316 69.8333 1.75001 70.0198 1.7637C70.3426 1.78368 70.6641 1.82023 70.9832 1.8732C71.2501 1.91598 71.4537 1.96731 71.5923 1.99982Z" fill="black"/>
<path d="M20.8836 23.6714C19.9406 25.0149 17.3683 28.4292 15.4036 33.4986C14.1628 36.6944 13.1451 39.3159 12.93 41.5263C12.4193 42.0638 11.9416 42.6321 11.4997 43.2282C9.31077 46.1788 8.59025 49.0283 8.19148 50.6405C6.71107 56.48 7.89368 61.1865 8.14698 62.1227C12.584 78.4972 25.9843 85.209 45.2221 85.209C61.1832 85.209 78.131 76.6823 81.3888 62.1227C82.5868 56.4749 82.0734 52.5129 81.3888 50.2674C80.5122 47.4091 79.1911 44.7085 77.4756 42.2642C77.4186 40.4604 77.1012 38.4662 75.9635 35.1313C75.3085 33.1888 74.5375 31.2874 73.6547 29.4373C72.0887 26.3156 59.6567 5.05928 43.0196 6.77074C33.035 7.80275 26.018 16.4353 20.8836 23.6714Z" fill="#D38931" stroke="black" stroke-width="0.703125" stroke-miterlimit="10"/>
<path d="M35.8808 38.6694C35.9383 38.3474 35.947 38.0187 35.9064 37.6941C35.8585 37.3245 35.6874 36.5683 34.6933 35.5262C33.6564 34.4397 32.664 33.3994 31.5091 33.5209C30.077 33.6715 29.319 35.5091 28.289 38.0055C27.3975 40.1648 27.6593 40.7996 27.8047 41.0563C28.2958 41.9289 29.4832 42.0829 30.272 42.1907C30.7853 42.2591 33.1397 42.497 34.7207 40.8681C35.3209 40.2694 35.7254 39.5028 35.8808 38.6694Z" fill="black"/>
<path d="M30.8034 38.2288C31.0606 37.4699 30.9781 36.756 30.6193 36.6344C30.2604 36.5128 29.7609 37.0295 29.5038 37.7884C29.2466 38.5473 29.329 39.2612 29.6879 39.3828C30.0468 39.5044 30.5462 38.9878 30.8034 38.2288Z" fill="white"/>
<path d="M54.1307 38.6694C54.0714 38.3477 54.0622 38.0187 54.1033 37.6941C54.1513 37.3245 54.3224 36.5683 55.3182 35.5262C56.3551 34.4397 57.3457 33.3994 58.5007 33.5209C59.9328 33.6715 60.6908 35.5091 61.7208 38.0055C62.6123 40.1648 62.3505 40.7996 62.2051 41.0563C61.714 41.9289 60.5265 42.0829 59.7395 42.1907C59.2262 42.2591 56.8701 42.497 55.2908 40.8681C54.6901 40.2698 54.2855 39.503 54.1307 38.6694Z" fill="black"/>
<path d="M60.1187 39.4464C60.4793 39.3301 60.5724 38.6176 60.3265 37.8549C60.0806 37.0922 59.5889 36.5682 59.2282 36.6845C58.8676 36.8008 58.7745 37.5133 59.0204 38.276C59.2663 39.0386 59.758 39.5627 60.1187 39.4464Z" fill="white"/>
<path d="M40.9763 51.179C41.3031 49.2626 42.4992 47.6491 44.4155 47.0896C45.1752 46.8689 46.1625 46.667 46.8007 47.2265C47.7144 48.0238 48.5203 48.994 49.3073 49.9145L50.4178 47.2333C46.4722 47.2847 42.8208 45.3324 38.8838 45.1476V48.2873C41.1646 48.0974 43.7362 47.7928 45.8579 48.8674C46.8469 49.367 47.4201 50.0651 48.06 50.9463C48.747 51.9355 49.6642 52.7429 50.7326 53.2989C50.9417 53.4152 51.1743 53.483 51.4131 53.4973C51.6519 53.5117 51.8909 53.4723 52.1124 53.382C52.3339 53.2916 52.5324 53.1527 52.693 52.9755C52.8537 52.7982 52.9726 52.5872 53.0408 52.3579L53.4121 51.2919C54.076 49.3773 51.044 48.5543 50.3819 50.4569L50.0123 51.5229L52.3187 50.5835C51.1689 50.0052 50.6368 49.0795 49.8583 48.106C49.0787 47.1541 48.0808 46.4046 46.9495 45.921C44.383 44.7951 41.6146 44.9149 38.8838 45.1442C36.8853 45.3153 36.8408 48.1881 38.8838 48.2839C42.8191 48.4687 46.4345 50.4227 50.4178 50.3697C51.8516 50.3508 52.3923 48.7014 51.5282 47.6885C50.541 46.5335 49.4613 45.0877 48.137 44.3006C46.8127 43.5136 45.0058 43.6419 43.5805 44.0577C42.1505 44.478 40.866 45.2886 39.871 46.3984C38.8761 47.5082 38.2101 48.8733 37.9478 50.3406C37.8058 51.1755 38.1703 52.0328 39.0446 52.2723C39.7992 52.4793 40.8326 52.0157 40.9763 51.1755V51.179Z" fill="#D38931"/>
<path d="M59.6032 61.1147C59.338 61.6058 54.003 71.1242 44.2279 70.4894C35.322 69.9094 31.2241 61.344 30.6543 60.16C30.141 59.0974 26.5256 51.2626 30.5979 45.9704C32.5039 43.4963 35.4982 42.3533 37.5857 41.5577C39.9735 40.6557 42.5004 40.1775 45.0526 40.1444C47.6455 40.0994 50.2255 40.5195 52.6701 41.3849C54.3332 41.9906 57.3771 43.0959 59.4047 45.4913C63.1108 49.8596 61.9387 56.7756 59.6032 61.1147Z" fill="#EFAD1A"/>
<path d="M52.4984 53.1923C52.8629 53.9725 54.9606 58.3869 52.7363 61.643C50.8114 64.4594 46.6262 64.9898 46.5013 65.0035C46.4397 65.0035 46.2121 65.0172 45.8751 65.0702C45.7509 65.1012 45.623 65.1145 45.4952 65.1096C45.2249 65.0822 45.206 64.9385 44.9819 64.9094C44.7064 64.8683 44.6602 65.0702 44.2462 65.0925C44.1914 65.0925 44.0545 65.0839 43.7825 65.0599C43.5104 65.036 43.3325 65.0172 43.3222 65.0155C43.1905 65.0018 38.7572 64.444 37.0154 61.5934C35.1332 58.5136 37.3114 54.4738 37.9855 53.1974C38.6289 51.9757 41.0654 47.3611 45.2762 47.3662C49.5538 47.3662 51.9971 52.1229 52.4984 53.1923Z" fill="#2D2D2D"/>
<path d="M43.6705 51.4693C44.5585 50.5813 44.9383 49.5212 44.5186 49.1016C44.099 48.6819 43.0389 49.0617 42.1509 49.9497C41.2629 50.8377 40.8831 51.8978 41.3028 52.3174C41.7224 52.737 42.7825 52.3573 43.6705 51.4693Z" fill="white"/>
<path d="M45.0775 65.7632C45.0775 65.7632 45.0963 65.847 45.1408 65.9959C45.2057 66.2089 45.2828 66.418 45.3718 66.6221C45.5059 66.9282 45.6735 67.2186 45.8714 67.4879C46.1193 67.8183 46.4226 68.1031 46.768 68.3297C46.8614 68.3935 46.9592 68.4507 47.0606 68.5008C47.1642 68.552 47.2704 68.5977 47.3788 68.6377C47.6055 68.7225 47.8398 68.785 48.0786 68.8242C48.3384 68.8643 48.6012 68.8815 48.864 68.8755L49.2712 68.8653C49.4235 68.8533 49.5861 68.8464 49.7315 68.8328C49.8769 68.8191 49.9916 68.7985 50.1302 68.7695C50.2687 68.7404 50.4125 68.7164 50.5511 68.6719C50.6897 68.6274 50.83 68.5949 50.9686 68.5436C51.1072 68.4923 51.2457 68.4478 51.3843 68.393C51.9518 68.1601 52.4918 67.8651 52.9944 67.5136C53.2579 67.3424 53.5077 67.1542 53.7746 66.9626L54.1613 66.6649L54.2452 66.5982L54.341 66.5194L54.5326 66.3637L54.7243 66.208L54.8954 66.0558L55.2376 65.7615C55.4634 65.551 55.6944 65.3474 55.9049 65.1318C56.3292 64.704 56.7313 64.2763 57.0923 63.852L57.3558 63.5354C57.4397 63.4293 57.5269 63.3232 57.6056 63.2206C57.7767 63.017 57.9256 62.8134 58.0727 62.6166C58.2199 62.4198 58.3551 62.2248 58.4834 62.04C58.6117 61.8552 58.7332 61.679 58.8444 61.5113C59.0651 61.1691 59.2568 60.8765 59.4108 60.6267L59.7667 60.0449L59.8899 59.8379L59.9634 59.867L59.8745 60.0894C59.8163 60.2366 59.7256 60.447 59.6075 60.7156C59.4895 60.9843 59.3372 61.306 59.149 61.6687C58.9608 62.0314 58.74 62.4352 58.4783 62.8664C58.2165 63.2976 57.9187 63.7527 57.5697 64.213C57.2102 64.6988 56.8241 65.1644 56.413 65.6075C56.2026 65.8419 55.9716 66.0626 55.7423 66.2919C55.513 66.5212 55.2667 66.7419 55.0117 66.9489C54.5058 67.3842 53.9769 67.792 53.4273 68.1706C52.8718 68.548 52.2754 68.8614 51.6495 69.1048C50.4671 69.5618 49.178 69.6681 47.9366 69.4111C47.3997 69.2906 46.8968 69.0508 46.4651 68.7096C46.1016 68.4217 45.7967 68.0668 45.5668 67.6641C45.3891 67.3564 45.2505 67.0276 45.1545 66.6854C45.0921 66.4655 45.0458 66.2413 45.0159 66.0147C44.9954 65.8573 44.9902 65.7734 44.9902 65.7734L45.0775 65.7632Z" fill="black"/>
<path d="M45.0771 65.7718C45.0771 65.7718 45.0771 65.8557 45.0771 66.0182C45.0717 66.253 45.0442 66.4867 44.995 66.7163C44.9227 67.0838 44.7977 67.4388 44.6237 67.7703C44.3938 68.2215 44.0728 68.62 43.6809 68.9407C43.5718 69.0331 43.4575 69.1194 43.3387 69.199C43.2138 69.2777 43.0837 69.3547 42.9469 69.4249C42.6611 69.5644 42.3603 69.6706 42.0503 69.7414C41.7309 69.8145 41.4057 69.8591 41.0784 69.8749L40.8337 69.8869H40.572C40.4162 69.8783 40.2674 69.8766 40.1014 69.8646C39.9354 69.8526 39.7335 69.8287 39.5607 69.7962C39.3879 69.7637 39.2185 69.738 39.0474 69.6901C38.6986 69.6065 38.3579 69.492 38.0294 69.3479C37.3674 69.0602 36.74 68.6986 36.1592 68.2699C35.8786 68.0544 35.6083 67.8302 35.3482 67.6061L34.9683 67.2639L34.864 67.1698L34.7733 67.0842L34.5936 66.9131C34.3558 66.7009 34.1094 66.4255 33.8818 66.1808C33.6543 65.9361 33.4421 65.6777 33.2453 65.4177C32.5169 64.4876 31.9033 63.473 31.418 62.396C31.2247 61.971 31.0533 61.5364 30.9047 61.0939C30.7678 60.7021 30.6754 60.3496 30.5984 60.0673C30.5214 59.785 30.4803 59.554 30.4495 59.3931L30.4033 59.1536L30.4786 59.1279L30.559 59.3538C30.6104 59.5009 30.6925 59.7165 30.7986 59.9869C30.9047 60.2572 31.045 60.5857 31.2161 60.9536C31.3872 61.3215 31.5925 61.7321 31.8355 62.1701C32.0784 62.6082 32.3488 63.0718 32.691 63.539C33.0281 64.0355 33.3932 64.5125 33.7843 64.9677C33.9828 65.2089 34.2035 65.4382 34.4208 65.6743C34.6381 65.9104 34.8691 66.1363 35.1172 66.3587C35.6017 66.8105 36.11 67.2361 36.64 67.6334C37.1651 68.0337 37.7333 68.374 38.3339 68.6481C39.4666 69.1564 40.7212 69.3298 41.9493 69.1477C42.4362 69.0683 42.9009 68.8877 43.3136 68.6174C43.7262 68.3471 44.0775 67.9933 44.3448 67.5787C44.5364 67.2875 44.6899 66.9729 44.8016 66.6428C44.8743 66.431 44.9315 66.2143 44.9727 65.9943C45.0018 65.842 45.0121 65.7582 45.0121 65.7582L45.0771 65.7718Z" fill="black"/>
<path d="M37.4011 74.7722C36.995 72.7593 36.8906 70.6971 37.0914 68.6535C37.7443 69.0174 38.4487 69.2799 39.1806 69.432C40.1311 69.6729 41.1267 69.6729 42.0773 69.432C42.2313 69.3893 43.9406 68.905 44.5053 67.8784C44.6893 67.553 44.8286 67.2042 44.9193 66.8415C44.9861 66.5284 44.9963 66.2444 45.0494 66.2427C45.1024 66.241 45.1332 66.4668 45.1931 66.7303C45.3112 67.1637 45.5246 67.5653 45.8176 67.9058C46.1783 68.3334 46.6226 68.6827 47.1231 68.9324C47.7292 69.2157 48.393 69.3534 49.0617 69.3345C49.7017 69.3319 50.3372 69.2268 50.9439 69.0231C51.5394 68.8485 52.1133 68.6075 52.6549 68.3045C52.9916 70.5329 52.9191 72.8041 52.441 75.0066C51.2998 80.2012 48.1292 83.5976 46.437 84.0921C45.8745 84.2485 45.2927 84.3245 44.7089 84.318C44.0807 84.2801 43.4618 84.1481 42.8729 83.9261C41.2338 83.2811 38.4499 79.9052 37.4011 74.7722Z" fill="black"/>
<path d="M40.5773 72.8746C41.0786 72.2638 42.2661 71.6991 43.1438 72.0448C44.0712 72.4092 44.155 73.5847 44.8668 73.6138C45.5786 73.6429 45.7531 72.5187 46.7353 72.2227C47.601 71.9609 48.6311 72.4862 49.0623 72.9927C50.8212 75.0613 47.8201 82.968 44.8189 82.9799C41.8178 82.9919 38.7465 75.0972 40.5773 72.8746Z" fill="#E74000"/>
<path d="M42.1507 60.4421C42.5583 59.4602 41.8153 58.2187 40.4913 57.6692C39.1672 57.1197 37.7635 57.4702 37.356 58.4521C36.9485 59.434 37.6915 60.6754 39.0155 61.225C40.3395 61.7745 41.7432 61.424 42.1507 60.4421Z" fill="black"/>
<path d="M51.0938 61.216C52.4178 60.6665 53.1608 59.4251 52.7533 58.4432C52.3458 57.4613 50.9421 57.1108 49.6181 57.6603C48.294 58.2098 47.5511 59.4513 47.9586 60.4331C48.3661 61.415 49.7698 61.7655 51.0938 61.216Z" fill="black"/>
</g>
<defs>
<linearGradient id="paint0_linear" x1="68.89" y1="84.3648" x2="10.9267" y2="28.1732" gradientUnits="userSpaceOnUse">
<stop stop-color="#76C452"/>
<stop offset="1" stop-color="#BADA94"/>
</linearGradient>
<clipPath id="clip0">
<rect width="90" height="90" fill="white"/>
</clipPath>
</defs>
</svg>
