<svg width="35" height="35" viewBox="0 0 35 35" fill="none" xmlns="http://www.w3.org/2000/svg">
<g clip-path="url(#clip0)">
<ellipse cx="17" cy="19.5" rx="17" ry="15.5" fill="url(#paint0_linear)"/>
<path d="M13.848 3.53916C13.6693 3.0758 13.4289 2.63868 13.1333 2.23963C12.0161 0.793721 10.4052 0.438398 10.0725 0.371858C9.54019 0.265394 7.74361 -0.00475803 6.15531 1.14306C4.99485 1.98345 4.57099 3.12927 4.38934 3.64096C3.68268 5.63716 4.27289 7.44904 4.64086 8.53032C4.78658 8.95684 6.50397 14.0072 9.06842 14.0485C12.2477 14.099 14.9053 6.41368 13.848 3.53916Z" fill="#D38931" stroke="black" stroke-width="0.73418" stroke-miterlimit="3"/>
<path d="M12.0477 4.83677C11.9031 4.19061 11.7612 3.65606 11.4036 3.09878C11.1155 2.63234 10.7516 2.2172 10.327 1.87045C9.80257 1.46069 9.20444 1.1553 8.565 0.970832C7.96615 0.794501 7.60883 0.689368 7.1517 0.781859C6.49561 0.914939 6.00055 1.27822 5.52679 1.80921C5.07154 2.2997 4.80793 2.95527 4.56596 3.5792C4.14875 4.67045 4.21795 5.61266 4.27318 6.26275C4.33573 6.99868 4.49276 7.52701 4.72964 8.32083C4.92987 8.99185 5.17804 9.64763 5.47223 10.2831C5.68449 10.7409 5.88345 11.1654 6.23943 11.6804C6.66263 12.2899 6.87423 12.5947 7.0998 12.6859L12.0477 4.83677Z" fill="#99622B"/>
<path d="M13.848 3.53916C13.6693 3.0758 13.4289 2.63868 13.1333 2.23963C12.0161 0.793721 10.4052 0.438398 10.0725 0.371858C9.54019 0.265394 7.74361 -0.00475803 6.15531 1.14306C4.99485 1.98345 4.57099 3.12927 4.38934 3.64096C3.68268 5.63716 4.27289 7.44904 4.64086 8.53032C4.72723 8.78312 5.36573 10.6603 6.4055 12.1561" stroke="black" stroke-width="0.73418" stroke-miterlimit="3"/>
<path d="M7.07306 0.777788L6.99121 0.799747L7.07572 0.811058C7.13095 0.813055 7.21146 0.819043 7.31326 0.829024C7.41507 0.839005 7.5375 0.852979 7.67657 0.874937C7.74644 0.885583 7.81963 0.898891 7.89682 0.912199C7.97401 0.925507 8.05452 0.943473 8.13769 0.962769C8.30471 0.999366 8.48171 1.05193 8.66602 1.11049C8.75652 1.14775 8.853 1.17237 8.94482 1.21429C9.03665 1.25621 9.13446 1.28948 9.22695 1.33872L9.36868 1.40526C9.41659 1.42788 9.4625 1.45516 9.50908 1.48178C9.55566 1.5084 9.6029 1.53368 9.64948 1.56096L9.79188 1.64813C9.8338 1.67874 9.88037 1.70669 9.92496 1.73863C9.96954 1.77056 10.0135 1.80516 10.058 1.8371L10.1246 1.88568L10.1412 1.89832C10.1427 1.89944 10.1434 1.89995 10.1436 1.90005L10.1392 1.89632L10.1352 1.893C10.1352 1.893 10.1445 1.90049 10.1436 1.90005L10.1479 1.90364L10.1811 1.93226L10.3142 2.0467L10.3808 2.10326C10.4031 2.12058 10.4243 2.13948 10.444 2.15982L10.5544 2.26895C10.5917 2.30754 10.6309 2.34214 10.6675 2.38273L10.7753 2.5065C10.8106 2.54775 10.8479 2.58701 10.8811 2.62959L10.9789 2.75868C11.0076 2.80127 11.0455 2.84186 11.0741 2.88644L11.1613 3.01952C11.1899 3.0661 11.2218 3.10735 11.2458 3.1526L11.323 3.28568C11.3775 3.37151 11.4181 3.46201 11.464 3.54785C11.5545 3.72018 11.6211 3.89053 11.6876 4.04956C11.7541 4.20859 11.8087 4.3583 11.8493 4.49271C11.8899 4.62712 11.9265 4.74623 11.9491 4.84537L12.0369 4.83473C12.0369 4.78283 12.0396 4.72427 12.0369 4.66172C12.0343 4.59918 12.0323 4.53064 12.025 4.45811C12.0176 4.38558 12.0116 4.30707 11.9983 4.22655C11.985 4.14604 11.9737 4.05954 11.9538 3.9717C11.9138 3.77997 11.8606 3.59122 11.7947 3.40678C11.7581 3.30764 11.7229 3.20716 11.675 3.10802C11.6306 3.00433 11.5804 2.90325 11.5246 2.80526L11.4401 2.65355C11.4101 2.60298 11.3762 2.55574 11.3436 2.50583L11.2438 2.35678C11.2085 2.30821 11.1686 2.26296 11.1313 2.21505L11.0162 2.07332C10.977 2.02608 10.9304 1.98216 10.8871 1.93691L10.754 1.80383C10.7332 1.78181 10.711 1.76114 10.6875 1.74195L10.621 1.68539L10.4879 1.57228L10.4546 1.54433L10.43 1.5237L10.4107 1.51039L10.3362 1.4565C10.238 1.38423 10.1358 1.31758 10.0301 1.25688L9.87372 1.16505C9.82049 1.13777 9.76726 1.11182 9.71336 1.08653C9.65946 1.06125 9.60756 1.0333 9.553 1.01134L9.39131 0.944804C9.28551 0.903549 9.17705 0.867617 9.07125 0.837009C8.96545 0.806401 8.85832 0.775792 8.75785 0.759157C8.65737 0.742522 8.5549 0.719899 8.45775 0.710583C8.3606 0.701268 8.26678 0.691287 8.17629 0.684633C8.08579 0.677979 7.99996 0.677979 7.91745 0.677979C7.83494 0.677979 7.75709 0.68064 7.68456 0.685963C7.55904 0.693736 7.434 0.70795 7.30994 0.728549C7.20613 0.745184 7.12695 0.765146 7.07306 0.777788Z" fill="black"/>
<path d="M21.0671 3.53916C21.2457 3.0758 21.4861 2.63868 21.7817 2.23963C22.8989 0.793721 24.5098 0.438398 24.8425 0.371858C25.3748 0.265394 27.1714 -0.00475803 28.7597 1.14306C29.9202 1.98345 30.344 3.12927 30.5257 3.64096C31.2324 5.63716 30.6421 7.44904 30.2742 8.53032C30.1285 8.95684 28.4111 14.0072 25.8466 14.0485C22.6673 14.099 20.0097 6.41368 21.0671 3.53916Z" fill="#D38931" stroke="black" stroke-width="0.73418" stroke-miterlimit="3"/>
<path d="M22.8673 4.83677C23.012 4.19061 23.1538 3.65606 23.5114 3.09878C23.7995 2.63234 24.1634 2.2172 24.5881 1.87045C25.1125 1.46069 25.7106 1.1553 26.35 0.970832C26.9489 0.794501 27.3062 0.689368 27.7633 0.781859C28.4194 0.914939 28.9145 1.27822 29.3883 1.80921C29.8435 2.2997 30.1071 2.95527 30.3491 3.5792C30.7663 4.67045 30.6971 5.61266 30.6419 6.26275C30.5793 6.99868 30.4223 7.52701 30.1854 8.32083C29.9852 8.99185 29.737 9.64763 29.4428 10.2831C29.2305 10.7409 29.0316 11.1654 28.6756 11.6804C28.2524 12.2899 28.0408 12.5947 27.8152 12.6859L22.8673 4.83677Z" fill="#99622B"/>
<path d="M21.0671 3.53916C21.2457 3.0758 21.4861 2.63868 21.7817 2.23963C22.8989 0.793721 24.5098 0.438398 24.8425 0.371858C25.3748 0.265394 27.1714 -0.00475803 28.7597 1.14306C29.9202 1.98345 30.344 3.12927 30.5257 3.64096C31.2324 5.63716 30.6421 7.44904 30.2742 8.53032C30.1878 8.78312 29.5493 10.6603 28.5095 12.1561" stroke="black" stroke-width="0.73418" stroke-miterlimit="3"/>
<path d="M27.842 0.777788L27.9238 0.799747L27.8393 0.811058C27.7841 0.813055 27.7036 0.819043 27.6018 0.829024C27.5 0.839005 27.3775 0.852979 27.2385 0.874937C27.1686 0.885583 27.0954 0.898891 27.0182 0.912199C26.941 0.925507 26.8605 0.943473 26.7773 0.962769C26.6103 0.999366 26.4333 1.05193 26.249 1.11049C26.1585 1.14775 26.062 1.17237 25.9702 1.21429C25.8784 1.25621 25.7806 1.28948 25.6881 1.33872L25.5464 1.40526C25.4984 1.42788 25.4525 1.45516 25.406 1.48178C25.3594 1.5084 25.3121 1.53368 25.2656 1.56096L25.1232 1.64813C25.0812 1.67874 25.0347 1.70669 24.9901 1.73863C24.9455 1.77056 24.9016 1.80516 24.857 1.8371L24.7905 1.88568L24.7738 1.89832C24.7723 1.89944 24.7716 1.89995 24.7714 1.90005L24.7758 1.89632L24.7798 1.893C24.7798 1.893 24.7706 1.90049 24.7714 1.90005L24.7672 1.90364L24.7339 1.93226L24.6008 2.0467L24.5343 2.10326C24.5119 2.12058 24.4908 2.13948 24.4711 2.15982L24.3606 2.26895C24.3234 2.30754 24.2841 2.34214 24.2475 2.38273L24.1397 2.5065C24.1044 2.54775 24.0672 2.58701 24.0339 2.62959L23.9361 2.75868C23.9075 2.80127 23.8696 2.84186 23.8409 2.88644L23.7538 3.01952C23.7252 3.0661 23.6932 3.10735 23.6693 3.1526L23.5921 3.28568C23.5375 3.37151 23.4969 3.46201 23.451 3.54785C23.3605 3.72018 23.294 3.89053 23.2274 4.04956C23.1609 4.20859 23.1063 4.3583 23.0657 4.49271C23.0252 4.62712 22.9886 4.74623 22.9659 4.84537L22.8781 4.83473C22.8781 4.78283 22.8754 4.72427 22.8781 4.66172C22.8808 4.59918 22.8828 4.53064 22.8901 4.45811C22.8974 4.38558 22.9034 4.30707 22.9167 4.22655C22.93 4.14604 22.9413 4.05954 22.9613 3.9717C23.0013 3.77997 23.0544 3.59122 23.1203 3.40678C23.1569 3.30764 23.1922 3.20716 23.2401 3.10802C23.2844 3.00433 23.3346 2.90325 23.3905 2.80526L23.475 2.65355C23.5049 2.60298 23.5388 2.55574 23.5715 2.50583L23.6713 2.35678C23.7065 2.30821 23.7465 2.26296 23.7837 2.21505L23.8988 2.07332C23.9381 2.02608 23.9847 1.98216 24.0279 1.93691L24.161 1.80383C24.1818 1.78181 24.2041 1.76114 24.2275 1.74195L24.2941 1.68539L24.4272 1.57228L24.4604 1.54433L24.485 1.5237L24.5043 1.51039L24.5789 1.4565C24.677 1.38423 24.7792 1.31758 24.8849 1.25688L25.0413 1.16505C25.0945 1.13777 25.1478 1.11182 25.2017 1.08653C25.2556 1.06125 25.3075 1.0333 25.362 1.01134L25.5237 0.944804C25.6295 0.903549 25.738 0.867617 25.8438 0.837009C25.9496 0.806401 26.0567 0.775792 26.1572 0.759157C26.2577 0.742522 26.3601 0.719899 26.4573 0.710583C26.5544 0.701268 26.6483 0.691287 26.7388 0.684633C26.8292 0.677979 26.9151 0.677979 26.9976 0.677979C27.0801 0.677979 27.158 0.68064 27.2305 0.685963C27.356 0.693736 27.481 0.70795 27.6051 0.728549C27.7089 0.745184 27.7881 0.765146 27.842 0.777788Z" fill="black"/>
<path d="M8.12169 9.20575C7.75496 9.72822 6.75461 11.056 5.99054 13.0274C5.50802 14.2703 5.11224 15.2897 5.02862 16.1493C4.83001 16.3584 4.64425 16.5794 4.47239 16.8112C3.62113 17.9586 3.34092 19.0668 3.18585 19.6938C2.61013 21.9647 3.07004 23.795 3.16854 24.159C4.89404 30.5269 10.1053 33.137 17.5867 33.137C23.7937 33.137 30.3846 29.8211 31.6515 24.159C32.1174 21.9627 31.9177 20.4219 31.6515 19.5487C31.3106 18.4371 30.7968 17.3869 30.1297 16.4363C30.1075 15.7348 29.9841 14.9593 29.5416 13.6624C29.2869 12.907 28.9871 12.1675 28.6438 11.448C28.0348 10.2341 23.2001 1.96772 16.7301 2.63328C12.8472 3.03462 10.1184 6.39174 8.12169 9.20575Z" fill="#D38931" stroke="black" stroke-width="0.546875" stroke-miterlimit="10"/>
<path d="M13.9535 15.0382C13.9759 14.913 13.9792 14.7851 13.9635 14.6589C13.9448 14.5152 13.8783 14.2211 13.4917 13.8158C13.0885 13.3933 12.7025 12.9888 12.2534 13.036C11.6964 13.0946 11.4017 13.8092 11.0011 14.78C10.6544 15.6197 10.7562 15.8666 10.8128 15.9664C11.0038 16.3058 11.4655 16.3657 11.7723 16.4076C11.9719 16.4342 12.8875 16.5267 13.5023 15.8932C13.7357 15.6604 13.893 15.3623 13.9535 15.0382Z" fill="black"/>
<path d="M11.9795 14.8668C12.0795 14.5717 12.0474 14.2941 11.9079 14.2468C11.7683 14.1995 11.5741 14.4004 11.4741 14.6956C11.374 14.9907 11.4061 15.2683 11.5457 15.3156C11.6852 15.3629 11.8795 15.162 11.9795 14.8668Z" fill="white"/>
<path d="M21.0507 15.0382C21.0277 14.9131 21.0241 14.7851 21.0401 14.6589C21.0587 14.5152 21.1253 14.2211 21.5125 13.8158C21.9157 13.3933 22.301 12.9888 22.7502 13.036C23.3071 13.0946 23.6019 13.8092 24.0024 14.78C24.3491 15.6197 24.2473 15.8666 24.1908 15.9664C23.9998 16.3058 23.538 16.3657 23.2319 16.4076C23.0323 16.4342 22.116 16.5267 21.5019 15.8932C21.2683 15.6606 21.1109 15.3624 21.0507 15.0382Z" fill="black"/>
<path d="M23.3795 15.3403C23.5198 15.2951 23.556 15.018 23.4603 14.7214C23.3647 14.4248 23.1735 14.221 23.0332 14.2663C22.893 14.3115 22.8568 14.5886 22.9524 14.8852C23.0481 15.1818 23.2393 15.3856 23.3795 15.3403Z" fill="white"/>
<path d="M15.9354 19.9028C16.0625 19.1576 16.5276 18.5301 17.2729 18.3125C17.5683 18.2267 17.9522 18.1482 18.2004 18.3658C18.5557 18.6759 18.8692 19.0531 19.1752 19.4111L19.6071 18.3684C18.0727 18.3884 16.6527 17.6292 15.1216 17.5573V18.7783C16.0086 18.7045 17.0087 18.586 17.8338 19.0039C18.2184 19.1982 18.4413 19.4697 18.6902 19.8124C18.9573 20.1971 19.314 20.5111 19.7295 20.7273C19.8108 20.7725 19.9013 20.7988 19.9941 20.8044C20.087 20.81 20.1799 20.7947 20.2661 20.7596C20.3522 20.7244 20.4294 20.6704 20.4919 20.6015C20.5544 20.5326 20.6006 20.4505 20.6271 20.3613L20.7715 19.9468C21.0297 19.2022 19.8506 18.8821 19.5931 19.6221L19.4494 20.0366L20.3463 19.6713C19.8992 19.4464 19.6923 19.0864 19.3895 18.7078C19.0863 18.3376 18.6983 18.0461 18.2583 17.8581C17.2602 17.4202 16.1836 17.4668 15.1216 17.556C14.3444 17.6225 14.3271 18.7397 15.1216 18.777C16.652 18.8489 18.058 19.6087 19.6071 19.5881C20.1647 19.5808 20.375 18.9394 20.0389 18.5454C19.655 18.0963 19.2351 17.534 18.7201 17.2279C18.2051 16.9219 17.5024 16.9718 16.9481 17.1335C16.392 17.2969 15.8925 17.6122 15.5056 18.0437C15.1186 18.4753 14.8596 19.0062 14.7576 19.5768C14.7024 19.9015 14.8442 20.2349 15.1842 20.328C15.4776 20.4086 15.8795 20.2282 15.9354 19.9015V19.9028Z" fill="#D38931"/>
<path d="M23.1792 23.767C23.076 23.958 21.0013 27.6596 17.1999 27.4127C13.7365 27.1872 12.1429 23.8562 11.9213 23.3957C11.7217 22.9825 10.3157 19.9356 11.8993 17.8776C12.6406 16.9154 13.805 16.4709 14.6168 16.1615C15.5454 15.8107 16.5281 15.6247 17.5206 15.6119C18.529 15.5944 19.5323 15.7578 20.483 16.0943C21.1297 16.3298 22.3135 16.7597 23.102 17.6912C24.5432 19.39 24.0874 22.0795 23.1792 23.767Z" fill="#EFAD1A"/>
<path d="M20.4159 20.6861C20.5576 20.9895 21.3734 22.7063 20.5084 23.9725C19.7598 25.0678 18.1322 25.274 18.0837 25.2794C18.0597 25.2794 17.9712 25.2847 17.8401 25.3053C17.7919 25.3174 17.7421 25.3225 17.6924 25.3206C17.5873 25.31 17.58 25.2541 17.4928 25.2428C17.3857 25.2268 17.3677 25.3053 17.2067 25.314C17.1854 25.314 17.1322 25.3106 17.0264 25.3013C16.9206 25.292 16.8514 25.2847 16.8474 25.284C16.7961 25.2787 15.0721 25.0618 14.3947 23.9532C13.6628 22.7555 14.5098 21.1845 14.772 20.6881C15.0222 20.213 15.9697 18.4184 17.6072 18.4204C19.2707 18.4204 20.2209 20.2702 20.4159 20.6861Z" fill="#2D2D2D"/>
<path d="M16.9829 20.0157C17.3282 19.6704 17.4759 19.2581 17.3127 19.0949C17.1495 18.9317 16.7373 19.0794 16.3919 19.4247C16.0466 19.7701 15.8989 20.1823 16.0621 20.3455C16.2253 20.5087 16.6375 20.361 16.9829 20.0157Z" fill="white"/>
<path d="M17.53 25.5748C17.53 25.5748 17.5373 25.6074 17.5546 25.6653C17.5799 25.7481 17.6099 25.8294 17.6445 25.9088C17.6966 26.0279 17.7618 26.1408 17.8388 26.2455C17.9352 26.374 18.0531 26.4848 18.1874 26.5729C18.2238 26.5977 18.2618 26.6199 18.3012 26.6394C18.3415 26.6593 18.3828 26.6771 18.425 26.6927C18.5131 26.7256 18.6043 26.7499 18.6971 26.7652C18.7982 26.7808 18.9004 26.7875 19.0026 26.7851L19.1609 26.7812C19.2201 26.7765 19.2834 26.7738 19.3399 26.7685C19.3965 26.7632 19.4411 26.7552 19.495 26.7439C19.5488 26.7326 19.6047 26.7233 19.6586 26.706C19.7125 26.6887 19.7671 26.676 19.821 26.6561C19.8749 26.6361 19.9288 26.6188 19.9827 26.5975C20.2034 26.5069 20.4134 26.3922 20.6088 26.2555C20.7113 26.1889 20.8085 26.1158 20.9123 26.0412L21.0626 25.9254L21.0952 25.8995L21.1325 25.8689L21.207 25.8083L21.2815 25.7478L21.3481 25.6886L21.4812 25.5741C21.569 25.4923 21.6588 25.4131 21.7407 25.3293C21.9057 25.1629 22.0621 24.9966 22.2025 24.8315L22.3049 24.7084C22.3375 24.6672 22.3715 24.6259 22.4021 24.586C22.4686 24.5068 22.5265 24.4276 22.5837 24.3511C22.641 24.2746 22.6935 24.1987 22.7434 24.1269C22.7933 24.055 22.8406 23.9865 22.8838 23.9213C22.9697 23.7882 23.0442 23.6744 23.1041 23.5773L23.2425 23.351L23.2904 23.2705L23.319 23.2818L23.2844 23.3683C23.2618 23.4255 23.2265 23.5074 23.1806 23.6119C23.1347 23.7163 23.0755 23.8414 23.0023 23.9825C22.9291 24.1236 22.8432 24.2806 22.7414 24.4483C22.6396 24.6159 22.5238 24.7929 22.3881 24.9719C22.2483 25.1609 22.0981 25.3419 21.9383 25.5142C21.8565 25.6054 21.7666 25.6912 21.6775 25.7804C21.5883 25.8696 21.4925 25.9554 21.3933 26.0359C21.1966 26.2052 20.9909 26.3638 20.7772 26.511C20.5612 26.6578 20.3292 26.7796 20.0858 26.8743C19.626 27.052 19.1247 27.0934 18.6419 26.9934C18.4331 26.9465 18.2375 26.8533 18.0697 26.7206C17.9283 26.6087 17.8097 26.4707 17.7203 26.314C17.6512 26.1944 17.5973 26.0665 17.56 25.9334C17.5357 25.8479 17.5177 25.7607 17.5061 25.6726C17.4981 25.6114 17.4961 25.5788 17.4961 25.5788L17.53 25.5748Z" fill="black"/>
<path d="M17.5307 25.5781C17.5307 25.5781 17.5307 25.6107 17.5307 25.6739C17.5286 25.7652 17.5179 25.8561 17.4987 25.9454C17.4707 26.0883 17.422 26.2264 17.3544 26.3553C17.265 26.5308 17.1401 26.6857 16.9877 26.8104C16.9453 26.8464 16.9008 26.88 16.8546 26.9109C16.8061 26.9415 16.7555 26.9715 16.7023 26.9988C16.5911 27.053 16.4741 27.0943 16.3536 27.1219C16.2294 27.1503 16.1029 27.1676 15.9756 27.1738L15.8805 27.1784H15.7787C15.7181 27.1751 15.6602 27.1744 15.5957 27.1698C15.5312 27.1651 15.4526 27.1558 15.3854 27.1431C15.3182 27.1305 15.2524 27.1205 15.1858 27.1019C15.0501 27.0694 14.9177 27.0249 14.7899 26.9688C14.5325 26.8569 14.2885 26.7163 14.0626 26.5496C13.9535 26.4658 13.8484 26.3786 13.7472 26.2914L13.5995 26.1584L13.5589 26.1218L13.5236 26.0885L13.4538 26.0219C13.3613 25.9394 13.2655 25.8323 13.177 25.7372C13.0885 25.642 13.006 25.5415 12.9294 25.4404C12.6462 25.0787 12.4076 24.6841 12.2188 24.2653C12.1436 24.1 12.077 23.931 12.0192 23.7589C11.9659 23.6066 11.93 23.4695 11.9001 23.3597C11.8701 23.2499 11.8542 23.1601 11.8422 23.0975L11.8242 23.0044L11.8535 22.9944L11.8848 23.0822C11.9047 23.1394 11.9367 23.2233 11.9779 23.3284C12.0192 23.4335 12.0737 23.5613 12.1403 23.7044C12.2068 23.8474 12.2867 24.0071 12.3812 24.1775C12.4756 24.3478 12.5808 24.5281 12.7139 24.7098C12.845 24.9029 12.9869 25.0884 13.139 25.2654C13.2162 25.3592 13.3021 25.4484 13.3866 25.5402C13.4711 25.632 13.5609 25.7199 13.6574 25.8064C13.8458 25.9821 14.0435 26.1475 14.2496 26.3021C14.4538 26.4577 14.6748 26.5901 14.9083 26.6967C15.3488 26.8943 15.8367 26.9618 16.3143 26.891C16.5037 26.8601 16.6844 26.7898 16.8449 26.6847C17.0053 26.5796 17.142 26.442 17.2459 26.2808C17.3204 26.1675 17.3801 26.0452 17.4236 25.9168C17.4518 25.8345 17.4741 25.7502 17.4901 25.6646C17.5014 25.6054 17.5054 25.5728 17.5054 25.5728L17.5307 25.5781Z" fill="black"/>
<path d="M14.5457 29.0782C14.3878 28.2955 14.3472 27.4935 14.4253 26.6988C14.6792 26.8403 14.9532 26.9424 15.2377 27.0015C15.6074 27.0952 15.9946 27.0952 16.3643 27.0015C16.4242 26.9849 17.0889 26.7966 17.3085 26.3974C17.38 26.2708 17.4342 26.1352 17.4695 25.9941C17.4955 25.8724 17.4994 25.7619 17.5201 25.7612C17.5407 25.7606 17.5527 25.8484 17.576 25.9509C17.6219 26.1194 17.7049 26.2756 17.8188 26.408C17.9591 26.5743 18.1319 26.7101 18.3265 26.8072C18.5622 26.9174 18.8204 26.9709 19.0804 26.9636C19.3293 26.9626 19.5764 26.9217 19.8124 26.8425C20.044 26.7746 20.2672 26.6809 20.4778 26.563C20.6087 27.4297 20.5805 28.3129 20.3946 29.1694C19.9508 31.1896 18.7178 32.5104 18.0597 32.7027C17.841 32.7635 17.6147 32.7931 17.3877 32.7905C17.1434 32.7758 16.9027 32.7244 16.6737 32.6381C16.0362 32.3873 14.9536 31.0744 14.5457 29.0782Z" fill="black"/>
<path d="M15.7807 28.3402C15.9756 28.1027 16.4374 27.8831 16.7788 28.0175C17.1394 28.1593 17.172 28.6164 17.4488 28.6277C17.7256 28.639 17.7935 28.2018 18.1754 28.0867C18.5121 27.9849 18.9127 28.1892 19.0804 28.3862C19.7644 29.1906 18.5973 32.2654 17.4302 32.2701C16.2631 32.2747 15.0687 29.2046 15.7807 28.3402Z" fill="#E74000"/>
<path d="M16.3918 23.5051C16.5503 23.1232 16.2613 22.6405 15.7464 22.4268C15.2315 22.2131 14.6857 22.3494 14.5272 22.7312C14.3687 23.1131 14.6576 23.5958 15.1725 23.8095C15.6874 24.0232 16.2333 23.8869 16.3918 23.5051Z" fill="black"/>
<path d="M19.8705 23.8064C20.3854 23.5927 20.6743 23.1099 20.5158 22.7281C20.3573 22.3462 19.8115 22.2099 19.2966 22.4236C18.7817 22.6373 18.4927 23.1201 18.6512 23.5019C18.8097 23.8838 19.3556 24.0201 19.8705 23.8064Z" fill="black"/>
</g>
<defs>
<linearGradient id="paint0_linear" x1="26.338" y1="32.7131" x2="3.52121" y2="10.917" gradientUnits="userSpaceOnUse">
<stop stop-color="#76C452"/>
<stop offset="1" stop-color="#BADA94"/>
</linearGradient>
<clipPath id="clip0">
<rect width="35" height="35" fill="white"/>
</clipPath>
</defs>
</svg>
