<svg width="158" height="16.623696682464455" viewBox="0 0 1055 111" fill="none" xmlns="http://www.w3.org/2000/svg">
<path d="M34.1822 52.507C37.4834 52.507 40.2823 52.1003 42.5787 51.287C44.9231 50.4258 46.8368 49.2537 48.3199 47.7705C49.8031 46.2874 50.8796 44.565 51.5494 42.6034C52.2192 40.594 52.5541 38.441 52.5541 36.1446C52.5541 31.5516 51.047 27.9633 48.0329 25.3798C45.0666 22.7962 40.4497 21.5045 34.1822 21.5045H24.4222V52.507H34.1822ZM85.7096 107.91H63.7495C59.6828 107.91 56.7643 106.379 54.9941 103.317L37.6269 72.9601C36.8136 71.6683 35.9046 70.7354 34.8999 70.1612C33.8951 69.5393 32.4598 69.2283 30.5939 69.2283H24.4222V107.91H0.165527V3.34788H34.1822C41.7415 3.34788 48.1764 4.1373 53.487 5.71613C58.8455 7.24712 63.1993 9.40007 66.5483 12.175C69.9452 14.9499 72.4091 18.2272 73.9401 22.0068C75.4711 25.7865 76.2366 29.901 76.2366 34.3504C76.2366 37.7473 75.7821 40.9528 74.8731 43.967C73.964 46.9811 72.6244 49.7799 70.8542 52.3635C69.084 54.8992 66.8832 57.1717 64.2518 59.1812C61.6683 61.1906 58.678 62.8412 55.2812 64.133C56.86 64.9463 58.3431 65.9749 59.7306 67.2189C61.1181 68.4149 62.362 69.8502 63.4624 71.5248L85.7096 107.91Z" fill="#1D1D1B"></path>
<path d="M122.029 32.341C127.675 32.341 132.818 33.2261 137.459 34.9963C142.1 36.7665 146.071 39.3022 149.372 42.6034C152.721 45.9046 155.305 49.9235 157.123 54.66C158.989 59.3486 159.921 64.6353 159.921 70.5201C159.921 76.4526 158.989 81.8111 157.123 86.5954C155.305 91.3319 152.721 95.3747 149.372 98.7238C146.071 102.025 142.1 104.585 137.459 106.403C132.818 108.173 127.675 109.058 122.029 109.058C116.336 109.058 111.145 108.173 106.456 106.403C101.816 104.585 97.7968 102.025 94.3999 98.7238C91.0509 95.3747 88.4434 91.3319 86.5775 86.5954C84.7594 81.8111 83.8504 76.4526 83.8504 70.5201C83.8504 64.6353 84.7594 59.3486 86.5775 54.66C88.4434 49.9235 91.0509 45.9046 94.3999 42.6034C97.7968 39.3022 101.816 36.7665 106.456 34.9963C111.145 33.2261 116.336 32.341 122.029 32.341ZM122.029 92.552C127.149 92.552 130.904 90.7578 133.297 87.1696C135.737 83.5335 136.957 78.0315 136.957 70.6636C136.957 63.2957 135.737 57.8176 133.297 54.2294C130.904 50.6411 127.149 48.847 122.029 48.847C116.767 48.847 112.915 50.6411 110.475 54.2294C108.035 57.8176 106.815 63.2957 106.815 70.6636C106.815 78.0315 108.035 83.5335 110.475 87.1696C112.915 90.7578 116.767 92.552 122.029 92.552Z" fill="#1D1D1B"></path>
<path d="M219.136 49.7799C218.561 50.689 217.939 51.3348 217.27 51.7176C216.648 52.1003 215.834 52.2917 214.83 52.2917C213.777 52.2917 212.725 52.0764 211.672 51.6458C210.619 51.1674 209.471 50.665 208.227 50.1388C207.031 49.6125 205.668 49.134 204.137 48.7035C202.606 48.225 200.859 47.9858 198.898 47.9858C196.075 47.9858 193.898 48.536 192.367 49.6364C190.884 50.689 190.142 52.1721 190.142 54.0858C190.142 55.4733 190.621 56.6215 191.578 57.5306C192.582 58.4396 193.898 59.2529 195.525 59.9706C197.152 60.6404 198.993 61.2863 201.051 61.9082C203.108 62.5302 205.213 63.2239 207.366 63.9894C209.519 64.7549 211.624 65.6639 213.681 66.7165C215.739 67.7212 217.581 68.9891 219.207 70.5201C220.834 72.0032 222.126 73.8213 223.083 75.9742C224.087 78.1272 224.59 80.7107 224.59 83.7248C224.59 87.4088 223.92 90.8057 222.58 93.9155C221.241 97.0253 219.231 99.7046 216.552 101.953C213.921 104.202 210.643 105.948 206.72 107.192C202.845 108.436 198.372 109.058 193.3 109.058C190.764 109.058 188.229 108.819 185.693 108.34C183.157 107.862 180.693 107.216 178.301 106.403C175.957 105.589 173.78 104.632 171.771 103.532C169.761 102.384 168.039 101.164 166.603 99.872L171.771 91.6908C172.345 90.7339 173.062 89.9923 173.924 89.4661C174.833 88.8919 175.981 88.6049 177.368 88.6049C178.66 88.6049 179.808 88.8919 180.813 89.4661C181.866 90.0402 182.99 90.6621 184.186 91.332C185.382 92.0018 186.769 92.6237 188.348 93.1978C189.975 93.772 192.008 94.059 194.448 94.059C196.171 94.059 197.63 93.8916 198.826 93.5567C200.022 93.1739 200.979 92.6716 201.697 92.0496C202.414 91.4276 202.941 90.7339 203.275 89.9684C203.61 89.2029 203.778 88.4135 203.778 87.6002C203.778 86.117 203.275 84.897 202.271 83.9401C201.266 82.9833 199.95 82.1699 198.324 81.5001C196.697 80.7825 194.831 80.1366 192.726 79.5625C190.669 78.9405 188.564 78.2468 186.411 77.4813C184.258 76.7158 182.129 75.8068 180.024 74.7542C177.966 73.6538 176.124 72.2903 174.498 70.6636C172.871 68.9891 171.555 66.9557 170.551 64.5635C169.546 62.1714 169.044 59.2768 169.044 55.88C169.044 52.7223 169.642 49.7321 170.838 46.9093C172.082 44.0387 173.924 41.5269 176.364 39.374C178.804 37.221 181.866 35.5226 185.549 34.2787C189.233 32.9869 193.539 32.341 198.467 32.341C201.146 32.341 203.73 32.5802 206.218 33.0586C208.754 33.5371 211.122 34.2069 213.323 35.0681C215.523 35.9293 217.533 36.9579 219.351 38.154C221.169 39.3022 222.772 40.5701 224.159 41.9575L219.136 49.7799Z" fill="#1D1D1B"></path>
<path d="M258.723 0.477272V60.6882H262.024C263.412 60.6882 264.464 60.4969 265.182 60.1141C265.9 59.6835 266.617 58.9898 267.335 58.0329L281.401 37.0775C282.262 35.8814 283.243 34.9963 284.343 34.4222C285.444 33.8002 286.855 33.4892 288.577 33.4892H308.959L289.726 59.9706C287.908 62.3627 285.755 64.3243 283.267 65.8553C284.367 66.6687 285.372 67.6255 286.281 68.7259C287.19 69.7785 288.051 70.9746 288.864 72.3142L309.82 107.91H289.726C288.051 107.91 286.616 107.647 285.42 107.12C284.224 106.546 283.219 105.565 282.406 104.178L268.34 77.8401C267.67 76.644 266.976 75.8785 266.258 75.5436C265.541 75.1609 264.464 74.9695 263.029 74.9695H258.723V107.91H236.476V0.477272H258.723Z" fill="#1D1D1B"></path>
<path d="M348.308 32.341C353.954 32.341 359.097 33.2261 363.738 34.9963C368.379 36.7665 372.35 39.3022 375.651 42.6034C379 45.9046 381.583 49.9235 383.402 54.66C385.267 59.3486 386.2 64.6353 386.2 70.5201C386.2 76.4526 385.267 81.8111 383.402 86.5954C381.583 91.3319 379 95.3747 375.651 98.7238C372.35 102.025 368.379 104.585 363.738 106.403C359.097 108.173 353.954 109.058 348.308 109.058C342.615 109.058 337.424 108.173 332.735 106.403C328.095 104.585 324.076 102.025 320.679 98.7238C317.33 95.3747 314.722 91.3319 312.856 86.5954C311.038 81.8111 310.129 76.4526 310.129 70.5201C310.129 64.6353 311.038 59.3486 312.856 54.66C314.722 49.9235 317.33 45.9046 320.679 42.6034C324.076 39.3022 328.095 36.7665 332.735 34.9963C337.424 33.2261 342.615 32.341 348.308 32.341ZM348.308 92.552C353.428 92.552 357.183 90.7578 359.575 87.1696C362.015 83.5335 363.235 78.0315 363.235 70.6636C363.235 63.2957 362.015 57.8176 359.575 54.2294C357.183 50.6411 353.428 48.847 348.308 48.847C343.046 48.847 339.194 50.6411 336.754 54.2294C334.314 57.8176 333.094 63.2957 333.094 70.6636C333.094 78.0315 334.314 83.5335 336.754 87.1696C339.194 90.7578 343.046 92.552 348.308 92.552Z" fill="#1D1D1B"></path>
<path d="M398.121 107.91V33.4892H411.9C414.675 33.4892 416.493 34.7332 417.354 37.221L418.574 41.2399C419.818 39.9481 421.11 38.7759 422.45 37.7234C423.789 36.623 425.225 35.69 426.756 34.9245C428.334 34.1112 430.009 33.4892 431.779 33.0586C433.597 32.5802 435.583 32.341 437.736 32.341C442.233 32.341 445.941 33.5132 448.859 35.8575C451.825 38.154 454.074 41.2399 455.605 45.1152C456.849 42.8187 458.356 40.8571 460.126 39.2305C461.944 37.6038 463.882 36.2881 465.939 35.2834C468.044 34.2787 470.245 33.5371 472.542 33.0586C474.886 32.5802 477.206 32.341 479.503 32.341C483.761 32.341 487.541 32.9869 490.842 34.2787C494.143 35.5226 496.894 37.3646 499.095 39.8046C501.343 42.1967 503.042 45.163 504.19 48.7035C505.338 52.196 505.912 56.167 505.912 60.6165V107.91H483.665V60.6165C483.665 52.9137 480.364 49.0623 473.762 49.0623C470.748 49.0623 468.236 50.067 466.226 52.0764C464.265 54.038 463.284 56.8847 463.284 60.6165V107.91H441.037V60.6165C441.037 56.3584 440.2 53.3682 438.525 51.6458C436.85 49.9235 434.387 49.0623 431.133 49.0623C429.124 49.0623 427.21 49.5168 425.392 50.4258C423.622 51.3348 421.947 52.5548 420.368 54.0858V107.91H398.121Z" fill="#1D1D1B"></path>
<path d="M568.218 49.7799C567.644 50.689 567.022 51.3348 566.352 51.7176C565.73 52.1003 564.917 52.2917 563.912 52.2917C562.86 52.2917 561.807 52.0764 560.754 51.6458C559.702 51.1674 558.554 50.665 557.31 50.1388C556.114 49.6125 554.75 49.134 553.219 48.7035C551.688 48.225 549.942 47.9858 547.98 47.9858C545.157 47.9858 542.981 48.536 541.45 49.6364C539.966 50.689 539.225 52.1721 539.225 54.0858C539.225 55.4733 539.703 56.6215 540.66 57.5306C541.665 58.4396 542.981 59.2529 544.607 59.9706C546.234 60.6404 548.076 61.2863 550.133 61.9082C552.19 62.5302 554.296 63.2239 556.449 63.9894C558.601 64.7549 560.707 65.6639 562.764 66.7165C564.821 67.7212 566.663 68.9891 568.29 70.5201C569.916 72.0032 571.208 73.8213 572.165 75.9742C573.17 78.1272 573.672 80.7107 573.672 83.7248C573.672 87.4088 573.002 90.8057 571.663 93.9155C570.323 97.0253 568.314 99.7046 565.634 101.953C563.003 104.202 559.726 105.948 555.803 107.192C551.927 108.436 547.454 109.058 542.383 109.058C539.847 109.058 537.311 108.819 534.775 108.34C532.24 107.862 529.776 107.216 527.384 106.403C525.039 105.589 522.862 104.632 520.853 103.532C518.844 102.384 517.121 101.164 515.686 99.872L520.853 91.6908C521.427 90.7339 522.145 89.9923 523.006 89.4661C523.915 88.8919 525.063 88.6049 526.451 88.6049C527.742 88.6049 528.891 88.8919 529.895 89.4661C530.948 90.0402 532.072 90.6621 533.268 91.332C534.464 92.0018 535.852 92.6237 537.431 93.1978C539.057 93.772 541.091 94.059 543.531 94.059C545.253 94.059 546.712 93.8916 547.908 93.5567C549.105 93.1739 550.061 92.6716 550.779 92.0496C551.497 91.4276 552.023 90.7339 552.358 89.9684C552.693 89.2029 552.86 88.4135 552.86 87.6002C552.86 86.117 552.358 84.897 551.353 83.9401C550.348 82.9833 549.033 82.1699 547.406 81.5001C545.779 80.7825 543.914 80.1366 541.808 79.5625C539.751 78.9405 537.646 78.2468 535.493 77.4813C533.34 76.7158 531.211 75.8068 529.106 74.7542C527.049 73.6538 525.207 72.2903 523.58 70.6636C521.953 68.9891 520.638 66.9557 519.633 64.5635C518.628 62.1714 518.126 59.2768 518.126 55.88C518.126 52.7223 518.724 49.7321 519.92 46.9093C521.164 44.0387 523.006 41.5269 525.446 39.374C527.886 37.221 530.948 35.5226 534.632 34.2787C538.316 32.9869 542.622 32.341 547.55 32.341C550.229 32.341 552.812 32.5802 555.3 33.0586C557.836 33.5371 560.204 34.2069 562.405 35.0681C564.606 35.9293 566.615 36.9579 568.433 38.154C570.251 39.3022 571.854 40.5701 573.242 41.9575L568.218 49.7799Z" fill="#758CDA"></path>
<path d="M654.271 33.4892L625.422 107.91H605.184L576.334 33.4892H594.85C596.428 33.4892 597.744 33.872 598.797 34.6375C599.897 35.3551 600.639 36.2642 601.021 37.3646L611.356 70.7354C612.265 73.4624 613.054 76.1177 613.724 78.7013C614.441 81.2848 615.063 83.8684 615.59 86.4519C616.642 81.2848 618.102 76.046 619.967 70.7354L630.732 37.3646C631.115 36.2642 631.833 35.3551 632.885 34.6375C633.938 33.872 635.182 33.4892 636.617 33.4892H654.271Z" fill="#758CDA"></path>
<path d="M694.027 32.341C699.672 32.341 704.815 33.2261 709.456 34.9963C714.097 36.7665 718.068 39.3022 721.369 42.6034C724.718 45.9046 727.302 49.9235 729.12 54.66C730.986 59.3486 731.919 64.6353 731.919 70.5201C731.919 76.4526 730.986 81.8111 729.12 86.5954C727.302 91.3319 724.718 95.3747 721.369 98.7238C718.068 102.025 714.097 104.585 709.456 106.403C704.815 108.173 699.672 109.058 694.027 109.058C688.333 109.058 683.142 108.173 678.454 106.403C673.813 104.585 669.794 102.025 666.397 98.7238C663.048 95.3747 660.441 91.3319 658.575 86.5954C656.757 81.8111 655.848 76.4526 655.848 70.5201C655.848 64.6353 656.757 59.3486 658.575 54.66C660.441 49.9235 663.048 45.9046 666.397 42.6034C669.794 39.3022 673.813 36.7665 678.454 34.9963C683.142 33.2261 688.333 32.341 694.027 32.341ZM694.027 92.552C699.146 92.552 702.902 90.7578 705.294 87.1696C707.734 83.5335 708.954 78.0315 708.954 70.6636C708.954 63.2957 707.734 57.8176 705.294 54.2294C702.902 50.6411 699.146 48.847 694.027 48.847C688.764 48.847 684.913 50.6411 682.473 54.2294C680.033 57.8176 678.813 63.2957 678.813 70.6636C678.813 78.0315 680.033 83.5335 682.473 87.1696C684.913 90.7578 688.764 92.552 694.027 92.552Z" fill="#758CDA"></path>
<path d="M766.087 87.6719C767.761 89.49 769.579 90.7817 771.541 91.5472C773.503 92.3127 775.488 92.6955 777.497 92.6955C779.603 92.6955 781.54 92.3127 783.31 91.5472C785.081 90.7339 786.588 89.4421 787.832 87.6719C789.123 85.8539 790.128 83.4856 790.846 80.5672C791.563 77.6009 791.922 73.9648 791.922 69.6589C791.922 65.9271 791.635 62.7694 791.061 60.1859C790.535 57.5545 789.721 55.4255 788.621 53.7988C787.569 52.1243 786.229 50.9282 784.602 50.2105C783.023 49.445 781.205 49.0623 779.148 49.0623C776.421 49.0623 774.053 49.6603 772.043 50.8564C770.034 52.0525 768.048 53.7988 766.087 56.0953V87.6719ZM766.087 41.3834C768.957 38.6563 772.091 36.4795 775.488 34.8528C778.933 33.1783 782.76 32.341 786.97 32.341C791.181 32.341 795.008 33.2022 798.453 34.9245C801.898 36.6469 804.84 39.1108 807.28 42.3164C809.72 45.474 811.586 49.3015 812.878 53.7988C814.217 58.2961 814.887 63.3196 814.887 68.8695C814.887 74.8977 814.122 80.3758 812.591 85.3037C811.06 90.2315 808.883 94.4657 806.06 98.0061C803.285 101.499 799.96 104.226 796.085 106.187C792.209 108.101 787.927 109.058 783.239 109.058C780.99 109.058 778.981 108.843 777.21 108.412C775.44 107.981 773.814 107.383 772.33 106.618C770.847 105.805 769.484 104.848 768.24 103.747C767.044 102.647 765.872 101.451 764.723 100.159L763.934 103.891C763.551 105.422 762.929 106.474 762.068 107.049C761.207 107.623 760.059 107.91 758.623 107.91H743.84V0.477272H766.087V41.3834Z" fill="#758CDA"></path>
<path d="M861.279 32.341C866.924 32.341 872.067 33.2261 876.708 34.9963C881.349 36.7665 885.32 39.3022 888.621 42.6034C891.97 45.9046 894.554 49.9235 896.372 54.66C898.238 59.3486 899.171 64.6353 899.171 70.5201C899.171 76.4526 898.238 81.8111 896.372 86.5954C894.554 91.3319 891.97 95.3747 888.621 98.7238C885.32 102.025 881.349 104.585 876.708 106.403C872.067 108.173 866.924 109.058 861.279 109.058C855.585 109.058 850.394 108.173 845.706 106.403C841.065 104.585 837.046 102.025 833.649 98.7238C830.3 95.3747 827.693 91.3319 825.827 86.5954C824.009 81.8111 823.1 76.4526 823.1 70.5201C823.1 64.6353 824.009 59.3486 825.827 54.66C827.693 49.9235 830.3 45.9046 833.649 42.6034C837.046 39.3022 841.065 36.7665 845.706 34.9963C850.394 33.2261 855.585 32.341 861.279 32.341ZM861.279 92.552C866.398 92.552 870.154 90.7578 872.546 87.1696C874.986 83.5335 876.206 78.0315 876.206 70.6636C876.206 63.2957 874.986 57.8176 872.546 54.2294C870.154 50.6411 866.398 48.847 861.279 48.847C856.016 48.847 852.165 50.6411 849.725 54.2294C847.285 57.8176 846.065 63.2957 846.065 70.6636C846.065 78.0315 847.285 83.5335 849.725 87.1696C852.165 90.7578 856.016 92.552 861.279 92.552Z" fill="#758CDA"></path>
<path d="M956.232 53.4399C954.557 51.5741 952.739 50.2823 950.778 49.5646C948.816 48.7991 946.759 48.4164 944.606 48.4164C942.549 48.4164 940.659 48.8231 938.937 49.6364C937.214 50.4497 935.707 51.7654 934.415 53.5835C933.171 55.3537 932.191 57.6741 931.473 60.5447C930.755 63.4153 930.396 66.884 930.396 70.9506C930.396 74.8738 930.683 78.175 931.258 80.8542C931.832 83.5335 932.621 85.7103 933.626 87.3849C934.678 89.0115 935.922 90.1837 937.358 90.9014C938.793 91.619 940.396 91.9778 942.166 91.9778C943.793 91.9778 945.252 91.8343 946.544 91.5472C947.883 91.2123 949.103 90.7578 950.204 90.1837C951.304 89.6096 952.333 88.8919 953.29 88.0308C954.294 87.1217 955.275 86.0931 956.232 84.9448V53.4399ZM978.479 0.477272V107.91H964.7C961.925 107.91 960.107 106.666 959.246 104.178L957.524 98.5085C956.041 100.087 954.486 101.523 952.859 102.814C951.232 104.106 949.462 105.23 947.548 106.187C945.682 107.096 943.649 107.79 941.448 108.269C939.295 108.795 936.951 109.058 934.415 109.058C930.54 109.058 926.952 108.197 923.651 106.474C920.349 104.752 917.503 102.264 915.11 99.0108C912.718 95.7575 910.828 91.7865 909.441 87.0978C908.101 82.3613 907.432 76.9789 907.432 70.9506C907.432 65.4008 908.197 60.2576 909.728 55.5211C911.259 50.7368 913.412 46.6223 916.187 43.1775C919.01 39.685 922.383 36.9579 926.306 34.9963C930.229 33.0347 934.559 32.0539 939.295 32.0539C943.171 32.0539 946.424 32.6041 949.055 33.7045C951.687 34.8049 954.079 36.2881 956.232 38.154V0.477272H978.479Z" fill="#758CDA"></path>
<path d="M1032.62 77.6248C1028.17 77.8162 1024.51 78.1989 1021.64 78.773C1018.77 79.3472 1016.5 80.0648 1014.82 80.926C1013.15 81.7872 1011.98 82.768 1011.31 83.8684C1010.69 84.9688 1010.37 86.1649 1010.37 87.4566C1010.37 89.9923 1011.07 91.7865 1012.46 92.839C1013.84 93.8437 1015.88 94.3461 1018.56 94.3461C1021.43 94.3461 1023.94 93.8437 1026.09 92.839C1028.24 91.8343 1030.42 90.2076 1032.62 87.959V77.6248ZM992.576 43.8234C997.074 39.8524 1002.05 36.91 1007.5 34.9963C1013.01 33.0347 1018.89 32.0539 1025.16 32.0539C1029.66 32.0539 1033.7 32.7955 1037.29 34.2787C1040.92 35.714 1043.98 37.7473 1046.47 40.3787C1049.01 42.9622 1050.95 46.0481 1052.29 49.6364C1053.62 53.2247 1054.29 57.1478 1054.29 61.4059V107.91H1044.1C1042 107.91 1040.4 107.623 1039.3 107.049C1038.24 106.474 1037.36 105.278 1036.64 103.46L1035.06 99.3696C1033.2 100.948 1031.4 102.336 1029.68 103.532C1027.96 104.728 1026.16 105.757 1024.3 106.618C1022.48 107.431 1020.52 108.029 1018.41 108.412C1016.35 108.843 1014.06 109.058 1011.52 109.058C1008.13 109.058 1005.04 108.627 1002.26 107.766C999.49 106.857 997.122 105.541 995.16 103.819C993.246 102.097 991.763 99.9677 990.711 97.432C989.658 94.8484 989.132 91.8821 989.132 88.5331C989.132 85.8539 989.802 83.1507 991.141 80.4236C992.481 77.6487 994.801 75.1369 998.102 72.8883C1001.4 70.5918 1005.85 68.6781 1011.45 67.1471C1017.05 65.6161 1024.11 64.7549 1032.62 64.5635V61.4059C1032.62 57.0521 1031.71 53.9184 1029.89 52.0046C1028.12 50.0431 1025.59 49.0623 1022.29 49.0623C1019.66 49.0623 1017.5 49.3493 1015.83 49.9235C1014.15 50.4976 1012.65 51.1435 1011.31 51.8611C1010.02 52.5788 1008.75 53.2247 1007.5 53.7988C1006.26 54.3729 1004.78 54.66 1003.05 54.66C1001.52 54.66 1000.23 54.2772 999.179 53.5117C998.126 52.7462 997.265 51.8372 996.595 50.7846L992.576 43.8234Z" fill="#758CDA"></path>
</svg>