<svg width="165" height="21" viewBox="0 0 181 21" fill="none" xmlns="http://www.w3.org/2000/svg">
<g clip-path="url(#clip0)">
<path d="M4.17364 11.4099V17.0573H0V0.161621H6.34583C7.61315 0.161621 8.70168 0.302649 9.61142 0.584705C10.5212 0.866761 11.2702 1.25532 11.8586 1.75037C12.4348 2.22824 12.8815 2.82815 13.1616 3.50041C13.4411 4.17315 13.581 4.89981 13.5813 5.68039C13.5813 6.52325 13.4374 7.29634 13.1495 7.99967C12.8688 8.69289 12.4158 9.31308 11.8282 9.80859C11.2351 10.3112 10.4839 10.7035 9.57465 10.9854C8.66542 11.2673 7.58915 11.4083 6.34583 11.4085L4.17364 11.4099ZM4.17364 8.45373H6.34684C7.43285 8.45373 8.21475 8.21022 8.69253 7.72321C9.17032 7.23619 9.40912 6.55581 9.40896 5.68205C9.40896 5.29531 9.34718 4.94364 9.22362 4.62706C9.1053 4.31775 8.91312 4.038 8.66181 3.80927C8.40999 3.58145 8.09312 3.40558 7.71119 3.28166C7.32927 3.15774 6.87448 3.09585 6.34684 3.09601H4.17364V8.45373Z" fill="#1D1D1B"/>
<path d="M20.6568 4.84668C21.627 4.84668 22.5118 4.98976 23.3113 5.27591C24.1107 5.56207 24.796 5.97199 25.3671 6.50567C25.9392 7.0392 26.3841 7.68671 26.7017 8.44822C27.0194 9.20972 27.1778 10.0658 27.1772 11.0165C27.1772 11.9751 27.0187 12.839 26.7017 13.6082C26.3848 14.3775 25.9399 15.0306 25.3671 15.5676C24.7946 16.1052 24.1094 16.5188 23.3113 16.8084C22.5132 17.0981 21.6283 17.2431 20.6568 17.2436C19.6768 17.2436 18.7856 17.0987 17.9833 16.8089C17.181 16.5191 16.4896 16.1055 15.909 15.568C15.3285 15.0309 14.8798 14.3778 14.5628 13.6087C14.2459 12.8396 14.0876 11.9756 14.0879 11.0165C14.0879 10.0655 14.2463 9.2094 14.5631 8.44822C14.8799 7.68703 15.3286 7.03951 15.9093 6.50567C16.4895 5.97262 17.1809 5.5627 17.9835 5.27591C18.7862 4.98913 19.6773 4.84605 20.6568 4.84668ZM20.6568 14.576C21.5369 14.576 22.185 14.2843 22.6011 13.7009C23.0173 13.1176 23.2254 12.2307 23.2254 11.0402C23.2254 9.84982 23.0175 8.96471 22.6016 8.38484C22.1858 7.80496 21.5375 7.51463 20.6568 7.51384C19.7503 7.51384 19.0872 7.80378 18.6675 8.38365C18.2478 8.96353 18.0379 9.84904 18.0379 11.0402C18.0379 12.2307 18.2478 13.1179 18.6675 13.7019C19.0872 14.2859 19.7503 14.5775 20.6568 14.5769V14.576Z" fill="#1D1D1B"/>
<path d="M38.5111 7.88492C38.4127 8.00075 38.3007 8.10586 38.1774 8.19828C38.0706 8.27561 37.918 8.31416 37.7211 8.31416C37.541 8.31656 37.3637 8.27246 37.2084 8.18669C37.056 8.10155 36.8851 8.00695 36.6957 7.9029C36.4834 7.78899 36.2603 7.69398 36.0291 7.61911C35.774 7.53444 35.4571 7.49203 35.0785 7.49187C34.6093 7.49187 34.2039 7.57299 33.8622 7.73523C33.5222 7.89623 33.2313 8.13562 33.0166 8.43099C32.7945 8.73275 32.6298 9.10191 32.5226 9.53848C32.4153 9.97504 32.3619 10.4678 32.3624 11.0168C32.3624 12.1688 32.599 13.054 33.0723 13.6724C33.5455 14.2907 34.1978 14.5999 35.0292 14.5999C35.4737 14.5999 35.8257 14.5477 36.085 14.4433C36.3191 14.3522 36.5408 14.2355 36.7456 14.0954C36.9269 13.9679 37.0935 13.8496 37.2454 13.7407C37.3974 13.6318 37.5887 13.5777 37.8196 13.5785C38.1243 13.5785 38.3548 13.6829 38.5111 13.8918L39.6223 15.179C39.2275 15.6047 38.8118 15.9506 38.3753 16.2165C37.9572 16.4749 37.5075 16.6852 37.0359 16.843C36.5895 16.9914 36.128 17.0962 35.6587 17.1559C35.2128 17.2127 34.7635 17.2417 34.3135 17.2427C33.5443 17.2451 32.7824 17.1033 32.0723 16.8255C31.3633 16.5493 30.7239 16.1366 30.1953 15.614C29.6564 15.0842 29.2283 14.4329 28.911 13.6601C28.5937 12.8872 28.4352 12.006 28.4355 11.0165C28.4355 10.1507 28.573 9.34085 28.848 8.58707C29.123 7.83329 29.5305 7.18026 30.0704 6.62797C30.6092 6.07616 31.2761 5.64125 32.0708 5.32325C32.8655 5.00524 33.7854 4.84671 34.8305 4.84766C35.8346 4.84766 36.7154 4.99846 37.4728 5.30007C38.2303 5.60168 38.9136 6.04218 39.5226 6.62159L38.5111 7.88492Z" fill="#1D1D1B"/>
<path d="M48.6482 5.93704C48.8405 5.66364 49.1012 5.43858 49.4074 5.28149C49.7104 5.1189 50.0531 5.03301 50.4021 5.03223H53.4269L50.7342 9.40378C50.5287 9.72856 50.3189 9.99138 50.1047 10.1922C49.8837 10.3975 49.6184 10.5557 49.3266 10.6562C49.7463 10.788 50.0878 10.9736 50.3512 11.2129C50.6146 11.4523 50.8491 11.7538 51.0548 12.1175L53.7344 17.0571H51.0928C50.7965 17.0608 50.5005 17.0356 50.2097 16.9819C49.975 16.9373 49.7484 16.8613 49.5368 16.7561C49.3439 16.6592 49.1688 16.5337 49.0183 16.3845C48.8629 16.2291 48.7263 16.058 48.6109 15.8744L47.2511 12.8473C47.1275 12.5768 46.9483 12.3778 46.7134 12.2504C46.4786 12.123 46.2091 12.0593 45.9051 12.0591H44.9419V17.0567H41.1143V5.03317H44.9419V9.79896H45.7329C46.0785 9.79896 46.3357 9.74685 46.5044 9.64263C46.6732 9.53842 46.8234 9.36247 46.9552 9.11478L48.6482 5.93704Z" fill="#1D1D1B"/>
<path d="M60.5631 4.84668C61.5334 4.84668 62.4184 4.98976 63.218 5.27592C64.0176 5.56207 64.7029 5.97199 65.2739 6.50567C65.8459 7.0392 66.2907 7.68671 66.6085 8.44822C66.9263 9.20972 67.0847 10.0658 67.0837 11.0165C67.0837 11.9751 66.9253 12.839 66.6085 13.6082C66.2917 14.3775 65.8469 15.0306 65.2739 15.5676C64.7013 16.1052 64.016 16.5188 63.218 16.8084C62.4201 17.0981 61.5351 17.243 60.5631 17.2431C59.5834 17.2431 58.6923 17.0982 57.8898 16.8084C57.0873 16.5187 56.3958 16.105 55.8153 15.5676C55.2351 15.0304 54.7865 14.3773 54.4696 13.6082C54.1526 12.8392 53.9941 11.9753 53.9941 11.0165C53.9941 10.0655 54.1526 9.20941 54.4696 8.44822C54.7865 7.68703 55.2351 7.03951 55.8153 6.50567C56.3955 5.97262 57.087 5.5627 57.8898 5.27592C58.6926 4.98913 59.5837 4.84605 60.5631 4.84668ZM60.5631 14.576C61.4438 14.576 62.092 14.2843 62.5076 13.7009C62.9233 13.1176 63.1312 12.2307 63.1314 11.0402C63.1314 9.84982 62.9235 8.96471 62.5076 8.38484C62.0918 7.80496 61.4436 7.51502 60.5631 7.51502C59.6576 7.51502 58.9944 7.80496 58.5737 8.38484C58.153 8.96471 57.9428 9.84982 57.9432 11.0402C57.9432 12.2307 58.1534 13.1179 58.574 13.7019C58.9945 14.2859 59.6576 14.5775 60.5634 14.5769L60.5631 14.576Z" fill="#1D1D1B"/>
<path d="M76.6766 11.7461C76.8 11.4216 76.9316 11.1027 77.0715 10.7893C77.2047 10.4891 77.3574 10.1968 77.5288 9.91423L79.7015 5.79928C79.8828 5.48238 80.1031 5.27363 80.3623 5.17305C80.6106 5.07465 80.8772 5.02337 81.1467 5.02216H84.3564V17.0596H80.8994V11.3635C80.8994 11.0697 80.9138 10.7393 80.9427 10.3721C80.9694 10.02 81.0168 9.66965 81.0847 9.32253L77.9607 15.0163C77.7302 15.4105 77.3722 15.6075 76.8867 15.6075H76.4792C75.994 15.6075 75.636 15.4105 75.405 15.0163L72.2572 9.28777C72.3232 9.628 72.3747 9.98549 72.4116 10.3603C72.4485 10.735 72.4671 11.0692 72.4672 11.3627V17.0563H69.0098V5.02051H72.2202C72.4902 5.0219 72.7571 5.07518 73.0044 5.17707C73.2632 5.28191 73.4834 5.48876 73.6649 5.79762L75.8257 9.91376C76.1511 10.5067 76.4354 11.1187 76.6766 11.7461Z" fill="#1D1D1B"/>
<path d="M96.358 7.88466C96.2594 8.00037 96.1475 8.10547 96.0243 8.19801C95.9174 8.27526 95.7652 8.31389 95.5678 8.31389C95.3876 8.31636 95.2103 8.27226 95.0551 8.18642C94.9026 8.10128 94.7318 8.00669 94.5426 7.90263C94.3302 7.78873 94.107 7.69371 93.8758 7.61884C93.6208 7.53418 93.304 7.49176 92.9254 7.49161C92.4564 7.49161 92.0509 7.57272 91.7089 7.73496C91.369 7.89602 91.078 8.1354 90.8633 8.43072C90.6412 8.73248 90.4766 9.10164 90.3695 9.53821C90.2624 9.97477 90.2091 10.4675 90.2096 11.0163C90.2096 12.1683 90.4462 13.0535 90.9195 13.6718C91.3927 14.2902 92.0451 14.5994 92.8766 14.5994C93.3208 14.5994 93.6726 14.5472 93.932 14.4428C94.1661 14.3519 94.3879 14.2351 94.5927 14.0949C94.7737 13.9674 94.9403 13.8491 95.0926 13.7402C95.2449 13.6313 95.4363 13.5772 95.667 13.578C95.9712 13.578 96.2017 13.6824 96.3585 13.8913L97.4697 15.1785C97.0747 15.6042 96.659 15.9501 96.2225 16.216C95.8044 16.4745 95.3547 16.6848 94.8831 16.8425C94.4367 16.9908 93.9753 17.0957 93.5061 17.1554C93.0601 17.2122 92.6106 17.2412 92.1604 17.2422C91.3913 17.2446 90.6293 17.1028 89.9193 16.825C89.2102 16.5489 88.5707 16.1362 88.0422 15.6134C87.5035 15.0837 87.0754 14.4324 86.7579 13.6595C86.4405 12.8867 86.2816 12.0056 86.2812 11.0163C86.2812 10.1504 86.4192 9.34058 86.695 8.5868C86.9708 7.83302 87.3785 7.17975 87.9181 6.62699C88.457 6.07518 89.1238 5.64027 89.9185 5.32227C90.7132 5.00427 91.6329 4.84574 92.6774 4.84668C93.6817 4.84668 94.5624 4.99749 95.3197 5.29909C96.077 5.6007 96.7603 6.0412 97.3695 6.62061L96.358 7.88466Z" fill="#758CDA"/>
<path d="M98.9629 5.0332H104.321C105.145 5.0332 105.861 5.10667 106.47 5.25361C107.079 5.40055 107.583 5.60551 107.983 5.86849C108.382 6.131 108.678 6.4423 108.871 6.8024C109.066 7.1674 109.166 7.57078 109.162 7.97918C109.161 8.25077 109.126 8.52128 109.057 8.78514C108.985 9.06565 108.861 9.3324 108.693 9.57384C108.52 9.825 108.283 10.055 107.983 10.2639C107.682 10.4728 107.298 10.6352 106.828 10.7511C107.202 10.8318 107.564 10.9524 107.909 11.1106C108.227 11.2551 108.519 11.4468 108.773 11.6781C109.015 11.9016 109.208 12.1675 109.341 12.4609C109.476 12.7584 109.544 13.0966 109.545 13.4755C109.545 14.1173 109.401 14.6641 109.113 15.1158C108.829 15.5635 108.438 15.9427 107.971 16.2233C107.497 16.5091 106.958 16.7197 106.353 16.8549C105.744 16.9907 105.121 17.0588 104.495 17.0579H98.9649L98.9629 5.0332ZM102.593 9.93828H104.21C104.68 9.93828 105.062 9.80497 105.359 9.53837C105.655 9.27176 105.803 8.92956 105.803 8.51176C105.803 8.36227 105.778 8.21375 105.729 8.07141C105.678 7.92218 105.589 7.78687 105.47 7.67718C105.346 7.56098 105.181 7.46639 104.976 7.39339C104.771 7.32039 104.515 7.28366 104.21 7.28319H102.593V9.93828ZM102.593 12.0719V14.6918H104.47C104.947 14.6918 105.326 14.5703 105.606 14.3273C105.885 14.0844 106.025 13.7539 106.026 13.336C106.026 13.1721 106.008 13.0087 105.97 12.8488C105.935 12.6977 105.858 12.5578 105.748 12.443C105.636 12.3271 105.478 12.236 105.272 12.1696C105.067 12.1032 104.799 12.0704 104.47 12.0712L102.593 12.0719Z" fill="#758CDA"/>
<path d="M117.41 4.84668C118.38 4.84668 119.265 4.98976 120.064 5.27592C120.864 5.56207 121.549 5.97199 122.12 6.50567C122.692 7.0392 123.137 7.68671 123.455 8.44822C123.773 9.20972 123.932 10.0658 123.93 11.0165C123.93 11.9751 123.772 12.839 123.455 13.6082C123.138 14.3775 122.693 15.0306 122.12 15.5676C121.548 16.1052 120.862 16.5188 120.064 16.8084C119.267 17.0981 118.382 17.243 117.41 17.2431C116.43 17.2431 115.539 17.0982 114.736 16.8084C113.934 16.5187 113.242 16.1047 112.662 15.5666C112.082 15.0295 111.633 14.3764 111.317 13.6075C111 12.8386 110.841 11.9749 110.841 11.0165C110.841 10.0658 110.999 9.20972 111.317 8.44822C111.634 7.68671 112.082 7.0392 112.662 6.50567C113.242 5.97262 113.934 5.5627 114.737 5.27592C115.54 4.98913 116.43 4.84605 117.41 4.84668ZM117.41 14.576C118.29 14.576 118.938 14.2843 119.354 13.7009C119.77 13.1176 119.978 12.2307 119.978 11.0402C119.978 9.84982 119.77 8.96471 119.354 8.38484C118.938 7.80496 118.29 7.51502 117.41 7.51502C116.504 7.51502 115.841 7.80496 115.422 8.38484C115.002 8.96471 114.792 9.84982 114.791 11.0402C114.791 12.2307 115.001 13.1179 115.422 13.7019C115.842 14.2859 116.505 14.5775 117.41 14.5769V14.576Z" fill="#758CDA"/>
<path d="M133.005 3.3626C132.297 3.40139 131.69 3.51963 131.184 3.71734C130.677 3.91505 130.26 4.18354 129.931 4.52283C129.595 4.87206 129.341 5.28272 129.183 5.72894C129.014 6.19262 128.913 6.70667 128.881 7.2711C129.094 7.00843 129.338 6.76924 129.608 6.55808C129.899 6.33195 130.218 6.14123 130.559 5.9905C130.929 5.82685 131.316 5.70064 131.714 5.614C132.157 5.5183 132.611 5.47155 133.066 5.47471C133.914 5.47471 134.679 5.61574 135.363 5.89779C136.031 6.16983 136.627 6.57715 137.109 7.09066C137.59 7.60463 137.961 8.22109 138.22 8.94002C138.479 9.65896 138.609 10.4593 138.609 11.3411C138.609 12.2537 138.451 13.0735 138.134 13.8006C137.818 14.5278 137.373 15.1462 136.8 15.6559C136.228 16.1663 135.542 16.5586 134.744 16.8329C133.945 17.1073 133.06 17.2441 132.087 17.2435C131.108 17.2435 130.215 17.0966 129.408 16.8029C128.601 16.5092 127.908 16.0416 127.328 15.4C126.748 14.7585 126.299 13.9314 125.982 12.9188C125.665 11.9061 125.507 10.6763 125.507 9.22949C125.507 8.0393 125.624 6.91991 125.859 5.8713C126.094 4.8227 126.491 3.89865 127.049 3.09915C127.604 2.29918 128.341 1.65174 129.259 1.15684C130.177 0.661942 131.319 0.372004 132.685 0.287024L137.217 -0.00244141L137.427 1.80625C137.468 2.18464 137.406 2.50737 137.241 2.77445C137.077 3.04152 136.784 3.18271 136.364 3.198L133.005 3.3626ZM132.091 14.7031C132.972 14.7031 133.62 14.4268 134.036 13.8742C134.451 13.3216 134.659 12.4809 134.659 11.3522C134.659 10.2239 134.452 9.3851 134.036 8.83597C133.62 8.28683 132.972 8.0125 132.091 8.01298C131.177 8.01298 130.51 8.28557 130.091 8.83076C129.672 9.37596 129.461 10.2088 129.46 11.3293C129.46 12.4659 129.67 13.3124 130.091 13.869C130.511 14.4255 131.178 14.7036 132.091 14.7031Z" fill="#758CDA"/>
<path d="M146.475 4.84668C147.446 4.84668 148.331 4.98976 149.13 5.27592C149.93 5.56207 150.615 5.97199 151.186 6.50567C151.758 7.0392 152.203 7.68671 152.521 8.44822C152.839 9.20972 152.997 10.0658 152.996 11.0165C152.996 11.9751 152.837 12.839 152.52 13.6082C152.203 14.3775 151.758 15.0306 151.185 15.5676C150.613 16.1052 149.928 16.5188 149.13 16.8084C148.331 17.0981 147.446 17.243 146.475 17.2431C145.495 17.2431 144.604 17.0982 143.801 16.8084C142.999 16.5187 142.307 16.105 141.727 15.5676C141.147 15.0304 140.698 14.3773 140.381 13.6082C140.064 12.8392 139.906 11.9753 139.906 11.0165C139.906 10.0655 140.065 9.20941 140.382 8.44822C140.699 7.68703 141.147 7.03951 141.728 6.50567C142.308 5.97262 142.999 5.5627 143.802 5.27592C144.605 4.98913 145.496 4.84605 146.475 4.84668ZM146.475 14.576C147.356 14.576 148.004 14.2843 148.42 13.7009C148.836 13.1176 149.044 12.2307 149.044 11.0402C149.044 9.84982 148.836 8.96471 148.42 8.38484C148.004 7.80496 147.356 7.51502 146.475 7.51502C145.57 7.51502 144.907 7.80496 144.486 8.38484C144.065 8.96471 143.856 9.84982 143.859 11.0402C143.859 12.2307 144.069 13.1179 144.488 13.7019C144.908 14.2859 145.57 14.5775 146.475 14.5769V14.576Z" fill="#758CDA"/>
<path d="M166.663 5.03343V14.4841H169.022V19.9797C169.022 20.2886 168.921 20.5359 168.719 20.7216C168.518 20.9073 168.26 21.0001 167.946 20.9999H165.538V17.0574H157.007V20.027C157.007 20.1493 156.986 20.2707 156.945 20.3867C156.904 20.502 156.839 20.6085 156.753 20.6998C156.663 20.7951 156.551 20.8703 156.426 20.92C156.277 20.9774 156.118 21.0051 155.957 21.0011H153.525V14.5877H153.958C154.225 14.5808 154.491 14.5419 154.748 14.4718C155.003 14.4023 155.248 14.2574 155.482 14.0371C155.717 13.8169 155.937 13.496 156.143 13.0746C156.349 12.6532 156.536 12.0908 156.705 11.3875C156.874 10.6842 157.024 9.81442 157.156 8.77827C157.287 7.74244 157.394 6.49392 157.477 5.03271L166.663 5.03343ZM160.601 7.6897C160.452 9.39843 160.234 10.8108 159.946 11.9269C159.658 13.043 159.32 13.9299 158.933 14.5877H162.96V7.68923L160.601 7.6897Z" fill="#758CDA"/>
<path d="M179.245 17.0572C178.883 17.0572 178.609 17.0108 178.424 16.9181C178.238 16.8254 178.084 16.6319 177.961 16.3375L177.689 15.6768C177.368 15.9322 177.06 16.1565 176.763 16.3496C176.473 16.5396 176.165 16.7046 175.843 16.8424C175.519 16.9797 175.18 17.0808 174.831 17.1437C174.438 17.2124 174.039 17.2454 173.639 17.2423C173.055 17.2423 172.524 17.1709 172.046 17.0281C171.569 16.8852 171.164 16.6745 170.83 16.3959C170.491 16.1105 170.227 15.7554 170.059 15.3585C169.877 14.9448 169.787 14.4672 169.787 13.9258C169.787 13.5001 169.902 13.0635 170.133 12.6159C170.363 12.1683 170.762 11.7605 171.33 11.3925C171.898 11.0253 172.663 10.7179 173.627 10.4702C174.59 10.2225 175.804 10.0833 177.27 10.0525V9.54241C177.27 8.83909 177.115 8.33078 176.807 8.01751C176.498 7.70424 176.059 7.54776 175.491 7.54808C175.038 7.54808 174.668 7.59443 174.38 7.68713C174.114 7.77114 173.856 7.87588 173.608 8.00025C173.382 8.1166 173.162 8.22097 172.948 8.31336C172.733 8.40575 172.478 8.4521 172.182 8.45242C171.919 8.45242 171.697 8.39062 171.516 8.26701C171.339 8.14793 171.188 7.99832 171.071 7.82619L170.379 6.70144C171.131 6.07245 172.005 5.58624 172.954 5.26971C173.896 4.9566 174.907 4.79996 175.986 4.7998C176.76 4.7998 177.457 4.91805 178.079 5.15454C178.7 5.39103 179.227 5.71952 179.659 6.14C180.091 6.56143 180.423 7.06193 180.654 7.64149C180.885 8.22105 181 8.85501 181 9.54336V17.0574L179.245 17.0572ZM174.849 14.8656C175.343 14.8656 175.775 14.7844 176.146 14.622C176.516 14.4596 176.891 14.1968 177.27 13.8336V12.1637C176.504 12.1941 175.874 12.2559 175.381 12.3491C174.888 12.4423 174.497 12.5584 174.209 12.6974C173.92 12.8365 173.721 12.9949 173.609 13.1726C173.499 13.3481 173.441 13.5485 173.442 13.7524C173.442 14.1624 173.562 14.4503 173.8 14.6163C174.039 14.7824 174.389 14.8651 174.85 14.8647L174.849 14.8656Z" fill="#758CDA"/>
</g>
<defs>
<clipPath id="clip0">
<rect width="181" height="21" fill="white"/>
</clipPath>
</defs>
</svg>
