<?xml version="1.0" encoding="UTF-8"?><!DOCTYPE svg PUBLIC "-//W3C//DTD SVG 1.1//EN" "http://www.w3.org/Graphics/SVG/1.1/DTD/svg11.dtd"><svg xmlns="http://www.w3.org/2000/svg" xml:space="preserve" version="1.1" shape-rendering="geometricPrecision" text-rendering="geometricPrecision" image-rendering="optimizeQuality" fill-rule="evenodd" clip-rule="evenodd" viewBox="0 0 13333 13333" xmlns:xlink="http://www.w3.org/1999/xlink" xmlns:xodm="http://www.corel.com/coreldraw/odm/2003"><defs><linearGradient id="id0" gradientUnits="userSpaceOnUse" x1="6667" y1="13333" x2="6667" y2="0"><stop offset="0" stop-opacity="1" stop-color="#420C5D"/><stop offset="1" stop-opacity="1" stop-color="#951AD1"/></linearGradient><linearGradient id="id1" gradientUnits="userSpaceOnUse" x1="3659" y1="12734" x2="3659" y2="755"><stop offset="0" stop-opacity="1" stop-color="#420C5D"/><stop offset="1" stop-opacity="1" stop-color="#951AD1"/></linearGradient></defs><g id="Layer_x0020_1"><metadata id="CorelCorpID_0Corel-Layer"/><g id="Tor_Browser_icon.svg"><g id="tor-browser-icon"><g id="icon_512x512"><g id="Group"><g id="tb_icon_x002f_Stable"><g id="Stable"><circle id="background" fill="#F2E4FF" fill-rule="nonzero" cx="6667" cy="6667" r="6406"/><path id="center" fill="url(#id0)" d="M6680 12121l0 -808c2560,-7 4633,-2084 4633,-4646 0,-2562 -2073,-4639 -4633,-4646l0 -808c3006,8 5441,2446 5441,5454 0,3008 -2434,5447 -5441,5454zm0 -2829c1444,-8 2613,-1180 2613,-2626 0,-1446 -1169,-2618 -2613,-2626l0 -808c1890,7 3421,1541 3421,3434 0,1892 -1530,3426 -3421,3434l0 -808zm0 -4039c775,7 1400,637 1400,1413 0,777 -626,1406 -1400,1414l0 -2827zm-6680 1413c0,3682 2985,6667 6667,6667 3682,0 6667,-2985 6667,-6667 0,-3682 -2985,-6666 -6667,-6666 -3682,0 -6667,2985 -6667,6666z"/><g id="half"><g filter="url(#filter-3)"><path fill="black" d="M6667 755c-3322,0 -6016,2682 -6016,5990 0,3308 2693,5990 6016,5990l0 -11979z"/></g><g><path fill="url(#id1)" d="M6667 755c-3322,0 -6016,2682 -6016,5990 0,3308 2693,5990 6016,5990l0 -11979z"/></g></g></g></g></g></g></g></g></g></svg>