<svg width="36" height="24" viewBox="0 0 36 24" fill="none" xmlns="http://www.w3.org/2000/svg">
<path d="M29 12C29 18.0742 24.0742 23 18 23C11.9258 23 7 18.0742 7 12C7 5.9258 11.9258 1 18 1C24.0742 1 29 5.9258 29 12Z" fill="url(#paint0_linear_2457_7800)"/>
<mask id="path-2-outside-1_2457_7800" maskUnits="userSpaceOnUse" x="11.6016" y="2.84985" width="13" height="18" fill="black">
<rect fill="white" x="11.6016" y="2.84985" width="13" height="18"/>
<path fill-rule="evenodd" clip-rule="evenodd" d="M17.453 5.12485C17.453 4.97298 17.5761 4.84985 17.728 4.84985H18.828C18.9799 4.84985 19.103 4.97298 19.103 5.12485V6.72999C19.3995 6.77095 19.6834 6.83605 19.9547 6.9253C20.4594 7.09023 20.9063 7.33103 21.2956 7.6477C21.6848 7.96107 22.0015 8.34536 22.2456 8.80056C22.4491 9.17508 22.5924 9.59426 22.6753 10.0581C22.7043 10.2202 22.5759 10.3641 22.4112 10.3641H20.7923C20.6553 10.3641 20.541 10.2627 20.5089 10.1295C20.4638 9.94276 20.3978 9.77193 20.3109 9.61697C20.1889 9.39596 20.0322 9.20794 19.8409 9.05291C19.6496 8.89787 19.4286 8.77912 19.1779 8.69666C18.9305 8.61419 18.6616 8.57296 18.3714 8.57296C17.8469 8.57296 17.39 8.70326 17.0008 8.96384C16.6115 9.22114 16.3097 9.59718 16.0953 10.092C15.8809 10.5835 15.7737 11.1805 15.7737 11.8831C15.7737 12.6055 15.8809 13.2125 16.0953 13.7039C16.313 14.1954 16.6165 14.5665 17.0057 14.8172C17.395 15.0679 17.8452 15.1933 18.3565 15.1933C18.6435 15.1933 18.909 15.1553 19.1531 15.0795C19.4005 15.0036 19.6199 14.8931 19.8112 14.748C20.0025 14.5995 20.1609 14.4197 20.2862 14.2086C20.3781 14.0578 20.4499 13.8917 20.5014 13.7105C20.5378 13.5823 20.6504 13.4867 20.7837 13.4873L22.4119 13.4947C22.5763 13.4955 22.7041 13.6397 22.6713 13.8008C22.5987 14.1579 22.4749 14.505 22.3 14.842C22.079 15.2708 21.7805 15.6551 21.4044 15.9948C21.0317 16.3313 20.5864 16.5985 20.0685 16.7964C19.7504 16.9167 19.4064 16.9998 19.0366 17.0458C19.078 17.0939 19.103 17.1565 19.103 17.225V18.875C19.103 19.0268 18.9799 19.15 18.828 19.15H17.728C17.5761 19.15 17.453 19.0268 17.453 18.875V17.225C17.453 17.1501 17.4829 17.0823 17.5314 17.0327C16.94 16.9466 16.3953 16.7606 15.8974 16.4748C15.1882 16.0658 14.6274 15.4737 14.2151 14.6985C13.8061 13.9233 13.6016 12.9849 13.6016 11.8831C13.6016 10.7781 13.8094 9.83798 14.225 9.0628C14.6406 8.28763 15.2047 7.69718 15.9172 7.29145C16.3899 7.02006 16.9019 6.83871 17.453 6.74738V5.12485Z"/>
</mask>
<path d="M19.103 6.72999H18.003V7.68848L18.9525 7.81964L19.103 6.72999ZM19.9547 6.9253L19.611 7.97022L19.613 7.97089L19.9547 6.9253ZM21.2956 7.6477L20.6014 8.50099L20.6058 8.50453L21.2956 7.6477ZM22.2456 8.80056L21.2761 9.32041L21.2791 9.32583L22.2456 8.80056ZM22.6753 10.0581L21.5925 10.2518V10.2518L22.6753 10.0581ZM20.5089 10.1295L21.5781 9.87123L20.5089 10.1295ZM20.3109 9.61697L19.348 10.1487L19.3514 10.1549L20.3109 9.61697ZM19.8409 9.05291L19.1483 9.90753L19.1483 9.90754L19.8409 9.05291ZM19.1779 8.69666L18.83 9.74022L18.8341 9.74158L19.1779 8.69666ZM17.0008 8.96384L17.6074 9.8815L17.6127 9.87791L17.0008 8.96384ZM16.0953 10.092L17.1036 10.5318L17.1046 10.5293L16.0953 10.092ZM16.0953 13.7039L15.0871 14.1438L15.0896 14.1495L16.0953 13.7039ZM17.0057 14.8172L17.6014 13.8924H17.6014L17.0057 14.8172ZM19.1531 15.0795L18.8306 14.0278L18.8266 14.029L19.1531 15.0795ZM19.8112 14.748L20.4761 15.6244L20.4855 15.6171L19.8112 14.748ZM20.2862 14.2086L19.3468 13.6362L19.3404 13.647L20.2862 14.2086ZM20.5014 13.7105L19.4433 13.4098L19.4433 13.4098L20.5014 13.7105ZM20.7837 13.4873L20.7887 12.3873L20.7837 13.4873ZM22.4119 13.4947L22.4068 14.5947H22.4068L22.4119 13.4947ZM22.6713 13.8008L23.7493 14.02L23.7493 14.02L22.6713 13.8008ZM22.3 14.842L21.3237 14.3352L21.3222 14.338L22.3 14.842ZM21.4044 15.9948L22.1415 16.8114L22.1419 16.811L21.4044 15.9948ZM20.0685 16.7964L20.4576 17.8253L20.4612 17.8239L20.0685 16.7964ZM19.0366 17.0458L18.901 15.9542L16.865 16.2071L18.2025 17.7629L19.0366 17.0458ZM17.5314 17.0327L18.3178 17.8018L19.8299 16.2557L17.6898 15.9442L17.5314 17.0327ZM15.8974 16.4748L15.3478 17.4277L15.3497 17.4288L15.8974 16.4748ZM14.2151 14.6985L13.2422 15.2118L13.2439 15.2151L14.2151 14.6985ZM14.225 9.0628L15.1944 9.58259H15.1944L14.225 9.0628ZM15.9172 7.29145L16.4615 8.24734L16.4648 8.24543L15.9172 7.29145ZM17.453 6.74738L17.6328 7.83259L18.553 7.68012V6.74738H17.453ZM17.728 3.74985C16.9686 3.74985 16.353 4.36546 16.353 5.12485H18.553C18.553 5.58049 18.1837 5.94985 17.728 5.94985V3.74985ZM18.828 3.74985H17.728V5.94985H18.828V3.74985ZM20.203 5.12485C20.203 4.36546 19.5874 3.74985 18.828 3.74985V5.94985C18.3724 5.94985 18.003 5.58049 18.003 5.12485H20.203ZM20.203 6.72999V5.12485H18.003V6.72999H20.203ZM18.9525 7.81964C19.1864 7.85196 19.4055 7.90262 19.611 7.97022L20.2984 5.88038C19.9612 5.76948 19.6125 5.68993 19.2536 5.64034L18.9525 7.81964ZM19.613 7.97089C19.9969 8.09635 20.3228 8.27437 20.6014 8.50098L21.9898 6.79442C21.4898 6.3877 20.9218 6.08412 20.2964 5.87972L19.613 7.97089ZM20.6058 8.50453C20.8763 8.72231 21.0993 8.99065 21.2762 9.3204L23.215 8.28073C22.9036 7.70006 22.4934 7.19983 21.9854 6.79087L20.6058 8.50453ZM21.2791 9.32583C21.4207 9.58646 21.5281 9.89185 21.5925 10.2518L23.7582 9.8644C23.6566 9.29667 23.4775 8.76371 23.2121 8.2753L21.2791 9.32583ZM21.5925 10.2518C21.4927 9.69379 21.9381 9.26411 22.4112 9.26411V11.4641C23.2136 11.4641 23.9159 10.7465 23.7582 9.8644L21.5925 10.2518ZM22.4112 9.26411H20.7923V11.4641H22.4112V9.26411ZM20.7923 9.26411C21.2268 9.26411 21.5066 9.57512 21.5781 9.87123L19.4396 10.3877C19.5755 10.9502 20.0837 11.4641 20.7923 11.4641V9.26411ZM21.5781 9.87123C21.5113 9.59461 21.4103 9.3286 21.2704 9.07906L19.3514 10.1549C19.3853 10.2153 19.4162 10.2909 19.4396 10.3877L21.5781 9.87123ZM21.2739 9.08521C21.0851 8.74337 20.8376 8.44479 20.5334 8.19828L19.1483 9.90754C19.2268 9.97109 19.2927 10.0486 19.348 10.1487L21.2739 9.08521ZM20.5334 8.19828C20.2311 7.9533 19.89 7.77292 19.5216 7.65174L18.8341 9.74158C18.9671 9.78532 19.068 9.84244 19.1483 9.90753L20.5334 8.19828ZM19.5257 7.65311C19.1542 7.52928 18.7666 7.47296 18.3714 7.47296V9.67296C18.5567 9.67296 18.7067 9.6991 18.83 9.74021L19.5257 7.65311ZM18.3714 7.47296C17.656 7.47296 16.9804 7.65375 16.3888 8.04978L17.6127 9.87791C17.7997 9.75276 18.0377 9.67296 18.3714 9.67296V7.47296ZM16.3942 8.0462C15.8006 8.4386 15.3717 8.99528 15.086 9.6546L17.1046 10.5293C17.2477 10.1991 17.4225 10.0037 17.6074 9.88149L16.3942 8.0462ZM15.0871 9.65213C14.7965 10.3182 14.6737 11.0739 14.6737 11.8831H16.8737C16.8737 11.2871 16.9653 10.8487 17.1036 10.5318L15.0871 9.65213ZM14.6737 11.8831C14.6737 12.7072 14.795 13.4743 15.0871 14.1438L17.1036 13.2641C16.9668 12.9506 16.8737 12.5038 16.8737 11.8831H14.6737ZM15.0896 14.1495C15.3799 14.8049 15.8127 15.3572 16.4101 15.742L17.6014 13.8924C17.4203 13.7758 17.2461 13.5859 17.1011 13.2584L15.0896 14.1495ZM16.4101 15.742C16.9952 16.1189 17.6568 16.2933 18.3565 16.2933V14.0933C18.0336 14.0933 17.7947 14.017 17.6014 13.8924L16.4101 15.742ZM18.3565 16.2933C18.7408 16.2933 19.1177 16.2424 19.4796 16.1299L18.8266 14.029C18.7003 14.0683 18.5462 14.0933 18.3565 14.0933V16.2933ZM19.4756 16.1311C19.8369 16.0203 20.1741 15.8534 20.476 15.6243L19.1464 13.8716C19.0657 13.9328 18.9641 13.9869 18.8306 14.0278L19.4756 16.1311ZM20.4855 15.6171C20.7874 15.3829 21.0373 15.0983 21.232 14.7702L19.3404 13.647C19.2844 13.7412 19.2177 13.8162 19.1369 13.8789L20.4855 15.6171ZM21.2255 14.781C21.3724 14.54 21.4826 14.2817 21.5594 14.0113L19.4433 13.4098C19.4171 13.5018 19.3838 13.5756 19.3469 13.6362L21.2255 14.781ZM21.5594 14.0113C21.4787 14.2952 21.2011 14.5892 20.7787 14.5873L20.7887 12.3873C20.0998 12.3842 19.5969 12.8694 19.4433 13.4098L21.5594 14.0113ZM20.7787 14.5873L22.4068 14.5947L22.4169 12.3947L20.7887 12.3873L20.7787 14.5873ZM22.4068 14.5947C21.9419 14.5926 21.4754 14.1617 21.5934 13.5816L23.7493 14.02C23.9327 13.1177 23.2106 12.3984 22.4169 12.3947L22.4068 14.5947ZM21.5934 13.5816C21.542 13.8345 21.4536 14.085 21.3237 14.3352L23.2763 15.3488C23.4963 14.9249 23.6555 14.4814 23.7493 14.02L21.5934 13.5816ZM21.3222 14.338C21.1649 14.6433 20.9498 14.9231 20.667 15.1786L22.1419 16.811C22.6111 16.387 22.9931 15.8983 23.2778 15.3459L21.3222 14.338ZM20.6674 15.1783C20.4054 15.4148 20.0801 15.6144 19.6758 15.7689L20.4612 17.8239C21.0927 17.5826 21.658 17.2478 22.1415 16.8114L20.6674 15.1783ZM19.6794 15.7675C19.4503 15.8541 19.1923 15.918 18.901 15.9542L19.1722 18.1374C19.6206 18.0817 20.0504 17.9793 20.4576 17.8253L19.6794 15.7675ZM20.203 17.225C20.203 16.8835 20.0772 16.5688 19.8708 16.3287L18.2025 17.7629C18.0789 17.619 18.003 17.4295 18.003 17.225H20.203ZM20.203 18.875V17.225H18.003V18.875H20.203ZM18.828 20.25C19.5874 20.25 20.203 19.6343 20.203 18.875H18.003C18.003 18.4193 18.3724 18.05 18.828 18.05V20.25ZM17.728 20.25H18.828V18.05H17.728V20.25ZM16.353 18.875C16.353 19.6343 16.9686 20.25 17.728 20.25V18.05C18.1837 18.05 18.553 18.4193 18.553 18.875H16.353ZM16.353 17.225V18.875H18.553V17.225H16.353ZM16.745 16.2636C16.5036 16.5104 16.353 16.8512 16.353 17.225H18.553C18.553 17.4491 18.4622 17.6542 18.3178 17.8018L16.745 16.2636ZM17.6898 15.9442C17.2298 15.8772 16.818 15.7349 16.4451 15.5208L15.3497 17.4288C15.9727 17.7864 16.6502 18.016 17.373 18.1212L17.6898 15.9442ZM16.447 15.5219C15.9294 15.2234 15.5091 14.7887 15.1863 14.1819L13.2439 15.2151C13.7458 16.1586 14.447 16.9081 15.3478 17.4277L16.447 15.5219ZM15.188 14.1851C14.8812 13.6037 14.7016 12.851 14.7016 11.8831H12.5016C12.5016 13.1187 12.731 14.2429 13.2422 15.2118L15.188 14.1851ZM14.7016 11.8831C14.7016 10.9139 14.8838 10.1621 15.1944 9.58259L13.2556 8.54302C12.735 9.5139 12.5016 10.6423 12.5016 11.8831H14.7016ZM15.1944 9.58259C15.5196 8.97606 15.9421 8.5431 16.4615 8.24733L15.3729 6.33557C14.4673 6.85125 13.7616 7.5992 13.2556 8.54302L15.1944 9.58259ZM16.4648 8.24543C16.8209 8.04101 17.2079 7.903 17.6328 7.83259L17.2732 5.66218C16.5959 5.77441 15.9589 5.99912 15.3695 6.33747L16.4648 8.24543ZM16.353 5.12485V6.74738H18.553V5.12485H16.353Z" fill="#F2B90C" mask="url(#path-2-outside-1_2457_7800)"/>
<mask id="path-4-outside-2_2457_7800" maskUnits="userSpaceOnUse" x="12.6016" y="3.84985" width="11" height="16" fill="black">
<rect fill="white" x="12.6016" y="3.84985" width="11" height="16"/>
<path fill-rule="evenodd" clip-rule="evenodd" d="M17.453 5.12485C17.453 4.97298 17.5761 4.84985 17.728 4.84985H18.828C18.9799 4.84985 19.103 4.97298 19.103 5.12485V6.72999C19.3995 6.77095 19.6834 6.83605 19.9547 6.9253C20.4594 7.09023 20.9063 7.33103 21.2956 7.6477C21.6848 7.96107 22.0015 8.34536 22.2456 8.80056C22.4491 9.17508 22.5924 9.59426 22.6753 10.0581C22.7043 10.2202 22.5759 10.3641 22.4112 10.3641H20.7923C20.6553 10.3641 20.541 10.2627 20.5089 10.1295C20.4638 9.94276 20.3978 9.77193 20.3109 9.61697C20.1889 9.39596 20.0322 9.20794 19.8409 9.05291C19.6496 8.89787 19.4286 8.77912 19.1779 8.69666C18.9305 8.61419 18.6616 8.57296 18.3714 8.57296C17.8469 8.57296 17.39 8.70326 17.0008 8.96384C16.6115 9.22114 16.3097 9.59718 16.0953 10.092C15.8809 10.5835 15.7737 11.1805 15.7737 11.8831C15.7737 12.6055 15.8809 13.2125 16.0953 13.7039C16.313 14.1954 16.6165 14.5665 17.0057 14.8172C17.395 15.0679 17.8452 15.1933 18.3565 15.1933C18.6435 15.1933 18.909 15.1553 19.1531 15.0795C19.4005 15.0036 19.6199 14.8931 19.8112 14.748C20.0025 14.5995 20.1609 14.4197 20.2862 14.2086C20.3781 14.0578 20.4499 13.8917 20.5014 13.7105C20.5378 13.5823 20.6504 13.4867 20.7837 13.4873L22.4119 13.4947C22.5763 13.4955 22.7041 13.6397 22.6713 13.8008C22.5987 14.1579 22.4749 14.505 22.3 14.842C22.079 15.2708 21.7805 15.6551 21.4044 15.9948C21.0317 16.3313 20.5864 16.5985 20.0685 16.7964C19.7695 16.9095 19.4477 16.9897 19.103 17.0371V18.8749C19.103 19.0268 18.9799 19.1499 18.828 19.1499H17.728C17.5761 19.1499 17.453 19.0268 17.453 18.8749V17.0207C16.8918 16.9299 16.3733 16.748 15.8974 16.4748C15.1882 16.0658 14.6274 15.4737 14.2151 14.6985C13.8061 13.9233 13.6016 12.9849 13.6016 11.8831C13.6016 10.7781 13.8094 9.83798 14.225 9.0628C14.6406 8.28763 15.2047 7.69718 15.9172 7.29145C16.3899 7.02006 16.9019 6.83871 17.453 6.74738V5.12485Z"/>
</mask>
<path fill-rule="evenodd" clip-rule="evenodd" d="M17.453 5.12485C17.453 4.97298 17.5761 4.84985 17.728 4.84985H18.828C18.9799 4.84985 19.103 4.97298 19.103 5.12485V6.72999C19.3995 6.77095 19.6834 6.83605 19.9547 6.9253C20.4594 7.09023 20.9063 7.33103 21.2956 7.6477C21.6848 7.96107 22.0015 8.34536 22.2456 8.80056C22.4491 9.17508 22.5924 9.59426 22.6753 10.0581C22.7043 10.2202 22.5759 10.3641 22.4112 10.3641H20.7923C20.6553 10.3641 20.541 10.2627 20.5089 10.1295C20.4638 9.94276 20.3978 9.77193 20.3109 9.61697C20.1889 9.39596 20.0322 9.20794 19.8409 9.05291C19.6496 8.89787 19.4286 8.77912 19.1779 8.69666C18.9305 8.61419 18.6616 8.57296 18.3714 8.57296C17.8469 8.57296 17.39 8.70326 17.0008 8.96384C16.6115 9.22114 16.3097 9.59718 16.0953 10.092C15.8809 10.5835 15.7737 11.1805 15.7737 11.8831C15.7737 12.6055 15.8809 13.2125 16.0953 13.7039C16.313 14.1954 16.6165 14.5665 17.0057 14.8172C17.395 15.0679 17.8452 15.1933 18.3565 15.1933C18.6435 15.1933 18.909 15.1553 19.1531 15.0795C19.4005 15.0036 19.6199 14.8931 19.8112 14.748C20.0025 14.5995 20.1609 14.4197 20.2862 14.2086C20.3781 14.0578 20.4499 13.8917 20.5014 13.7105C20.5378 13.5823 20.6504 13.4867 20.7837 13.4873L22.4119 13.4947C22.5763 13.4955 22.7041 13.6397 22.6713 13.8008C22.5987 14.1579 22.4749 14.505 22.3 14.842C22.079 15.2708 21.7805 15.6551 21.4044 15.9948C21.0317 16.3313 20.5864 16.5985 20.0685 16.7964C19.7695 16.9095 19.4477 16.9897 19.103 17.0371V18.8749C19.103 19.0268 18.9799 19.1499 18.828 19.1499H17.728C17.5761 19.1499 17.453 19.0268 17.453 18.8749V17.0207C16.8918 16.9299 16.3733 16.748 15.8974 16.4748C15.1882 16.0658 14.6274 15.4737 14.2151 14.6985C13.8061 13.9233 13.6016 12.9849 13.6016 11.8831C13.6016 10.7781 13.8094 9.83798 14.225 9.0628C14.6406 8.28763 15.2047 7.69718 15.9172 7.29145C16.3899 7.02006 16.9019 6.83871 17.453 6.74738V5.12485Z" fill="white"/>
<path d="M19.103 6.72999H18.553V7.20924L19.0278 7.27482L19.103 6.72999ZM19.9547 6.9253L19.7828 7.44776L19.7838 7.4481L19.9547 6.9253ZM21.2956 7.6477L20.9485 8.07435L20.9507 8.07611L21.2956 7.6477ZM22.2456 8.80056L21.7609 9.06048L21.7623 9.0632L22.2456 8.80056ZM22.6753 10.0581L22.1339 10.1549V10.1549L22.6753 10.0581ZM20.5089 10.1295L21.0435 10.0003L20.5089 10.1295ZM20.3109 9.61697L19.8295 9.88286L19.8312 9.88592L20.3109 9.61697ZM19.8409 9.05291L19.4946 9.48022L19.4946 9.48022L19.8409 9.05291ZM19.1779 8.69666L19.0039 9.21844L19.006 9.21912L19.1779 8.69666ZM17.0008 8.96384L17.3041 9.42267L17.3068 9.42088L17.0008 8.96384ZM16.0953 10.092L16.5994 10.3119L16.6 10.3107L16.0953 10.092ZM16.0953 13.7039L15.5912 13.9239L15.5924 13.9267L16.0953 13.7039ZM17.0057 14.8172L17.3035 14.3548L17.3035 14.3548L17.0057 14.8172ZM19.1531 15.0795L18.9919 14.5536L18.9899 14.5543L19.1531 15.0795ZM19.8112 14.748L20.1436 15.1862L20.1483 15.1825L19.8112 14.748ZM20.2862 14.2086L19.8165 13.9224L19.8133 13.9278L20.2862 14.2086ZM20.5014 13.7105L19.9723 13.5602V13.5602L20.5014 13.7105ZM20.7837 13.4873L20.7862 12.9373L20.7837 13.4873ZM22.4119 13.4947L22.4093 14.0447H22.4093L22.4119 13.4947ZM22.6713 13.8008L23.2103 13.9104L23.2103 13.9104L22.6713 13.8008ZM22.3 14.842L21.8118 14.5886L21.8111 14.59L22.3 14.842ZM21.4044 15.9948L21.773 16.4031L21.7731 16.4029L21.4044 15.9948ZM20.0685 16.7964L20.2631 17.3108L20.2648 17.3102L20.0685 16.7964ZM19.103 17.0371L19.0281 16.4922L18.553 16.5575V17.0371H19.103ZM17.453 17.0207H18.003V16.5524L17.5408 16.4777L17.453 17.0207ZM15.8974 16.4748L15.6226 16.9512L15.6236 16.9518L15.8974 16.4748ZM14.2151 14.6985L13.7287 14.9552L13.7295 14.9568L14.2151 14.6985ZM14.225 9.0628L14.7097 9.3227H14.7097L14.225 9.0628ZM15.9172 7.29145L16.1894 7.76939L16.191 7.76844L15.9172 7.29145ZM17.453 6.74738L17.5429 7.28999L18.003 7.21375V6.74738H17.453ZM17.728 4.29985C17.2724 4.29985 16.903 4.66922 16.903 5.12485H18.003C18.003 5.27673 17.8799 5.39985 17.728 5.39985V4.29985ZM18.828 4.29985H17.728V5.39985H18.828V4.29985ZM19.653 5.12485C19.653 4.66922 19.2837 4.29985 18.828 4.29985V5.39985C18.6761 5.39985 18.553 5.27673 18.553 5.12485H19.653ZM19.653 6.72999V5.12485H18.553V6.72999H19.653ZM19.0278 7.27482C19.293 7.31146 19.5444 7.36934 19.7828 7.44776L20.1265 6.40284C19.8223 6.30276 19.506 6.23044 19.1783 6.18517L19.0278 7.27482ZM19.7838 7.4481C20.2281 7.59329 20.6146 7.8027 20.9485 8.07434L21.6427 7.22106C21.1981 6.85936 20.6906 6.58717 20.1255 6.40251L19.7838 7.4481ZM20.9507 8.07611C21.2805 8.34169 21.5504 8.668 21.7609 9.06048L22.7303 8.54065C22.4525 8.02271 22.0891 7.58045 21.6405 7.21929L20.9507 8.07611ZM21.7623 9.0632C21.9349 9.38077 22.0603 9.74305 22.1339 10.1549L23.2167 9.96125C23.1245 9.44546 22.9633 8.96939 22.7288 8.53793L21.7623 9.0632ZM22.1339 10.1549C22.0985 9.95698 22.257 9.81411 22.4112 9.81411V10.9141C22.8947 10.9141 23.3101 10.4834 23.2167 9.96125L22.1339 10.1549ZM22.4112 9.81411H20.7923V10.9141H22.4112V9.81411ZM20.7923 9.81411C20.941 9.81411 21.0238 9.91889 21.0435 10.0003L19.9743 10.2586C20.0583 10.6064 20.3695 10.9141 20.7923 10.9141V9.81411ZM21.0435 10.0003C20.9876 9.76869 20.9041 9.55026 20.7907 9.34802L19.8312 9.88592C19.8915 9.99359 19.94 10.1168 19.9743 10.2586L21.0435 10.0003ZM20.7924 9.35109C20.637 9.06967 20.4349 8.82637 20.1872 8.62559L19.4946 9.48022C19.6295 9.58952 19.7408 9.72226 19.8295 9.88285L20.7924 9.35109ZM20.1872 8.6256C19.9403 8.42559 19.6593 8.27602 19.3497 8.1742L19.006 9.21912C19.1978 9.28222 19.3588 9.37016 19.4946 9.48022L20.1872 8.6256ZM19.3518 8.17488C19.0424 8.07174 18.7141 8.02296 18.3714 8.02296V9.12296C18.6091 9.12296 18.8186 9.15665 19.0039 9.21843L19.3518 8.17488ZM18.3714 8.02296C17.7514 8.02296 17.1852 8.17851 16.6948 8.50681L17.3068 9.42088C17.5948 9.22801 17.9423 9.12296 18.3714 9.12296V8.02296ZM16.6975 8.50502C16.2061 8.82987 15.8407 9.29623 15.5907 9.87329L16.6 10.3107C16.7787 9.89813 17.017 9.6124 17.3041 9.42267L16.6975 8.50502ZM15.5912 9.87205C15.3387 10.4509 15.2237 11.1272 15.2237 11.8831H16.3237C16.3237 11.2338 16.4231 10.7161 16.5994 10.3119L15.5912 9.87205ZM15.2237 11.8831C15.2237 12.6564 15.338 13.3434 15.5912 13.9239L16.5994 13.484C16.4238 13.0815 16.3237 12.5546 16.3237 11.8831H15.2237ZM15.5924 13.9267C15.8465 14.5002 16.2146 14.9619 16.7079 15.2796L17.3035 14.3548C17.0184 14.1712 16.7796 13.8907 16.5982 13.4812L15.5924 13.9267ZM16.7079 15.2796C17.1951 15.5934 17.751 15.7433 18.3565 15.7433V14.6433C17.9394 14.6433 17.5948 14.5425 17.3035 14.3548L16.7079 15.2796ZM18.3565 15.7433C18.6921 15.7433 19.0134 15.6989 19.3164 15.6047L18.9899 14.5543C18.8047 14.6118 18.5948 14.6433 18.3565 14.6433V15.7433ZM19.3144 15.6053C19.6187 15.512 19.897 15.3732 20.1436 15.1861L19.4788 14.3098C19.3428 14.4129 19.1823 14.4952 18.9919 14.5536L19.3144 15.6053ZM20.1483 15.1825C20.3949 14.9912 20.5991 14.759 20.7591 14.4894L19.8133 13.9278C19.7226 14.0805 19.6101 14.2079 19.4741 14.3134L20.1483 15.1825ZM20.7559 14.4948C20.8753 14.2989 20.9662 14.0867 21.0304 13.8609L19.9723 13.5602C19.9335 13.6968 19.881 13.8167 19.8165 13.9224L20.7559 14.4948ZM21.0304 13.8609C21.0083 13.9388 20.9258 14.0379 20.7812 14.0373L20.7862 12.9373C20.3751 12.9354 20.0673 13.2259 19.9723 13.5602L21.0304 13.8609ZM20.7812 14.0373L22.4093 14.0447L22.4144 12.9447L20.7862 12.9373L20.7812 14.0373ZM22.4093 14.0447C22.2591 14.044 22.0898 13.9007 22.1324 13.6912L23.2103 13.9104C23.3184 13.3787 22.8934 12.9469 22.4144 12.9447L22.4093 14.0447ZM22.1324 13.6912C22.0703 13.9962 21.9642 14.295 21.8118 14.5886L22.7882 15.0954C22.9856 14.7149 23.1271 14.3196 23.2103 13.9104L22.1324 13.6912ZM21.8111 14.59C21.6219 14.957 21.3651 15.2891 21.0357 15.5867L21.7731 16.4029C22.1958 16.0211 22.536 15.5845 22.7889 15.0939L21.8111 14.59ZM21.0359 15.5866C20.7185 15.873 20.3332 16.1064 19.8721 16.2826L20.2648 17.3102C20.8395 17.0905 21.3448 16.7896 21.773 16.4031L21.0359 15.5866ZM19.8739 16.282C19.6168 16.3792 19.3354 16.45 19.0281 16.4922L19.1779 17.582C19.5599 17.5294 19.9222 17.4397 20.2631 17.3108L19.8739 16.282ZM19.653 18.8749V17.0371H18.553V18.8749H19.653ZM18.828 19.6999C19.2837 19.6999 19.653 19.3305 19.653 18.8749H18.553C18.553 18.723 18.6761 18.5999 18.828 18.5999V19.6999ZM17.728 19.6999H18.828V18.5999H17.728V19.6999ZM16.903 18.8749C16.903 19.3305 17.2724 19.6999 17.728 19.6999V18.5999C17.8799 18.5999 18.003 18.723 18.003 18.8749H16.903ZM16.903 17.0207V18.8749H18.003V17.0207H16.903ZM17.5408 16.4777C17.0427 16.3972 16.5875 16.2368 16.1712 15.9978L15.6236 16.9518C16.159 17.2592 16.7409 17.4627 17.3652 17.5636L17.5408 16.4777ZM16.1722 15.9983C15.5588 15.6446 15.0682 15.1312 14.7007 14.4402L13.7295 14.9568C14.1866 15.8161 14.8176 16.4869 15.6226 16.9512L16.1722 15.9983ZM14.7015 14.4418C14.3436 13.7635 14.1516 12.9179 14.1516 11.8831H13.0516C13.0516 13.0518 13.2685 14.0831 13.7287 14.9552L14.7015 14.4418ZM14.1516 11.8831C14.1516 10.846 14.3466 10 14.7097 9.3227L13.7403 8.80291C13.2722 9.67594 13.0516 10.7102 13.0516 11.8831H14.1516ZM14.7097 9.3227C15.0801 8.63184 15.5734 8.12014 16.1893 7.76939L15.645 6.81351C14.836 7.27422 14.2011 7.94342 13.7403 8.80291L14.7097 9.3227ZM16.191 7.76844C16.6054 7.53054 17.0549 7.37086 17.5429 7.28999L17.3631 6.20478C16.7489 6.30656 16.1744 6.50959 15.6434 6.81446L16.191 7.76844ZM16.903 5.12485V6.74738H18.003V5.12485H16.903Z" fill="#E1B511" mask="url(#path-4-outside-2_2457_7800)"/>
<defs>
<linearGradient id="paint0_linear_2457_7800" x1="12.4994" y1="2.47235" x2="23.5005" y2="21.5276" gradientUnits="userSpaceOnUse">
<stop stop-color="#FFDA1C"/>
<stop offset="1" stop-color="#FEB705"/>
</linearGradient>
</defs>
</svg>
