<svg width="36" height="24" viewBox="0 0 36 24" fill="none" xmlns="http://www.w3.org/2000/svg">
<path d="M23.9605 19.9454C28.3483 19.9454 31.9053 16.3878 31.9053 11.9999C31.9053 7.61203 28.3483 4.05444 23.9605 4.05444C19.5726 4.05444 16.0156 7.61203 16.0156 11.9999C16.0156 16.3878 19.5726 19.9454 23.9605 19.9454Z" fill="#F79E1B"/>
<path d="M12.0425 19.9454C16.4303 19.9454 19.9874 16.3878 19.9874 11.9999C19.9874 7.61203 16.4303 4.05444 12.0425 4.05444C7.65464 4.05444 4.09766 7.61203 4.09766 11.9999C4.09766 16.3878 7.65464 19.9454 12.0425 19.9454Z" fill="#EB001B"/>
<path fill-rule="evenodd" clip-rule="evenodd" d="M18.0015 6.74487C16.7655 8.1455 16.0156 9.9852 16.0156 12C16.0156 14.0147 16.7655 15.8544 18.0015 17.255C19.2374 15.8544 19.9874 14.0147 19.9874 12C19.9874 9.9852 19.2374 8.1455 18.0015 6.74487Z" fill="#FF5A00"/>
</svg>
