<svg width="36" height="24" viewBox="0 0 36 24" fill="none" xmlns="http://www.w3.org/2000/svg">
<g clip-path="url(#clip0_2457_7790)">
<path d="M9 5.7887L11.6642 10.5508V13.4555L9.00312 18.2082L9 5.7887Z" fill="#5B57A2"/>
<path d="M19.2305 8.81783L21.7269 7.28773L26.8361 7.28296L19.2305 11.9422V8.81783Z" fill="#D90751"/>
<path d="M19.2149 5.76062L19.229 12.0654L16.5586 10.4246V1L19.2149 5.76062Z" fill="#FAB718"/>
<path d="M26.8346 7.28302L21.7253 7.28778L19.2149 5.76062L16.5586 1L26.8346 7.28302Z" fill="#ED6F26"/>
<path d="M19.229 18.2347V15.1758L16.5586 13.5662L16.5601 23.0001L19.229 18.2347Z" fill="#63B22F"/>
<path d="M21.7197 16.7185L11.664 10.5508L9 5.7887L26.8242 16.7122L21.7197 16.7185Z" fill="#1487C9"/>
<path d="M16.5586 22.9999L19.2272 18.2346L21.7174 16.7184L26.822 16.7122L16.5586 22.9999Z" fill="#017F36"/>
<path d="M9.00391 18.2083L16.5816 13.5663L14.034 12.0032L11.665 13.4555L9.00391 18.2083Z" fill="#984995"/>
</g>
<defs>
<clipPath id="clip0_2457_7790">
<rect width="17.7833" height="22" fill="white" transform="translate(9 1)"/>
</clipPath>
</defs>
</svg>
