<svg width="36" height="24" viewBox="0 0 36 24" fill="none" xmlns="http://www.w3.org/2000/svg">
<mask id="mask0_2457_7780" style="mask-type:luminance" maskUnits="userSpaceOnUse" x="2" y="6" width="32" height="12">
<path d="M18.5482 10.1457C18.5301 11.5782 19.8249 12.3776 20.8003 12.8529C21.8025 13.3406 22.1391 13.6533 22.1353 14.0894C22.1276 14.7569 21.3358 15.0514 20.5947 15.0629C19.3018 15.083 18.5501 14.7138 17.9525 14.4346L17.4868 16.614C18.0864 16.8903 19.1966 17.1313 20.348 17.1418C23.0504 17.1418 24.8186 15.8078 24.8282 13.7394C24.8387 11.1144 21.1972 10.969 21.222 9.79567C21.2306 9.43993 21.5701 9.06029 22.3141 8.9637C22.6823 8.91493 23.6988 8.87764 24.8511 9.40838L25.3034 7.29977C24.6838 7.07409 23.8872 6.85797 22.8955 6.85797C20.3518 6.85797 18.5626 8.21015 18.5482 10.1457ZM29.6498 7.03966C29.1563 7.03966 28.7403 7.3275 28.5548 7.76931L24.6943 16.9869H27.3948L27.9323 15.5018H31.2324L31.5442 16.9869H33.9244L31.8473 7.03966H29.6498ZM30.0275 9.72682L30.8069 13.4621H28.6724L30.0275 9.72682ZM15.2739 7.03966L13.1452 16.9869H15.7186L17.8463 7.03966H15.2739ZM11.4669 7.03966L8.78838 13.8102L7.70492 8.05332C7.57773 7.4107 7.07568 7.03966 6.51817 7.03966H2.13933L2.07812 7.32846C2.97703 7.52354 3.99835 7.83816 4.61706 8.17477C4.99575 8.38037 5.10381 8.56015 5.22813 9.04881L7.28032 16.9869H10L14.1694 7.03966H11.4669Z" fill="white"/>
</mask>
<g mask="url(#mask0_2457_7780)">
<path d="M-1.25781 8.08616L30.1202 -3.46957L37.2585 15.914L5.88086 27.4697" fill="url(#paint0_linear_2457_7780)"/>
</g>
<defs>
<linearGradient id="paint0_linear_2457_7780" x1="4.96185" y1="16.8293" x2="31.8014" y2="6.94468" gradientUnits="userSpaceOnUse">
<stop stop-color="#222357"/>
<stop offset="1" stop-color="#254AA5"/>
</linearGradient>
</defs>
</svg>
