<svg width="36" height="24" viewBox="0 0 36 24" fill="none" xmlns="http://www.w3.org/2000/svg">
<path d="M12.0787 5.74683V18.2532H9.02105L5.08984 5.74683H12.0787Z" fill="#8B3FFD"/>
<path d="M20.5383 3.53979C15.8263 3.53979 12.0781 7.34284 12.0781 12C12.0781 16.7135 15.8799 20.4601 20.5383 20.4601C25.1967 20.4601 28.9985 16.6571 28.9985 12C28.9985 7.34284 25.1967 3.53979 20.5383 3.53979ZM20.5383 15.1585C18.8249 15.1585 17.3791 13.7121 17.3791 12C17.3791 10.2878 18.8249 8.84147 20.5383 8.84147C22.2518 8.84147 23.6974 10.2878 23.6974 12C23.644 13.7121 22.2518 15.1585 20.5383 15.1585Z" fill="#8B3FFD"/>
</svg>
