<svg width="36" height="36" viewBox="0 0 36 36" fill="none" xmlns="http://www.w3.org/2000/svg">
  <path
    d="M27.5402 9.95972C29.4278 11.8479 30.7131 14.2534 31.2336 16.872C31.7542 19.4906 31.4865 22.2048 30.4646 24.6713C29.4427 27.1379 27.7124 29.246 25.4924 30.7292C23.2725 32.2125 20.6625 33.0041 17.9927 33.0041C15.3228 33.0041 12.7129 32.2125 10.4929 30.7292C8.27297 29.246 6.54264 27.1379 5.52073 24.6713C4.49882 22.2048 4.23121 19.4906 4.75176 16.872C5.2723 14.2534 6.55761 11.8479 8.44518 9.95972"
    stroke="url(#paint0_linear)" stroke-width="3" stroke-linecap="round" stroke-linejoin="round"/>
  <path d="M18 3V18" stroke="url(#paint1_linear)" stroke-width="3" stroke-linecap="round" stroke-linejoin="round"/>
  <defs>
    <linearGradient id="paint0_linear" x1="4.25863" y1="9.78252" x2="26.4418" y2="27.7262"
                    gradientUnits="userSpaceOnUse">
      <stop stop-color="#3CA55C"/>
      <stop offset="1" stop-color="#B5AC49"/>
    </linearGradient>
    <linearGradient id="paint1_linear" x1="17.9913" y1="2.88466" x2="20.8791" y2="1.41345"
                    gradientUnits="userSpaceOnUse">
      <stop stop-color="#3CA55C"/>
      <stop offset="1" stop-color="#B5AC49"/>
    </linearGradient>
  </defs>
</svg>
