<svg width="12" height="16" viewBox="0 0 12 16" fill="none" xmlns="http://www.w3.org/2000/svg">
  <path
    d="M0.54541 1.12109C0.54541 0.568809 0.993125 0.121094 1.54541 0.121094H3.18177C3.73406 0.121094 4.18177 0.568809 4.18177 1.12109V14.8787C4.18177 15.431 3.73406 15.8787 3.18177 15.8787H1.54541C0.993126 15.8787 0.54541 15.431 0.54541 14.8787V1.12109Z"
    fill="#5F5245"/>
  <path
    d="M0.54541 1.12109C0.54541 0.568809 0.993125 0.121094 1.54541 0.121094H3.18177C3.73406 0.121094 4.18177 0.568809 4.18177 1.12109V14.8787C4.18177 15.431 3.73406 15.8787 3.18177 15.8787H1.54541C0.993126 15.8787 0.54541 15.431 0.54541 14.8787V1.12109Z"
    fill="url(#paint0_linear)"/>
  <path
    d="M7.81812 1.12109C7.81812 0.568809 8.26583 0.121094 8.81812 0.121094H10.4545C11.0068 0.121094 11.4545 0.568809 11.4545 1.12109V14.8787C11.4545 15.431 11.0068 15.8787 10.4545 15.8787H8.81812C8.26583 15.8787 7.81812 15.431 7.81812 14.8787V1.12109Z"
    fill="#5F5245"/>
  <path
    d="M7.81812 1.12109C7.81812 0.568809 8.26583 0.121094 8.81812 0.121094H10.4545C11.0068 0.121094 11.4545 0.568809 11.4545 1.12109V14.8787C11.4545 15.431 11.0068 15.8787 10.4545 15.8787H8.81812C8.26583 15.8787 7.81812 15.431 7.81812 14.8787V1.12109Z"
    fill="url(#paint1_linear)"/>
  <defs>
    <linearGradient id="paint0_linear" x1="0.450846" y1="-6.99279e-05" x2="12.5208" y2="5.76882"
                    gradientUnits="userSpaceOnUse">
      <stop stop-color="#3CA55C"/>
      <stop offset="1" stop-color="#B5AC49"/>
    </linearGradient>
    <linearGradient id="paint1_linear" x1="0.450846" y1="-6.99279e-05" x2="12.5208" y2="5.76882"
                    gradientUnits="userSpaceOnUse">
      <stop stop-color="#3CA55C"/>
      <stop offset="1" stop-color="#B5AC49"/>
    </linearGradient>
  </defs>
</svg>
