<svg width="22" height="21" viewBox="0 0 22 21" fill="none" xmlns="http://www.w3.org/2000/svg">
<path d="M18.3709 3.76207C17.4103 2.74543 16.1416 2.12942 14.7935 2.0252C13.4455 1.92097 12.1071 2.33539 11.0197 3.19368C9.87345 2.28199 8.44675 1.86858 7.02688 2.03671C5.60702 2.20485 4.29946 2.94203 3.36752 4.09981C2.43558 5.25759 1.94848 6.74997 2.00432 8.27642C2.06016 9.80287 2.65478 11.25 3.66844 12.3264C5.35029 14.1399 9.46732 19 10.9837 19C12.5 19 16.617 14.1399 18.2989 12.3264C18.8312 11.7702 19.2556 11.107 19.5475 10.3748C19.8394 9.64272 19.9931 8.85612 19.9998 8.06026C20.0065 7.2644 19.866 6.47497 19.5865 5.73734C19.307 4.99971 18.8939 4.32843 18.3709 3.76207Z" stroke="#94918F"/>
<path fill-rule="evenodd" clip-rule="evenodd" d="M10.898 13.6651H10.9051V14.3676C10.9051 14.7266 11.1961 15.0176 11.5551 15.0176C11.9141 15.0176 12.2051 14.7266 12.2051 14.3676V13.6297C13.209 13.4457 13.9698 12.5663 13.9698 11.5092C13.9698 10.3185 13.0046 9.35325 11.8139 9.35325H10.898V10.6533H11.8139C12.2866 10.6533 12.6698 11.0365 12.6698 11.5092C12.6698 11.9819 12.2866 12.3651 11.8139 12.3651H11.5551H10.898L10.898 13.6651ZM10.398 10.6533V9.35325H10.1933C9.72368 9.35325 9.34297 8.97254 9.34297 8.50291C9.34297 8.03329 9.72368 7.65258 10.1933 7.65258H10.398L10.398 6.35258H10.1933C9.00571 6.35258 8.04297 7.31532 8.04297 8.50291C8.04297 9.69051 9.00571 10.6533 10.1933 10.6533H10.398ZM10.898 6.35258L10.898 7.65258H11.5523H13.3198C13.6788 7.65258 13.9698 7.36156 13.9698 7.00258C13.9698 6.64359 13.6788 6.35258 13.3198 6.35258H12.2023V5.65684C12.2023 5.29785 11.9113 5.00684 11.5523 5.00684C11.1933 5.00684 10.9023 5.29785 10.9023 5.65684V6.35258H10.898ZM10.398 12.3651L10.398 13.6651H8.69297C8.33398 13.6651 8.04297 13.3741 8.04297 13.0151C8.04297 12.6561 8.33398 12.3651 8.69297 12.3651H10.398Z" fill="#6C9E2C"/>
</svg>
