<svg width="16" height="16" viewBox="0 0 16 16" fill="none" xmlns="http://www.w3.org/2000/svg">
<path d="M8 10C9.10457 10 10 9.10457 10 8C10 6.89543 9.10457 6 8 6C6.89543 6 6 6.89543 6 8C6 9.10457 6.89543 10 8 10Z" stroke="#3B332B" stroke-opacity="0.45" stroke-linecap="round" stroke-linejoin="round"/>
<path d="M12.9334 10.0001C12.8447 10.2012 12.8182 10.4242 12.8574 10.6405C12.8966 10.8567 12.9997 11.0563 13.1534 11.2134L13.1934 11.2534C13.3174 11.3772 13.4157 11.5243 13.4828 11.6862C13.5499 11.848 13.5845 12.0215 13.5845 12.1967C13.5845 12.372 13.5499 12.5455 13.4828 12.7073C13.4157 12.8692 13.3174 13.0162 13.1934 13.1401C13.0696 13.264 12.9225 13.3624 12.7607 13.4295C12.5988 13.4966 12.4253 13.5311 12.2501 13.5311C12.0749 13.5311 11.9014 13.4966 11.7395 13.4295C11.5776 13.3624 11.4306 13.264 11.3067 13.1401L11.2667 13.1001C11.1096 12.9464 10.9101 12.8433 10.6938 12.8041C10.4775 12.7649 10.2545 12.7913 10.0534 12.8801C9.85623 12.9646 9.68807 13.1049 9.56962 13.2838C9.45117 13.4626 9.3876 13.6722 9.38675 13.8867V14.0001C9.38675 14.3537 9.24627 14.6928 8.99622 14.9429C8.74617 15.1929 8.40704 15.3334 8.05341 15.3334C7.69979 15.3334 7.36065 15.1929 7.1106 14.9429C6.86056 14.6928 6.72008 14.3537 6.72008 14.0001V13.9401C6.71492 13.7194 6.64349 13.5054 6.51509 13.3259C6.38668 13.1464 6.20724 13.0096 6.00008 12.9334C5.799 12.8447 5.57595 12.8182 5.35969 12.8574C5.14342 12.8966 4.94387 12.9997 4.78675 13.1534L4.74675 13.1934C4.62292 13.3174 4.47587 13.4157 4.314 13.4828C4.15214 13.5499 3.97863 13.5845 3.80341 13.5845C3.62819 13.5845 3.45469 13.5499 3.29283 13.4828C3.13096 13.4157 2.98391 13.3174 2.86008 13.1934C2.73611 13.0696 2.63777 12.9225 2.57067 12.7607C2.50357 12.5988 2.46903 12.4253 2.46903 12.2501C2.46903 12.0749 2.50357 11.9014 2.57067 11.7395C2.63777 11.5776 2.73611 11.4306 2.86008 11.3067L2.90008 11.2667C3.05377 11.1096 3.15687 10.9101 3.19608 10.6938C3.2353 10.4775 3.20882 10.2545 3.12008 10.0534C3.03557 9.85623 2.89525 9.68807 2.71639 9.56962C2.53753 9.45117 2.32794 9.3876 2.11341 9.38675H2.00008C1.64646 9.38675 1.30732 9.24627 1.05727 8.99622C0.807224 8.74617 0.666748 8.40704 0.666748 8.05341C0.666748 7.69979 0.807224 7.36065 1.05727 7.1106C1.30732 6.86056 1.64646 6.72008 2.00008 6.72008H2.06008C2.28074 6.71492 2.49475 6.64349 2.67428 6.51509C2.85381 6.38668 2.99056 6.20724 3.06675 6.00008C3.15549 5.799 3.18196 5.57595 3.14275 5.35969C3.10354 5.14342 3.00044 4.94387 2.84675 4.78675L2.80675 4.74675C2.68278 4.62292 2.58443 4.47587 2.51733 4.314C2.45024 4.15214 2.4157 3.97863 2.4157 3.80341C2.4157 3.62819 2.45024 3.45469 2.51733 3.29283C2.58443 3.13096 2.68278 2.98391 2.80675 2.86008C2.93058 2.73611 3.07763 2.63777 3.23949 2.57067C3.40136 2.50357 3.57486 2.46903 3.75008 2.46903C3.9253 2.46903 4.0988 2.50357 4.26067 2.57067C4.42253 2.63777 4.56958 2.73611 4.69341 2.86008L4.73341 2.90008C4.89053 3.05377 5.09009 3.15687 5.30635 3.19608C5.52262 3.2353 5.74567 3.20882 5.94675 3.12008H6.00008C6.19726 3.03557 6.36543 2.89525 6.48388 2.71639C6.60233 2.53753 6.66589 2.32794 6.66675 2.11341V2.00008C6.66675 1.64646 6.80722 1.30732 7.05727 1.05727C7.30732 0.807224 7.64646 0.666748 8.00008 0.666748C8.3537 0.666748 8.69284 0.807224 8.94289 1.05727C9.19294 1.30732 9.33341 1.64646 9.33341 2.00008V2.06008C9.33427 2.27461 9.39783 2.4842 9.51628 2.66306C9.63474 2.84192 9.8029 2.98224 10.0001 3.06675C10.2012 3.15549 10.4242 3.18196 10.6405 3.14275C10.8567 3.10354 11.0563 3.00044 11.2134 2.84675L11.2534 2.80675C11.3772 2.68278 11.5243 2.58443 11.6862 2.51733C11.848 2.45024 12.0215 2.4157 12.1967 2.4157C12.372 2.4157 12.5455 2.45024 12.7073 2.51733C12.8692 2.58443 13.0162 2.68278 13.1401 2.80675C13.264 2.93058 13.3624 3.07763 13.4295 3.23949C13.4966 3.40136 13.5311 3.57486 13.5311 3.75008C13.5311 3.9253 13.4966 4.0988 13.4295 4.26067C13.3624 4.42253 13.264 4.56958 13.1401 4.69341L13.1001 4.73341C12.9464 4.89053 12.8433 5.09009 12.8041 5.30635C12.7649 5.52262 12.7913 5.74567 12.8801 5.94675V6.00008C12.9646 6.19726 13.1049 6.36543 13.2838 6.48388C13.4626 6.60233 13.6722 6.66589 13.8867 6.66675H14.0001C14.3537 6.66675 14.6928 6.80722 14.9429 7.05727C15.1929 7.30732 15.3334 7.64646 15.3334 8.00008C15.3334 8.3537 15.1929 8.69284 14.9429 8.94289C14.6928 9.19294 14.3537 9.33341 14.0001 9.33341H13.9401C13.7256 9.33427 13.516 9.39783 13.3371 9.51628C13.1582 9.63474 13.0179 9.8029 12.9334 10.0001V10.0001Z" stroke="#3B332B" stroke-opacity="0.45" stroke-linecap="round" stroke-linejoin="round"/>
</svg>
