<?xml version="1.0" encoding="iso-8859-1"?>
<!-- Generator: Adobe Illustrator 18.0.0, SVG Export Plug-In . SVG Version: 6.00 Build 0)  -->
<!DOCTYPE svg PUBLIC "-//W3C//DTD SVG 1.1//EN" "http://www.w3.org/Graphics/SVG/1.1/DTD/svg11.dtd">
<svg version="1.1" id="Capa_1" xmlns="http://www.w3.org/2000/svg" xmlns:xlink="http://www.w3.org/1999/xlink" x="0px" y="0px"
	 viewBox="0 0 460 460" style="enable-background:new 0 0 460 460;" xml:space="preserve">
<path id="XMLID_903_" d="M457.85,309.769l-41.497-41.498c-1.377-1.377-3.244-2.15-5.191-2.15h-46.059
	c-0.168-18.78-2.817-37.077-7.771-54.298l16.866-25.298l38.745-9.686c3.933-0.983,6.323-4.968,5.341-8.901
	c-0.984-3.934-4.973-6.325-8.902-5.341l-41.497,10.374c-1.771,0.443-3.314,1.53-4.327,3.049l-12.202,18.304
	c-6.364-16.01-14.843-30.807-25.268-43.839c-2.327-2.909-4.729-5.692-7.195-8.358c0.15-1.668,0.229-3.364,0.229-5.089
	c0-24.334-15.512-51.158-39.572-67.639l22.047-33.071c2.249-3.373,1.337-7.931-2.036-10.179c-3.372-2.249-7.93-1.338-10.179,2.036
	l-22.583,33.874c-11.149-5.282-23.583-8.392-36.798-8.392c-13.216,0-25.649,3.11-36.798,8.392l-22.583-33.874
	c-2.248-3.373-6.806-4.284-10.179-2.036c-3.373,2.248-4.285,6.806-2.036,10.179l22.047,33.071
	c-24.06,16.48-39.572,43.305-39.572,67.639c0,1.725,0.079,3.421,0.229,5.088c-2.466,2.666-4.868,5.449-7.196,8.358
	c-10.425,13.031-18.903,27.829-25.268,43.839l-12.202-18.303c-1.013-1.519-2.556-2.607-4.327-3.049l-41.498-10.374
	c-3.93-0.984-7.918,1.408-8.901,5.341c-0.984,3.933,1.408,7.918,5.341,8.901l38.745,9.686l16.865,25.298
	c-4.954,17.222-7.603,35.518-7.771,54.298H48.838c-1.947,0-3.814,0.773-5.19,2.15L2.15,309.769c-2.867,2.866-2.867,7.514,0,10.381
	c1.433,1.433,3.312,2.15,5.19,2.15s3.757-0.717,5.19-2.15l39.347-39.348h43.39c1.538,25.314,7.639,49.509,17.799,71.105
	L66.86,370.39c-1.669,0.668-3.035,1.924-3.839,3.533L42.273,415.42c-1.813,3.626-0.344,8.035,3.283,9.848
	c1.054,0.527,2.174,0.777,3.277,0.777c2.692,0,5.285-1.487,6.571-4.059l19.501-39.001l44.999-18
	c4.184,7.238,8.855,14.118,14.009,20.561c25.556,31.945,59.681,49.538,96.087,49.538s70.531-17.593,96.087-49.538
	c5.154-6.443,9.826-13.323,14.01-20.561l45,18l19.501,39.001c1.286,2.573,3.879,4.06,6.571,4.059c1.103,0,2.223-0.249,3.277-0.777
	c3.625-1.813,5.095-6.222,3.282-9.848l-20.749-41.497c-0.804-1.608-2.17-2.865-3.839-3.533l-46.207-18.483
	c10.16-21.596,16.261-45.791,17.799-71.105h43.39l39.347,39.348c1.434,1.434,3.312,2.15,5.191,2.15c1.878,0,3.757-0.717,5.191-2.15
	C460.717,317.284,460.717,312.636,457.85,309.769z M230,68.35c41.235,0,74.44,37.578,74.44,68.69c0,33.215-38.453,45.05-74.44,45.05
	c-35.987,0-74.44-11.835-74.44-45.05C155.56,105.927,188.765,68.35,230,68.35z M109.559,268.015
	c0-42.561,13.878-81.08,36.191-108.752c1.791,3.736,4.07,7.242,6.823,10.499c-11.693,28.323-18.036,62.439-18.036,98.253
	c0,43.884,9.491,85.254,26.724,116.49c3.507,6.356,7.26,12.148,11.221,17.367C135.026,376.004,109.559,325.703,109.559,268.015z
	 M174.114,377.413c-16.056-29.101-24.898-67.952-24.898-109.398c0-31.915,5.259-62.275,15.002-87.845
	c1.36,0.933,2.771,1.834,4.245,2.698c13.972,8.181,32.603,12.879,54.196,13.744v223.143
	C204.61,416.596,187.593,401.846,174.114,377.413z M237.34,419.755V196.612c21.593-0.865,40.223-5.564,54.196-13.744
	c1.474-0.863,2.886-1.765,4.246-2.698c9.743,25.571,15.002,55.931,15.002,87.846c0,41.446-8.842,80.297-24.898,109.398
	C272.406,401.846,255.39,416.596,237.34,419.755z M287.519,401.872c3.961-5.219,7.715-11.01,11.221-17.366
	c17.234-31.236,26.725-72.607,26.725-116.49c0-35.814-6.343-69.93-18.037-98.253c2.753-3.257,5.031-6.763,6.823-10.499
	c22.313,27.672,36.19,66.191,36.19,108.752C350.441,325.703,324.974,376.004,287.519,401.872z"/>
<g>
</g>
<g>
</g>
<g>
</g>
<g>
</g>
<g>
</g>
<g>
</g>
<g>
</g>
<g>
</g>
<g>
</g>
<g>
</g>
<g>
</g>
<g>
</g>
<g>
</g>
<g>
</g>
<g>
</g>
</svg>
